<svg width="22" height="22" viewBox="0 0 22 22" fill="none" xmlns="http://www.w3.org/2000/svg">
<path d="M11.8018 6.04883L12.0352 6.80176L12.6992 6.375L15.9971 4.25391L14.4814 7.87012L14.1758 8.59766L14.959 8.69727L18.8486 9.19238L15.3623 10.9883L14.6611 11.3496L15.1963 11.9287L17.8564 14.8076L14.0332 13.9434L13.2637 13.7695L13.3018 14.5576L13.4893 18.4736L11.1162 15.3535L10.6387 14.7256L10.1611 15.3535L7.78613 18.4746L7.97461 14.5576L8.0127 13.7695L7.24316 13.9434L3.41895 14.8076L6.08008 11.9287L6.61523 11.3496L5.91406 10.9883L2.42773 9.19238L6.31836 8.69727L7.10059 8.59766L6.7959 7.87012L5.2793 4.25391L8.57812 6.375L9.24121 6.80176L9.47559 6.04883L10.6377 2.30273L11.8018 6.04883Z" stroke="#B9BABA" stroke-width="1.2"/>
</svg>
