<svg width="136" height="136" viewBox="0 0 136 136" fill="none" xmlns="http://www.w3.org/2000/svg">
<path d="M78.374 36.6074L78.5693 37.2344L79.1221 36.8789L109.843 17.1221L95.7217 50.8086L95.4678 51.4141L96.1201 51.498L132.353 56.1094L99.8828 72.8379L99.2979 73.1387L99.7441 73.6221L124.536 100.446L88.9092 92.3887L88.2686 92.2432L88.2998 92.9004L90.0488 129.384L67.9375 100.312L67.5391 99.7881L67.1406 100.312L45.0283 129.384L46.7783 92.9004L46.8096 92.2432L46.1689 92.3887L10.541 100.446L35.334 73.6221L35.7803 73.1387L35.1953 72.8379L2.72461 56.1094L38.958 51.498L39.6104 51.4141L39.3564 50.8086L25.2344 17.1221L55.9561 36.8789L56.5088 37.2344L56.7041 36.6074L67.5391 1.72461L78.374 36.6074Z" fill="url(#paint0_radial_89_2323)" stroke="white"/>
<defs>
<radialGradient id="paint0_radial_89_2323" cx="0" cy="0" r="1" gradientUnits="userSpaceOnUse" gradientTransform="translate(67.5391 67.5391) rotate(90) scale(67.5)">
<stop stop-color="white"/>
<stop offset="1" stop-color="#C4C4C4"/>
</radialGradient>
</defs>
</svg>
