<svg width="2023" height="550" viewBox="0 0 2023 550" fill="none" xmlns="http://www.w3.org/2000/svg">
<path d="M1172.95 141.747H1639.05C1645.24 141.747 1650.25 146.763 1650.25 152.951V246.253H1172.95C1166.76 246.253 1161.75 241.237 1161.75 235.049V152.951C1161.75 146.763 1166.76 141.747 1172.95 141.747Z" fill="#252627"/>
<path d="M1172.95 141.747H1639.05C1645.24 141.747 1650.25 146.763 1650.25 152.951V246.253H1172.95C1166.76 246.253 1161.75 241.237 1161.75 235.049V152.951C1161.75 146.763 1166.76 141.747 1172.95 141.747Z" stroke="#535454" stroke-width="1.4939"/>
<path d="M1195.33 171.566V172.484C1195.31 173.617 1195.31 175.355 1194.88 177.621L1193.34 177.504C1193.76 175.424 1193.8 173.949 1193.83 172.855H1186.68V171.566H1195.33ZM1190.86 175.414V179.145C1192.78 179.066 1194.78 178.93 1196.58 178.676L1196.68 179.809C1193.05 180.434 1188.85 180.512 1185.76 180.512L1185.61 179.242C1186.73 179.232 1188 179.223 1189.34 179.184V175.414H1190.86ZM1199.32 170.219V175.883H1201.86V177.191H1199.32V183.285H1197.75V170.219H1199.32ZM1199.88 185.922V187.211H1188.28V182.113H1189.82V185.922H1199.88ZM1216.56 170.238V174.691H1219.2V176H1216.56V180.59H1215.04V170.238H1216.56ZM1216.56 181.449V187.348H1205.57V181.449H1216.56ZM1207.07 182.641V186.098H1215.08V182.641H1207.07ZM1211.6 171.176V175.922H1205.27V178.383C1208.36 178.383 1210.6 178.295 1213.3 177.855L1213.46 179.086C1210.66 179.574 1208.34 179.672 1205.12 179.672H1203.77V174.73H1210.1V172.445H1203.73V171.176H1211.6ZM1234.59 170.219V187.621H1233.05V170.219H1234.59ZM1225.35 171.566C1227.93 171.586 1229.79 173.93 1229.79 177.621C1229.79 181.312 1227.93 183.656 1225.35 183.656C1222.75 183.656 1220.92 181.312 1220.92 177.621C1220.92 173.93 1222.75 171.586 1225.35 171.566ZM1225.35 172.934C1223.61 172.953 1222.4 174.789 1222.4 177.621C1222.4 180.453 1223.61 182.289 1225.35 182.289C1227.09 182.289 1228.3 180.453 1228.3 177.621C1228.3 174.789 1227.09 172.953 1225.35 172.934ZM1258.46 176.938V178.188H1242.58V176.938H1247.5C1248.04 174.818 1248.16 173.227 1248.2 172.172H1244.06V170.922H1249.73V171.371C1249.71 172.279 1249.71 174.232 1249.04 176.938H1254.36C1254.86 174.799 1254.95 173.246 1254.98 172.172H1250.9V170.922H1256.46V171.625C1256.46 172.68 1256.46 174.486 1255.9 176.938H1258.46ZM1256.5 180.043V181.234H1246.09V183.07H1256.05V184.223H1246.09V186.137H1256.62V187.348H1244.55V180.043H1256.5ZM1276.11 177.152V178.441H1273.3V187.582H1271.78V170.219H1273.3V177.152H1276.11ZM1262.11 171.938V181.879C1264.65 181.869 1267.24 181.674 1270.1 181.078L1270.29 182.387C1267.3 182.992 1264.61 183.168 1261.97 183.168H1260.59V171.938H1262.11ZM1291.19 175.492V176.723H1279.3V170.863H1280.82V175.492H1291.19ZM1293.03 179.086V180.336H1277.13V179.086H1293.03ZM1291.29 185.883V187.152H1279.2V182.113H1280.72V185.883H1291.29ZM1308.16 171.547C1308.16 173.812 1311.33 175.883 1314.34 176.352L1313.73 177.562C1311.09 177.113 1308.49 175.648 1307.38 173.617C1306.29 175.688 1303.65 177.133 1301.02 177.582L1300.41 176.371C1303.44 175.902 1306.58 173.891 1306.58 171.547V170.668H1308.16V171.547ZM1315.33 179.066V180.336H1308.26V183.891H1306.74V180.336H1299.43V179.066H1315.33ZM1313.55 185.922V187.211H1301.46V182.191H1303.01V185.922H1313.55ZM1330.31 170.219V175.512H1332.93V176.801H1330.31V182.934H1328.77V170.219H1330.31ZM1325.62 171.566C1325.62 176.039 1322.42 179.359 1317.42 180.922L1316.76 179.691C1320.92 178.393 1323.63 175.912 1323.96 172.855H1317.48V171.566H1325.62ZM1331.11 185.922V187.211H1319.43V181.645H1320.96V185.922H1331.11ZM1348.34 170.219V187.621H1346.8V170.219H1348.34ZM1339.1 171.566C1341.68 171.586 1343.54 173.93 1343.54 177.621C1343.54 181.312 1341.68 183.656 1339.1 183.656C1336.5 183.656 1334.67 181.312 1334.67 177.621C1334.67 173.93 1336.5 171.586 1339.1 171.566ZM1339.1 172.934C1337.36 172.953 1336.15 174.789 1336.15 177.621C1336.15 180.453 1337.36 182.289 1339.1 182.289C1340.84 182.289 1342.05 180.453 1342.05 177.621C1342.05 174.789 1340.84 172.953 1339.1 172.934ZM1360.98 171.566C1363.54 171.586 1365.35 173.93 1365.37 177.621C1365.35 181.312 1363.54 183.656 1360.98 183.656C1358.4 183.656 1356.6 181.312 1356.6 177.621C1356.6 173.93 1358.4 171.586 1360.98 171.566ZM1360.98 172.934C1359.26 172.953 1358.05 174.789 1358.05 177.621C1358.05 180.453 1359.26 182.289 1360.98 182.289C1362.71 182.289 1363.89 180.453 1363.89 177.621C1363.89 174.789 1362.71 172.953 1360.98 172.934ZM1369.77 170.219V177.152H1372.68V178.48H1369.77V187.582H1368.24V170.219H1369.77ZM1387.93 170.219V187.582H1386.41V170.219H1387.93ZM1376.25 171.938V181.781C1378.9 181.771 1381.64 181.557 1384.55 180.941L1384.77 182.25C1381.68 182.895 1378.93 183.109 1376.15 183.109H1374.75V171.938H1376.25ZM1404.34 170.219V177.133H1407.25V178.422H1404.34V187.621H1402.81V170.219H1404.34ZM1399.47 171.84V178.051H1393.14V182.113C1396.37 182.113 1398.61 182.006 1401.25 181.508L1401.41 182.777C1398.67 183.285 1396.35 183.402 1393.01 183.422H1391.62V176.781H1397.95V173.109H1391.58V171.84H1399.47ZM1411.04 184.691L1409.51 190.004H1408.07L1409.14 184.691H1411.04ZM1431.91 170.219V174.477H1434.53V175.746H1431.91V180.082H1430.39V170.219H1431.91ZM1427.17 171.352C1427.15 175.727 1424.08 178.852 1418.95 180.258L1418.32 179.027C1422.6 177.875 1425.21 175.561 1425.53 172.621H1419.1V171.352H1427.17ZM1431.91 180.883V187.348H1420.92V180.883H1431.91ZM1422.44 182.152V186.098H1430.39V182.152H1422.44ZM1441.43 173.031C1441.43 175.395 1443.22 177.562 1445.74 178.422L1444.9 179.633C1442.98 178.93 1441.46 177.494 1440.7 175.688C1439.96 177.729 1438.42 179.34 1436.39 180.121L1435.57 178.891C1438.16 177.914 1439.9 175.59 1439.92 172.914V171.117H1441.43V173.031ZM1449.2 170.219V174.75H1451.82V176.039H1449.2V180.785H1447.68V170.219H1449.2ZM1443.63 181.234C1447.21 181.234 1449.36 182.387 1449.36 184.379C1449.36 186.41 1447.21 187.543 1443.63 187.543C1440.06 187.543 1437.87 186.41 1437.87 184.379C1437.87 182.387 1440.06 181.234 1443.63 181.234ZM1443.63 182.465C1441.02 182.465 1439.39 183.188 1439.41 184.379C1439.39 185.609 1441.02 186.312 1443.63 186.332C1446.27 186.312 1447.87 185.609 1447.87 184.379C1447.87 183.188 1446.27 182.465 1443.63 182.465ZM1460.82 170.531C1464.69 170.531 1466.95 171.586 1466.95 173.52C1466.95 175.492 1464.69 176.547 1460.82 176.566C1456.95 176.547 1454.67 175.492 1454.67 173.52C1454.67 171.586 1456.95 170.531 1460.82 170.531ZM1460.82 171.684C1457.93 171.684 1456.25 172.387 1456.27 173.52C1456.25 174.73 1457.93 175.395 1460.82 175.395C1463.69 175.395 1465.39 174.73 1465.39 173.52C1465.39 172.387 1463.69 171.684 1460.82 171.684ZM1468.73 177.738V178.988H1452.91V177.738H1468.73ZM1466.7 180.492V184.379H1456.39V186.176H1467.23V187.387H1454.86V183.246H1465.2V181.664H1454.82V180.492H1466.7ZM1491.46 177.152V178.441H1488.65V187.582H1487.13V170.219H1488.65V177.152H1491.46ZM1477.46 171.938V181.879C1480 181.869 1482.59 181.674 1485.45 181.078L1485.64 182.387C1482.66 182.992 1479.96 183.168 1477.32 183.168H1475.94V171.938H1477.46ZM1506.52 176.078V177.348H1494.55V171.117H1496.07V176.078H1506.52ZM1508.4 179.965V181.254H1501.13V187.582H1499.61V181.254H1492.5V179.965H1508.4ZM1523.83 175.492V176.723H1511.93V170.863H1513.46V175.492H1523.83ZM1525.66 179.086V180.336H1509.77V179.086H1525.66ZM1523.93 185.883V187.152H1511.84V182.113H1513.36V185.883H1523.93ZM1538.26 174.887C1538.24 178.051 1540.41 181.254 1542.97 182.406L1542.03 183.617C1540.06 182.65 1538.35 180.609 1537.52 178.129C1536.71 180.756 1535 182.943 1532.97 183.969L1531.99 182.68C1534.57 181.488 1536.72 178.188 1536.74 174.887V171.723H1538.26V174.887ZM1546.41 170.219V187.621H1544.86V170.219H1546.41ZM1562.95 170.219V175.512H1565.57V176.801H1562.95V182.934H1561.41V170.219H1562.95ZM1558.26 171.566C1558.26 176.039 1555.06 179.359 1550.06 180.922L1549.39 179.691C1553.55 178.393 1556.27 175.912 1556.6 172.855H1550.12V171.566H1558.26ZM1563.75 185.922V187.211H1552.07V181.645H1553.59V185.922H1563.75ZM1580.41 170.219V177.387H1583.05V178.676H1580.41V187.582H1578.87V170.219H1580.41ZM1571.93 172.113C1571.91 176.254 1570.98 180.316 1567.83 183.656L1566.6 182.777C1569.23 180.092 1570.28 176.859 1570.49 173.402H1567.15V172.113H1571.93ZM1576.7 172.113C1576.68 176.234 1576.07 181.02 1572.83 184.809L1571.58 183.949C1574.3 180.883 1575.12 177.025 1575.25 173.402H1572.48V172.113H1576.7ZM1590.16 175.551C1590.16 178.5 1592.3 181.488 1594.86 182.602L1594 183.812C1591.97 182.885 1590.21 180.883 1589.41 178.48C1588.59 181.029 1586.85 183.246 1584.86 184.242L1583.95 183.031C1586.43 181.84 1588.59 178.559 1588.61 175.551V173.285H1584.51V172.016H1594.3V173.285H1590.16V175.551ZM1598.26 170.219V187.582H1596.72V170.219H1598.26ZM1614.67 170.219V177.387H1617.58V178.656H1614.67V187.582H1613.14V170.219H1614.67ZM1611.46 173.012V174.281H1601.13V173.012H1605.61V170.434H1607.13V173.012H1611.46ZM1606.39 175.727C1608.85 175.727 1610.62 177.367 1610.64 179.711C1610.62 182.055 1608.85 183.695 1606.39 183.695C1603.91 183.695 1602.11 182.055 1602.13 179.711C1602.11 177.367 1603.91 175.727 1606.39 175.727ZM1606.39 177.016C1604.77 177.016 1603.57 178.148 1603.59 179.711C1603.57 181.293 1604.77 182.406 1606.39 182.387C1607.99 182.406 1609.16 181.293 1609.18 179.711C1609.16 178.148 1607.99 177.016 1606.39 177.016ZM1201.95 205.152V206.441H1199.14V215.582H1197.62V198.219H1199.14V205.152H1201.95ZM1187.95 199.938V209.879C1190.49 209.869 1193.08 209.674 1195.94 209.078L1196.13 210.387C1193.14 210.992 1190.45 211.168 1187.81 211.168H1186.43V199.938H1187.95ZM1208.67 199.488C1211.41 199.488 1213.34 201.148 1213.34 203.57C1213.34 205.992 1211.41 207.652 1208.67 207.652C1205.94 207.652 1203.96 205.992 1203.98 203.57C1203.96 201.148 1205.94 199.488 1208.67 199.488ZM1208.67 200.836C1206.82 200.836 1205.47 201.949 1205.49 203.57C1205.47 205.191 1206.82 206.305 1208.67 206.305C1210.51 206.305 1211.84 205.191 1211.84 203.57C1211.84 201.949 1210.51 200.836 1208.67 200.836ZM1217.23 198.219V215.621H1215.7V198.219H1217.23ZM1203.09 210.484C1206.29 210.484 1210.7 210.465 1214.55 209.898L1214.67 211.031C1210.7 211.773 1206.43 211.793 1203.3 211.793L1203.09 210.484ZM1239.14 199.078V200.523C1239.14 202.145 1239.14 203.902 1238.67 206.285L1237.15 206.148C1237.36 205.133 1237.48 204.225 1237.56 203.395L1226.97 203.902L1226.76 202.594L1237.62 202.242C1237.64 201.637 1237.64 201.07 1237.64 200.523V200.328H1227.19V199.078H1239.14ZM1241.11 207.457V208.707H1225.31V207.457H1231.76V204.898H1233.3V207.457H1241.11ZM1239.55 214.059V215.309H1227.32V210.191H1228.87V214.059H1239.55ZM1257.32 198.238V211.246H1255.86V198.238H1257.32ZM1253.95 198.59V210.797H1252.46V204.41H1250.12V203.18H1252.46V198.59H1253.95ZM1257.85 213.922V215.211H1246V209.801H1247.56V213.922H1257.85ZM1250.02 199.664V200.934H1244.86V203.336H1249.3V204.547H1244.86V207.086C1247.37 207.076 1248.94 207.008 1250.8 206.617L1250.96 207.867C1248.95 208.277 1247.3 208.355 1244.49 208.355H1243.4V199.664H1250.02ZM1275.76 212.066V213.355H1259.86V212.066H1275.76ZM1268.57 202.281C1268.57 205.152 1271.45 207.32 1274.75 207.906L1274.12 209.156C1271.38 208.6 1268.88 207.096 1267.79 204.82C1266.69 207.096 1264.19 208.6 1261.45 209.156L1260.84 207.906C1264.12 207.32 1267.01 205.152 1267.01 202.281H1261.35V201.031H1267.03V198.648H1268.54V201.031H1274.24V202.281H1268.57ZM1296.56 198.238V208.668H1295.02V206.324H1290.41V205.055H1295.02V202.711H1290.59C1289.44 205.504 1286.76 207.525 1283.05 208.629L1282.4 207.418C1286.6 206.168 1289.21 203.824 1289.53 200.816H1283.28V199.527H1291.19C1291.19 200.211 1291.11 200.865 1290.98 201.48H1295.02V198.238H1296.56ZM1290.88 208.844C1294.39 208.844 1296.66 210.094 1296.66 212.164C1296.66 214.254 1294.39 215.504 1290.88 215.504C1287.32 215.504 1285.08 214.254 1285.08 212.164C1285.08 210.094 1287.32 208.844 1290.88 208.844ZM1290.88 210.074C1288.26 210.055 1286.58 210.855 1286.58 212.164C1286.58 213.473 1288.26 214.254 1290.88 214.254C1293.46 214.254 1295.12 213.473 1295.14 212.164C1295.12 210.855 1293.46 210.055 1290.88 210.074ZM1313.85 198.219V208.746H1312.3V204.781H1309.36V203.512H1312.3V198.219H1313.85ZM1313.85 209.684V215.348H1302.5V209.684H1313.85ZM1304.02 210.914V214.098H1312.34V210.914H1304.02ZM1309.61 200.055V201.305H1299.47V200.055H1303.79V198.062H1305.29V200.055H1309.61ZM1304.53 202.203C1306.89 202.203 1308.55 203.473 1308.57 205.289C1308.55 207.164 1306.89 208.395 1304.53 208.395C1302.17 208.395 1300.51 207.164 1300.51 205.289C1300.51 203.473 1302.17 202.203 1304.53 202.203ZM1304.53 203.395C1303.03 203.395 1301.97 204.176 1301.97 205.289C1301.97 206.441 1303.03 207.203 1304.53 207.223C1306.04 207.203 1307.09 206.441 1307.09 205.289C1307.09 204.176 1306.04 203.395 1304.53 203.395ZM1331.05 198.219V215.621H1329.51V198.219H1331.05ZM1321.82 199.566C1324.39 199.586 1326.25 201.93 1326.25 205.621C1326.25 209.312 1324.39 211.656 1321.82 211.656C1319.22 211.656 1317.38 209.312 1317.38 205.621C1317.38 201.93 1319.22 199.586 1321.82 199.566ZM1321.82 200.934C1320.08 200.953 1318.87 202.789 1318.87 205.621C1318.87 208.453 1320.08 210.289 1321.82 210.289C1323.55 210.289 1324.77 208.453 1324.77 205.621C1324.77 202.789 1323.55 200.953 1321.82 200.934ZM1347.46 198.219V205.133H1350.37V206.422H1347.46V215.621H1345.94V198.219H1347.46ZM1342.6 199.84V206.051H1336.27V210.113C1339.49 210.113 1341.74 210.006 1344.38 209.508L1344.53 210.777C1341.8 211.285 1339.47 211.402 1336.13 211.422H1334.75V204.781H1341.07V201.109H1334.71V199.84H1342.6ZM1365.23 199.977V201.715C1365.21 203.844 1365.21 206.227 1364.59 209.723L1363.03 209.547C1363.69 206.227 1363.69 203.785 1363.69 201.715V201.246H1352.99V199.977H1365.23ZM1367.13 211.852V213.121H1351.31V211.852H1357.52V205.641H1359.02V211.852H1367.13ZM1378.79 201.676C1378.79 203.59 1380.14 205.543 1382.36 206.383L1381.56 207.555C1379.89 206.91 1378.69 205.67 1378.07 204.176C1377.42 205.836 1376.18 207.311 1374.47 208.043L1373.63 206.852C1375.92 205.855 1377.32 203.609 1377.32 201.676V199.312H1378.79V201.676ZM1388.36 198.238V208.961H1386.89V204.176H1384.59V208.414H1383.14V198.57H1384.59V202.906H1386.89V198.238H1388.36ZM1382.62 209.352C1386.21 209.352 1388.46 210.484 1388.46 212.457C1388.46 214.41 1386.21 215.543 1382.62 215.543C1379 215.543 1376.78 214.41 1376.8 212.457C1376.78 210.484 1379 209.352 1382.62 209.352ZM1382.62 210.523C1379.96 210.523 1378.3 211.246 1378.32 212.457C1378.3 213.648 1379.96 214.352 1382.62 214.352C1385.25 214.352 1386.91 213.648 1386.93 212.457C1386.91 211.246 1385.25 210.523 1382.62 210.523ZM1404.47 198.219V202.633H1407.09V203.941H1404.47V208.414H1402.95V198.219H1404.47ZM1399.71 199.332C1399.71 203.727 1396.64 206.852 1391.5 208.219L1390.88 207.027C1395.14 205.875 1397.76 203.551 1398.09 200.602H1391.66V199.332H1399.71ZM1404.47 209.215V215.582H1402.95V210.465H1393.11V209.215H1404.47ZM1416.86 201.227V202.477H1408.14V201.227H1411.76V198.746H1413.28V201.227H1416.86ZM1412.5 203.648C1414.69 203.648 1416.25 205.289 1416.27 207.594C1416.25 209.918 1414.69 211.578 1412.5 211.578C1410.33 211.578 1408.77 209.918 1408.77 207.594C1408.77 205.289 1410.33 203.648 1412.5 203.648ZM1412.5 204.938C1411.13 204.957 1410.14 206.07 1410.14 207.594C1410.14 209.137 1411.13 210.25 1412.5 210.23C1413.89 210.25 1414.9 209.137 1414.9 207.594C1414.9 206.07 1413.89 204.957 1412.5 204.938ZM1422.97 198.219V215.582H1421.5V206.812H1419.2V214.723H1417.75V198.648H1419.2V205.543H1421.5V198.219H1422.97ZM1441.37 212.066V213.355H1425.47V212.066H1429.41V207.379C1427.93 206.607 1427.03 205.357 1427.03 203.785C1427.03 201.09 1429.67 199.332 1433.38 199.312C1437.09 199.332 1439.73 201.09 1439.73 203.785C1439.73 205.328 1438.86 206.568 1437.42 207.34V212.066H1441.37ZM1433.38 200.582C1430.53 200.562 1428.52 201.852 1428.52 203.785C1428.52 205.719 1430.53 207.027 1433.38 207.027C1436.21 207.027 1438.24 205.719 1438.24 203.785C1438.24 201.852 1436.21 200.562 1433.38 200.582ZM1430.92 212.066H1435.88V207.926C1435.13 208.131 1434.29 208.238 1433.38 208.238C1432.49 208.238 1431.66 208.141 1430.92 207.945V212.066ZM1444.59 214.117C1443.91 214.117 1443.32 213.551 1443.34 212.848C1443.32 212.164 1443.91 211.598 1444.59 211.598C1445.27 211.598 1445.84 212.164 1445.84 212.848C1445.84 213.551 1445.27 214.117 1444.59 214.117Z" fill="white"/>
<g opacity="0.7">
<path d="M1544.95 352.747H2011.05C2017.24 352.747 2022.25 357.763 2022.25 363.951V457.253H1544.95C1538.76 457.253 1533.75 452.237 1533.75 446.049V363.951C1533.75 357.763 1538.76 352.747 1544.95 352.747Z" fill="#252627"/>
<path d="M1544.95 352.747H2011.05C2017.24 352.747 2022.25 357.763 2022.25 363.951V457.253H1544.95C1538.76 457.253 1533.75 452.237 1533.75 446.049V363.951C1533.75 357.763 1538.76 352.747 1544.95 352.747Z" stroke="#535454" stroke-width="1.4939"/>
<path d="M1565.55 392.195C1569.29 392.195 1571.65 393.367 1571.65 395.379C1571.65 397.371 1569.29 398.543 1565.55 398.543C1561.84 398.543 1559.48 397.371 1559.48 395.379C1559.48 393.367 1561.84 392.195 1565.55 392.195ZM1565.55 393.367C1562.78 393.387 1560.98 394.148 1561 395.379C1560.98 396.59 1562.78 397.332 1565.55 397.332C1568.33 397.332 1570.11 396.59 1570.12 395.379C1570.11 394.148 1568.33 393.387 1565.55 393.367ZM1571.51 382.117V383.582C1571.51 384.988 1571.51 386.395 1571.02 388.191L1569.52 388.016C1569.99 386.219 1569.99 384.949 1569.99 383.582V383.367H1559.6V382.117H1571.51ZM1573.52 389.324V390.574H1557.72V389.324H1564.27V385.965H1565.77V389.324H1573.52ZM1589.38 381.238V394.07H1587.84V389.383H1583.35C1582.55 390.408 1581.26 391.023 1579.77 391.023C1577.18 391.023 1575.26 389.227 1575.26 386.688C1575.26 384.148 1577.18 382.352 1579.77 382.332C1581.25 382.342 1582.51 382.947 1583.33 383.953H1587.84V381.238H1589.38ZM1589.87 396.922V398.211H1578.23V392.723H1579.77V396.922H1589.87ZM1579.77 383.699C1578 383.719 1576.73 384.949 1576.73 386.688C1576.73 388.426 1578 389.656 1579.77 389.656C1581.47 389.656 1582.78 388.426 1582.78 386.688C1582.78 384.949 1581.47 383.719 1579.77 383.699ZM1584.03 385.223C1584.18 385.672 1584.27 386.16 1584.27 386.688C1584.27 387.195 1584.18 387.674 1584.03 388.113H1587.84V385.223H1584.03ZM1613.17 387.938V389.188H1597.29V387.938H1602.21C1602.75 385.818 1602.88 384.227 1602.92 383.172H1598.78V381.922H1604.44V382.371C1604.42 383.279 1604.42 385.232 1603.76 387.938H1609.07C1609.58 385.799 1609.67 384.246 1609.7 383.172H1605.61V381.922H1611.18V382.625C1611.18 383.68 1611.18 385.486 1610.61 387.938H1613.17ZM1611.22 391.043V392.234H1600.81V394.07H1610.77V395.223H1600.81V397.137H1611.34V398.348H1599.27V391.043H1611.22ZM1630.83 388.152V389.441H1628.02V398.582H1626.49V381.219H1628.02V388.152H1630.83ZM1616.82 382.938V392.879C1619.36 392.869 1621.95 392.674 1624.81 392.078L1625.01 393.387C1622.02 393.992 1619.32 394.168 1616.69 394.168H1615.3V382.938H1616.82ZM1645.79 382.977V384.715C1645.77 386.844 1645.77 389.227 1645.14 392.723L1643.58 392.547C1644.25 389.227 1644.25 386.785 1644.25 384.715V384.246H1633.54V382.977H1645.79ZM1647.68 394.852V396.121H1631.86V394.852H1638.07V388.641H1639.58V394.852H1647.68ZM1663.19 386.492V387.723H1651.3V381.863H1652.82V386.492H1663.19ZM1665.03 390.086V391.336H1649.13V390.086H1665.03ZM1663.29 396.883V398.152H1651.2V393.113H1652.72V396.883H1663.29ZM1677.7 384.949C1677.7 387.293 1679.56 389.402 1682.16 390.223L1681.38 391.453C1679.35 390.77 1677.74 389.344 1676.96 387.508C1676.2 389.49 1674.57 391.053 1672.51 391.805L1671.71 390.574C1674.3 389.656 1676.16 387.41 1676.16 384.949V383.934H1672.1V382.684H1681.71V383.934H1677.7V384.949ZM1685.79 381.238V393.973H1684.27V381.238H1685.79ZM1686.34 396.922V398.211H1674.58V392.762H1676.1V396.922H1686.34ZM1702.59 381.219V388.133H1705.05V389.441H1702.59V398.582H1701.04V381.219H1702.59ZM1692.68 386.453C1692.68 388.348 1692.95 391.17 1694.4 393.055C1695.81 391.219 1696.1 388.436 1696.12 386.453V384.285H1694.77V382.996H1699.6V384.285H1697.57V386.453C1697.57 389.012 1698.15 392.254 1700.32 393.816L1699.3 394.949C1698.02 393.953 1697.25 392.303 1696.84 390.496C1696.45 392.332 1695.72 394.061 1694.38 395.086C1693.05 394.061 1692.33 392.312 1691.94 390.496C1691.52 392.293 1690.77 393.943 1689.5 394.949L1688.48 393.816C1690.61 392.234 1691.22 388.895 1691.24 386.453V384.285H1689.05V382.996H1694.01V384.285H1692.68V386.453ZM1724.62 381.16V385.379H1727.25V386.648H1724.62V390.77H1723.09V381.16H1724.62ZM1724.62 391.668V395.516H1715.09V397.215H1725.26V398.387H1713.58V394.383H1723.09V392.82H1713.54V391.668H1724.62ZM1721.43 382.801V384.031H1711.08V382.801H1715.5V381.043H1717.02V382.801H1721.43ZM1716.26 384.812C1718.78 384.812 1720.42 385.906 1720.44 387.664C1720.42 389.422 1718.78 390.516 1716.26 390.516C1713.72 390.516 1712.06 389.422 1712.08 387.664C1712.06 385.906 1713.72 384.812 1716.26 384.812ZM1716.26 385.945C1714.62 385.945 1713.52 386.629 1713.54 387.664C1713.52 388.719 1714.62 389.363 1716.26 389.363C1717.9 389.363 1718.97 388.719 1718.99 387.664C1718.97 386.629 1717.9 385.945 1716.26 385.945ZM1746.92 381.219V384.988H1749.54V386.277H1746.92V390.066H1745.4V381.219H1746.92ZM1742.12 382.215V389.148H1734.09V382.215H1742.12ZM1735.59 383.465V387.918H1740.63V383.465H1735.59ZM1746.92 390.887V395.125H1737.39V397.117H1747.57V398.348H1735.89V393.953H1745.4V392.117H1735.85V390.887H1746.92ZM1764.95 381.219V398.621H1763.41V381.219H1764.95ZM1755.71 382.566C1758.29 382.586 1760.14 384.93 1760.14 388.621C1760.14 392.312 1758.29 394.656 1755.71 394.656C1753.11 394.656 1751.28 392.312 1751.28 388.621C1751.28 384.93 1753.11 382.586 1755.71 382.566ZM1755.71 383.934C1753.97 383.953 1752.76 385.789 1752.76 388.621C1752.76 391.453 1753.97 393.289 1755.71 393.289C1757.45 393.289 1758.66 391.453 1758.66 388.621C1758.66 385.789 1757.45 383.953 1755.71 383.934ZM1786.51 381.219V385.145H1789.13V386.434H1786.51V390.125H1784.99V381.219H1786.51ZM1781.71 382.371V389.441H1773.68V382.371H1781.71ZM1775.18 383.621V388.211H1780.22V383.621H1775.18ZM1776.28 391.688V396.844C1777.28 396.814 1778.62 396.668 1779.85 396.258L1780.09 397.488C1778.39 398.055 1776.75 398.113 1775.61 398.113H1774.79V391.688H1776.28ZM1788.25 391.863V393.035H1779.48V391.863H1783.13V390.32H1784.64V391.863H1788.25ZM1783.86 393.66C1785.75 393.68 1787.1 394.598 1787.12 396.102C1787.1 397.605 1785.75 398.543 1783.86 398.543C1781.94 398.543 1780.61 397.605 1780.63 396.102C1780.61 394.598 1781.94 393.68 1783.86 393.66ZM1783.86 394.754C1782.78 394.754 1782 395.281 1782 396.102C1782 396.922 1782.78 397.469 1783.86 397.449C1784.95 397.469 1785.71 396.922 1785.71 396.102C1785.71 395.281 1784.95 394.754 1783.86 394.754ZM1806.04 390.379V391.629H1790.22V390.379H1806.04ZM1804.29 396.922V398.211H1792.27V393.152H1793.82V396.922H1804.29ZM1798.13 381.844C1801.86 381.824 1804.27 383.113 1804.27 385.281C1804.27 387.449 1801.86 388.738 1798.13 388.738C1794.36 388.738 1791.98 387.449 1791.98 385.281C1791.98 383.113 1794.36 381.824 1798.13 381.844ZM1798.13 383.074C1795.34 383.074 1793.54 383.914 1793.56 385.281C1793.54 386.648 1795.34 387.488 1798.13 387.488C1800.91 387.488 1802.7 386.648 1802.7 385.281C1802.7 383.914 1800.91 383.074 1798.13 383.074ZM1822.37 381.219V398.582H1820.89V381.219H1822.37ZM1818.82 381.648V397.684H1817.35V389.148H1813.56V387.859H1817.35V381.648H1818.82ZM1814.73 383.367V384.637H1809.68V393.113C1812.18 393.104 1813.76 392.996 1815.63 392.586L1815.79 393.895C1813.78 394.305 1812.08 394.383 1809.29 394.402H1808.19V383.367H1814.73ZM1827.64 395.691L1826.12 401.004H1824.68L1825.75 395.691H1827.64ZM1843.56 382.957V385.398H1847.82V381.219H1849.34V398.621H1847.82V391.453H1843.56V394.188H1835.65V382.957H1843.56ZM1837.18 384.168V392.957H1842.08V384.168H1837.18ZM1843.56 390.184H1847.82V386.668H1843.56V390.184ZM1866.57 381.219V390.438H1865.05V381.219H1866.57ZM1866.57 391.258V395.281H1856.82V397.156H1867.2V398.387H1855.32V394.148H1865.05V392.469H1855.28V391.258H1866.57ZM1862.53 383.094V384.344H1858.56C1858.66 386.375 1860.54 388.152 1863.05 388.816L1862.35 389.988C1860.25 389.422 1858.58 388.113 1857.8 386.414C1857.04 388.25 1855.38 389.646 1853.27 390.281L1852.55 389.09C1855.07 388.348 1856.91 386.521 1857.02 384.344H1853.02V383.094H1857.02V381.102H1858.56V383.094H1862.53ZM1878.29 382.801V390.789H1870.26V382.801H1878.29ZM1871.77 384.051V389.559H1876.8V384.051H1871.77ZM1883.09 381.219V386.512H1885.71V387.801H1883.09V393.953H1881.57V381.219H1883.09ZM1883.89 396.922V398.211H1872.23V392.742H1873.74V396.922H1883.89ZM1898.04 386.551C1898.04 389.5 1900.18 392.488 1902.74 393.602L1901.88 394.812C1899.85 393.885 1898.09 391.883 1897.29 389.48C1896.47 392.029 1894.72 394.246 1892.74 395.242L1891.82 394.031C1894.3 392.84 1896.47 389.559 1896.49 386.551V384.285H1892.39V383.016H1902.18V384.285H1898.04V386.551ZM1906.14 381.219V398.582H1904.6V381.219H1906.14ZM1925.36 388.152V389.441H1922.55V398.582H1921.02V381.219H1922.55V388.152H1925.36ZM1911.36 382.938V392.879C1913.89 392.869 1916.48 392.674 1919.34 392.078L1919.54 393.387C1916.55 393.992 1913.86 394.168 1911.22 394.168H1909.83V382.938H1911.36ZM1940.42 389.363V390.613H1935.05V395.105H1942.29V396.395H1926.39V395.105H1933.54V390.613H1928.43V382.645H1940.24V383.895H1929.97V389.363H1940.42ZM1953.37 382.566C1955.73 382.586 1957.43 384.607 1957.68 387.859H1961.57V381.219H1963.09V398.621H1961.57V389.129H1957.7C1957.52 392.527 1955.79 394.656 1953.37 394.656C1950.81 394.656 1949.01 392.312 1949.01 388.621C1949.01 384.93 1950.81 382.586 1953.37 382.566ZM1953.37 383.934C1951.65 383.953 1950.48 385.789 1950.48 388.621C1950.48 391.453 1951.65 393.289 1953.37 393.289C1955.07 393.289 1956.26 391.453 1956.26 388.621C1956.26 385.789 1955.07 383.953 1953.37 383.934ZM1981 396.922V398.211H1968.91V392.82H1970.44V396.922H1981ZM1980.54 381.238V393.855H1979.03V387.293H1975.83V386.023H1979.03V381.238H1980.54ZM1970.87 382.664V383.934H1967.98V389.793C1968.87 389.773 1969.91 389.676 1971.06 389.422L1971.22 390.691C1969.6 391.043 1968.33 391.043 1967.21 391.043H1966.47V382.664H1970.87ZM1976.67 382.664V383.934H1973.37V389.812C1974.85 389.793 1976 389.705 1977.33 389.383L1977.49 390.652C1975.87 391.004 1974.6 391.043 1972.7 391.043H1971.82V382.664H1976.67ZM1994.17 384.52C1994.17 386.785 1995.87 388.816 1998.43 389.656L1997.7 390.867C1995.7 390.213 1994.19 388.826 1993.45 387.078C1992.69 389.07 1991.09 390.623 1989.01 391.375L1988.23 390.145C1990.83 389.266 1992.64 387.02 1992.66 384.52V383.777H1988.7V382.508H1998.07V383.777H1994.17V384.52ZM2001.86 381.219V385.652H2004.48V386.941H2001.86V391.707H2000.34V381.219H2001.86ZM1996.3 392.176C1999.87 392.176 2002.02 393.348 2002.02 395.34C2002.02 397.371 1999.87 398.543 1996.3 398.543C1992.72 398.543 1990.54 397.371 1990.54 395.34C1990.54 393.348 1992.72 392.176 1996.3 392.176ZM1996.3 393.406C1993.68 393.406 1992.06 394.129 1992.08 395.34C1992.06 396.59 1993.68 397.312 1996.3 397.312C1998.93 397.312 2000.54 396.59 2000.54 395.34C2000.54 394.129 1998.93 393.406 1996.3 393.406ZM1566.49 410.742V412.285H1570.55V409.238H1572.1V421.914H1570.55V417.285H1566.49V418.848H1558.52V410.742H1566.49ZM1560.05 412.012V417.617H1564.99V412.012H1560.05ZM1572.49 424.922V426.211H1560.87V420.781H1562.41V424.922H1572.49ZM1566.49 416.016H1570.55V413.574H1566.49V416.016ZM1589.3 409.219V426.621H1587.76V409.219H1589.3ZM1580.07 410.566C1582.64 410.586 1584.5 412.93 1584.5 416.621C1584.5 420.312 1582.64 422.656 1580.07 422.656C1577.47 422.656 1575.63 420.312 1575.63 416.621C1575.63 412.93 1577.47 410.586 1580.07 410.566ZM1580.07 411.934C1578.33 411.953 1577.12 413.789 1577.12 416.621C1577.12 419.453 1578.33 421.289 1580.07 421.289C1581.8 421.289 1583.02 419.453 1583.02 416.621C1583.02 413.789 1581.8 411.953 1580.07 411.934ZM1605.95 414.395V416.445H1613.17V417.715H1597.27V416.445H1604.44V414.395H1605.95ZM1611.71 409.766V410.977H1606.22C1606.35 412.754 1609.26 414.053 1612.27 414.297L1611.77 415.449C1608.88 415.176 1606.15 414.053 1605.22 412.227C1604.28 414.053 1601.55 415.176 1598.64 415.449L1598.13 414.297C1601.13 414.053 1604.04 412.754 1604.21 410.977H1598.74V409.766H1611.71ZM1611.67 420.02V421.23H1598.78V420.02H1604.44V418.379H1605.96V420.02H1611.67ZM1605.2 422.09C1608.54 422.09 1610.46 422.871 1610.46 424.375C1610.46 425.898 1608.54 426.68 1605.2 426.68C1601.82 426.68 1599.97 425.898 1599.97 424.375C1599.97 422.871 1601.82 422.09 1605.2 422.09ZM1605.2 423.164C1602.86 423.184 1601.51 423.574 1601.51 424.375C1601.51 425.176 1602.86 425.625 1605.2 425.605C1607.57 425.625 1608.88 425.176 1608.89 424.375C1608.88 423.574 1607.57 423.184 1605.2 423.164ZM1619.46 410.254C1622.1 410.254 1624.01 411.914 1624.03 414.336C1624.01 416.758 1622.1 418.418 1619.46 418.418C1616.82 418.418 1614.89 416.758 1614.91 414.336C1614.89 411.914 1616.82 410.254 1619.46 410.254ZM1619.46 411.562C1617.7 411.543 1616.39 412.715 1616.41 414.336C1616.39 415.977 1617.7 417.109 1619.46 417.129C1621.24 417.109 1622.53 415.977 1622.53 414.336C1622.53 412.715 1621.24 411.543 1619.46 411.562ZM1628.15 409.219V413.418H1630.77V414.688H1628.15V419.121H1626.63V409.219H1628.15ZM1620.28 420.859C1620.26 422.412 1621.09 424.043 1622.76 425C1624.42 423.955 1625.26 422.197 1625.28 420.859V419.883H1626.79V420.859C1626.79 422.656 1628.07 424.453 1630.32 425.215L1629.54 426.387C1627.81 425.752 1626.61 424.531 1626.02 423.066C1625.47 424.482 1624.41 425.85 1622.78 426.523C1621.1 425.869 1620.05 424.59 1619.54 423.125C1618.89 424.541 1617.7 425.752 1616.06 426.387L1615.28 425.215C1617.47 424.414 1618.82 422.539 1618.82 420.859V419.883H1620.28V420.859ZM1645.91 414.492V415.723H1634.01V409.863H1635.54V414.492H1645.91ZM1647.74 418.086V419.336H1631.84V418.086H1647.74ZM1646 424.883V426.152H1633.91V421.113H1635.44V424.883H1646ZM1655.36 414.551C1655.36 417.5 1657.51 420.488 1660.07 421.602L1659.21 422.812C1657.18 421.885 1655.42 419.883 1654.62 417.48C1653.8 420.029 1652.05 422.246 1650.07 423.242L1649.15 422.031C1651.63 420.84 1653.8 417.559 1653.82 414.551V412.285H1649.71V411.016H1659.5V412.285H1655.36V414.551ZM1663.46 409.219V426.582H1661.92V409.219H1663.46ZM1677.33 411.973C1677.31 414.043 1679.11 415.918 1681.67 416.68L1680.95 417.871C1678.93 417.275 1677.36 415.996 1676.59 414.355C1675.85 416.221 1674.21 417.656 1672.08 418.32L1671.32 417.129C1673.93 416.309 1675.77 414.277 1675.79 412.012V411.465H1671.84V410.215H1681.2V411.465H1677.33V411.973ZM1685.03 409.219V413.027H1687.64V414.297H1685.03V418.184H1683.5V409.219H1685.03ZM1685.03 418.984V423.145H1675.5V425.215H1685.67V426.426H1673.99V422.012H1683.5V420.215H1673.95V418.984H1685.03ZM1708.11 409.219V426.582H1706.57V409.219H1708.11ZM1702.98 411.113C1702.96 416.113 1700.63 420.527 1694.81 423.32L1693.97 422.07C1698.67 419.844 1701.06 416.514 1701.41 412.363H1694.77V411.113H1702.98ZM1725.44 420.449V426.621H1723.89V421.68H1713.76V420.449H1725.44ZM1725.44 409.219V419.453H1723.89V415H1720.28C1719.95 417.109 1718.15 418.535 1715.83 418.516C1713.23 418.535 1711.32 416.816 1711.32 414.355C1711.32 411.934 1713.23 410.215 1715.83 410.215C1718.15 410.215 1719.95 411.631 1720.28 413.711H1723.89V409.219H1725.44ZM1715.83 411.523C1714.09 411.523 1712.78 412.715 1712.78 414.355C1712.78 416.055 1714.09 417.227 1715.83 417.227C1717.53 417.227 1718.84 416.055 1718.84 414.355C1718.84 412.715 1717.53 411.523 1715.83 411.523ZM1742.64 409.219V426.621H1741.1V409.219H1742.64ZM1733.41 410.566C1735.98 410.586 1737.84 412.93 1737.84 416.621C1737.84 420.312 1735.98 422.656 1733.41 422.656C1730.81 422.656 1728.97 420.312 1728.97 416.621C1728.97 412.93 1730.81 410.586 1733.41 410.566ZM1733.41 411.934C1731.67 411.953 1730.46 413.789 1730.46 416.621C1730.46 419.453 1731.67 421.289 1733.41 421.289C1735.14 421.289 1736.36 419.453 1736.36 416.621C1736.36 413.789 1735.14 411.953 1733.41 411.934ZM1764.21 409.219V414.512H1766.82V415.801H1764.21V422.031H1762.68V409.219H1764.21ZM1765.01 424.922V426.211H1753.35V420.703H1754.85V424.922H1765.01ZM1755.52 410.449C1758.11 410.449 1760.07 412.207 1760.09 414.727C1760.07 417.246 1758.11 419.004 1755.52 419.004C1752.92 419.004 1750.95 417.246 1750.96 414.727C1750.95 412.207 1752.92 410.449 1755.52 410.449ZM1755.52 411.797C1753.8 411.797 1752.45 413.008 1752.47 414.727C1752.45 416.445 1753.8 417.656 1755.52 417.656C1757.27 417.656 1758.58 416.445 1758.58 414.727C1758.58 413.008 1757.27 411.797 1755.52 411.797ZM1789.19 416.152V417.441H1786.38V426.582H1784.85V409.219H1786.38V416.152H1789.19ZM1775.18 410.938V420.879C1777.72 420.869 1780.31 420.674 1783.17 420.078L1783.37 421.387C1780.38 421.992 1777.68 422.168 1775.05 422.168H1773.66V410.938H1775.18ZM1806.12 423.066V424.355H1790.22V423.066H1794.17V418.379C1792.68 417.607 1791.79 416.357 1791.79 414.785C1791.79 412.09 1794.42 410.332 1798.13 410.312C1801.84 410.332 1804.48 412.09 1804.48 414.785C1804.48 416.328 1803.61 417.568 1802.18 418.34V423.066H1806.12ZM1798.13 411.582C1795.28 411.562 1793.27 412.852 1793.27 414.785C1793.27 416.719 1795.28 418.027 1798.13 418.027C1800.96 418.027 1803 416.719 1803 414.785C1803 412.852 1800.96 411.562 1798.13 411.582ZM1795.67 423.066H1800.63V418.926C1799.88 419.131 1799.04 419.238 1798.13 419.238C1797.24 419.238 1796.41 419.141 1795.67 418.945V423.066ZM1809.34 425.117C1808.66 425.117 1808.07 424.551 1808.09 423.848C1808.07 423.164 1808.66 422.598 1809.34 422.598C1810.03 422.598 1810.59 423.164 1810.59 423.848C1810.59 424.551 1810.03 425.117 1809.34 425.117Z" fill="white"/>
</g>
<g opacity="0.6">
<path d="M968.951 444.747H1435.05C1441.24 444.747 1446.25 449.763 1446.25 455.951V549.253H968.951C962.763 549.253 957.747 544.237 957.747 538.049V455.951C957.747 449.763 962.763 444.747 968.951 444.747Z" fill="#252627"/>
<path d="M968.951 444.747H1435.05C1441.24 444.747 1446.25 449.763 1446.25 455.951V549.253H968.951C962.763 549.253 957.747 544.237 957.747 538.049V455.951C957.747 449.763 962.763 444.747 968.951 444.747Z" stroke="#535454" stroke-width="1.4939"/>
<path d="M995.277 473.219V477.281H997.895V478.551H995.277V482.516H993.754V473.219H995.277ZM990.609 474.449C990.59 478.785 987.523 481.676 982.406 482.848L981.762 481.598C986.186 480.631 988.656 478.434 988.91 475.699H982.504V474.449H990.609ZM995.355 483.297V484.469H985.824V486.188H995.16V487.359H985.824V489.156H995.766V490.348H984.281V483.297H995.355ZM1013.3 473.219V490.621H1011.76V473.219H1013.3ZM1004.07 474.566C1006.64 474.586 1008.5 476.93 1008.5 480.621C1008.5 484.312 1006.64 486.656 1004.07 486.656C1001.47 486.656 999.633 484.312 999.633 480.621C999.633 476.93 1001.47 474.586 1004.07 474.566ZM1004.07 475.934C1002.33 475.953 1001.12 477.789 1001.12 480.621C1001.12 483.453 1002.33 485.289 1004.07 485.289C1005.8 485.289 1007.02 483.453 1007.02 480.621C1007.02 477.789 1005.8 475.953 1004.07 475.934ZM1024.93 473.922V476.129H1033.52V473.922H1035.04V480.855H1029.96V482.711H1037.11V483.98H1021.29V482.711H1028.44V480.855H1023.4V473.922H1024.93ZM1024.93 479.625H1033.52V477.34H1024.93V479.625ZM1035.36 488.922V490.211H1023.34V485.367H1024.89V488.922H1035.36ZM1057.93 473.238V486.07H1056.41V473.238H1057.93ZM1058.48 488.922V490.211H1046.72V484.879H1048.25V488.922H1058.48ZM1049.91 477.281C1049.91 479.586 1051.76 481.617 1054.36 482.418L1053.6 483.648C1051.56 482.994 1049.95 481.607 1049.16 479.801C1048.4 481.744 1046.8 483.248 1044.73 483.961L1043.95 482.75C1046.55 481.91 1048.38 479.723 1048.38 477.281V476.812H1044.38V475.582H1048.38V473.316H1049.93V475.582H1053.89V476.812H1049.91V477.281ZM1074.61 474.352V475.875C1074.61 477.525 1074.61 479.312 1074.12 481.812H1076.7V483.082H1069.54V490.621H1067.99V483.082H1060.88V481.812H1072.56C1073.09 479.312 1073.09 477.486 1073.09 475.875V475.621H1062.88V474.352H1074.61ZM1094.01 480.523V481.754H1078.17V480.523H1094.01ZM1092.11 477.848V479.098H1080.28V473.824H1091.94V475.055H1081.82V477.848H1092.11ZM1091.96 483.316V487.34H1081.64V489.137H1092.48V490.387H1080.12V486.188H1090.45V484.508H1080.08V483.316H1091.96ZM1101.14 474.488C1103.87 474.488 1105.8 476.148 1105.8 478.57C1105.8 480.992 1103.87 482.652 1101.14 482.652C1098.4 482.652 1096.43 480.992 1096.45 478.57C1096.43 476.148 1098.4 474.488 1101.14 474.488ZM1101.14 475.836C1099.28 475.836 1097.93 476.949 1097.95 478.57C1097.93 480.191 1099.28 481.305 1101.14 481.305C1102.97 481.305 1104.3 480.191 1104.3 478.57C1104.3 476.949 1102.97 475.836 1101.14 475.836ZM1109.69 473.219V490.621H1108.17V473.219H1109.69ZM1095.55 485.484C1098.75 485.484 1103.17 485.465 1107.02 484.898L1107.13 486.031C1103.17 486.773 1098.89 486.793 1095.77 486.793L1095.55 485.484ZM1132.66 475.211V476.48H1118.58V475.211H1124.91V473.121H1126.41V475.211H1132.66ZM1133.66 484.469V485.738H1126.41V490.621H1124.91V485.738H1117.76V484.469H1133.66ZM1125.67 477.477C1129.2 477.477 1131.33 478.512 1131.33 480.387C1131.33 482.223 1129.2 483.258 1125.67 483.277C1122.11 483.258 1119.98 482.223 1120 480.387C1119.98 478.512 1122.11 477.477 1125.67 477.477ZM1125.67 478.648C1123.07 478.648 1121.57 479.293 1121.59 480.387C1121.57 481.461 1123.07 482.086 1125.67 482.086C1128.23 482.086 1129.73 481.461 1129.75 480.387C1129.73 479.293 1128.23 478.648 1125.67 478.648ZM1149.4 473.219V490.582H1147.86V473.219H1149.4ZM1144.26 475.113C1144.24 480.113 1141.92 484.527 1136.1 487.32L1135.26 486.07C1139.96 483.844 1142.35 480.514 1142.7 476.363H1136.06V475.113H1144.26ZM1168.21 481.285V482.496H1152.31V481.285H1168.21ZM1166.21 483.883V487.574H1155.79V489.234H1166.78V490.348H1154.24V486.52H1164.69V485.035H1154.22V483.883H1166.21ZM1166.16 473.746V477.34H1155.9V478.863H1166.47V479.977H1154.38V476.285H1164.61V474.859H1154.32V473.746H1166.16ZM1188.21 473.238V478.961H1190.82V480.25H1188.21V486.246H1186.68V473.238H1188.21ZM1185.02 475.367V476.617H1174.67V475.367H1179.09V473.238H1180.61V475.367H1185.02ZM1179.85 477.574C1182.33 477.574 1184.01 478.844 1184.03 480.816C1184.01 482.77 1182.33 484.02 1179.85 484.02C1177.35 484.02 1175.65 482.77 1175.67 480.816C1175.65 478.844 1177.35 477.574 1179.85 477.574ZM1179.85 478.785C1178.21 478.785 1177.11 479.586 1177.13 480.816C1177.11 482.047 1178.21 482.828 1179.85 482.809C1181.47 482.828 1182.56 482.047 1182.58 480.816C1182.56 479.586 1181.47 478.785 1179.85 478.785ZM1189.01 488.922V490.211H1177.35V485.211H1178.85V488.922H1189.01ZM1205.73 474.078V475.289C1205.73 476.617 1205.73 478.121 1205.26 480.191L1203.75 480.016C1204.2 477.994 1204.2 476.588 1204.2 475.309H1193.81V474.078H1205.73ZM1207.74 481.383V482.613H1191.94V481.383H1198.48V477.867H1199.98V481.383H1207.74ZM1200.53 484.801C1200.53 487.105 1203.3 488.844 1206.47 489.312L1205.88 490.504C1203.23 490.064 1200.81 488.824 1199.77 486.93C1198.71 488.824 1196.29 490.064 1193.64 490.504L1193.07 489.312C1196.21 488.844 1198.97 487.105 1198.99 484.801V484H1200.53V484.801ZM1224.09 473.219V490.582H1222.6V473.219H1224.09ZM1220.59 473.59V489.703H1219.12V481.266H1216.9C1216.73 484.645 1215.3 486.754 1213.15 486.754C1210.88 486.754 1209.42 484.41 1209.42 480.719C1209.42 477.027 1210.88 474.684 1213.15 474.684C1215.26 474.684 1216.68 476.725 1216.88 479.996H1219.12V473.59H1220.59ZM1213.15 476.129C1211.74 476.129 1210.84 477.887 1210.86 480.719C1210.84 483.531 1211.74 485.309 1213.15 485.289C1214.55 485.309 1215.45 483.531 1215.45 480.719C1215.45 477.887 1214.55 476.129 1213.15 476.129ZM1232.6 477.887C1232.6 481.031 1234.61 484.195 1237.13 485.348L1236.21 486.598C1234.24 485.582 1232.61 483.502 1231.84 481.031C1231.07 483.629 1229.44 485.855 1227.46 486.91L1226.47 485.68C1229.01 484.43 1231.04 481.09 1231.04 477.887V474.723H1232.6V477.887ZM1240.88 473.219V490.621H1239.36V480.406H1235.24V479.156H1239.36V473.219H1240.88ZM1264.69 487.066V488.355H1248.79V487.066H1255.94V482.828H1250.67V474.684H1262.72V482.828H1257.45V487.066H1264.69ZM1252.17 475.914V481.598H1261.23V475.914H1252.17ZM1270.73 474.566C1273.29 474.586 1275.1 476.93 1275.12 480.621C1275.1 484.312 1273.29 486.656 1270.73 486.656C1268.15 486.656 1266.35 484.312 1266.35 480.621C1266.35 476.93 1268.15 474.586 1270.73 474.566ZM1270.73 475.934C1269.01 475.953 1267.8 477.789 1267.8 480.621C1267.8 483.453 1269.01 485.289 1270.73 485.289C1272.46 485.289 1273.64 483.453 1273.64 480.621C1273.64 477.789 1272.46 475.953 1270.73 475.934ZM1279.52 473.219V480.152H1282.43V481.48H1279.52V490.582H1277.99V473.219H1279.52ZM1299.26 487.086V488.355H1283.36V487.086H1290.51V483.336H1285.24V474.449H1286.78V477.594H1295.8V474.449H1297.31V483.336H1292.02V487.086H1299.26ZM1286.78 482.086H1295.8V478.844H1286.78V482.086ZM1309.44 474.742V476.285H1313.5V473.238H1315.04V485.914H1313.5V481.285H1309.44V482.848H1301.47V474.742H1309.44ZM1302.99 476.012V481.617H1307.93V476.012H1302.99ZM1315.43 488.922V490.211H1303.81V484.781H1305.36V488.922H1315.43ZM1309.44 480.016H1313.5V477.574H1309.44V480.016ZM995.395 503.074V504.812C995.395 507 995.395 509.48 994.75 513.25L993.188 513.094C993.891 509.539 993.891 506.941 993.891 504.812V504.344H983.422V503.074H995.395ZM997.523 514.754V516.023H981.703V514.754H997.523ZM1012.56 501.219V504.852H1015.18V506.141H1012.56V509.988H1011.04V501.219H1012.56ZM1001.37 502V507.82C1003.84 507.83 1006.39 507.654 1009.2 507.078L1009.4 508.367C1006.43 508.973 1003.83 509.148 1001.21 509.148H999.828V502H1001.37ZM1012.56 510.828V515.066H1003.05V517.098H1013.21V518.348H1001.53V513.855H1011.04V512.059H1001.49V510.828H1012.56ZM1021.96 502.488C1024.69 502.488 1026.62 504.148 1026.62 506.57C1026.62 508.992 1024.69 510.652 1021.96 510.652C1019.22 510.652 1017.25 508.992 1017.27 506.57C1017.25 504.148 1019.22 502.488 1021.96 502.488ZM1021.96 503.836C1020.1 503.836 1018.75 504.949 1018.77 506.57C1018.75 508.191 1020.1 509.305 1021.96 509.305C1023.79 509.305 1025.12 508.191 1025.12 506.57C1025.12 504.949 1023.79 503.836 1021.96 503.836ZM1030.51 501.219V518.621H1028.99V501.219H1030.51ZM1016.37 513.484C1019.57 513.484 1023.99 513.465 1027.84 512.898L1027.95 514.031C1023.99 514.773 1019.71 514.793 1016.59 514.793L1016.37 513.484ZM1052.93 501.219V518.582H1051.39V501.219H1052.93ZM1047.8 503.113C1047.78 508.113 1045.45 512.527 1039.63 515.32L1038.79 514.07C1043.49 511.844 1045.88 508.514 1046.23 504.363H1039.59V503.113H1047.8ZM1070.26 512.449V518.621H1068.71V513.68H1058.58V512.449H1070.26ZM1070.26 501.219V511.453H1068.71V507H1065.1C1064.77 509.109 1062.97 510.535 1060.65 510.516C1058.05 510.535 1056.14 508.816 1056.14 506.355C1056.14 503.934 1058.05 502.215 1060.65 502.215C1062.97 502.215 1064.77 503.631 1065.1 505.711H1068.71V501.219H1070.26ZM1060.65 503.523C1058.91 503.523 1057.6 504.715 1057.6 506.355C1057.6 508.055 1058.91 509.227 1060.65 509.227C1062.35 509.227 1063.66 508.055 1063.66 506.355C1063.66 504.715 1062.35 503.523 1060.65 503.523ZM1087.46 501.219V518.621H1085.92V501.219H1087.46ZM1078.23 502.566C1080.8 502.586 1082.66 504.93 1082.66 508.621C1082.66 512.312 1080.8 514.656 1078.23 514.656C1075.63 514.656 1073.79 512.312 1073.79 508.621C1073.79 504.93 1075.63 502.586 1078.23 502.566ZM1078.23 503.934C1076.49 503.953 1075.28 505.789 1075.28 508.621C1075.28 511.453 1076.49 513.289 1078.23 513.289C1079.96 513.289 1081.18 511.453 1081.18 508.621C1081.18 505.789 1079.96 503.953 1078.23 503.934ZM1104.3 502.879V504.168H1097.88V513.016C1101 513.016 1103.07 512.908 1105.47 512.449L1105.67 513.719C1103.11 514.207 1101 514.324 1097.66 514.324H1096.33V502.879H1104.3ZM1109.87 501.219V518.621H1108.32V508.816H1103.27V507.547H1108.32V501.219H1109.87ZM1125.67 502.352C1129.36 502.371 1132.02 504.168 1132.02 506.902C1132.02 509.49 1129.71 511.209 1126.41 511.414V515.066H1133.66V516.355H1117.76V515.066H1124.91V511.414C1121.62 511.199 1119.32 509.48 1119.32 506.902C1119.32 504.168 1121.98 502.371 1125.67 502.352ZM1125.67 503.621C1122.86 503.621 1120.8 504.949 1120.8 506.902C1120.8 508.914 1122.86 510.203 1125.67 510.223C1128.48 510.203 1130.53 508.914 1130.53 506.902C1130.53 504.949 1128.48 503.621 1125.67 503.621ZM1142.13 503.113V509.188H1137.11V513.133C1139.11 513.123 1140.99 513.035 1143.25 512.664L1143.38 513.914C1140.92 514.344 1138.95 514.422 1136.76 514.422H1135.63V507.918H1140.65V504.402H1135.59V503.113H1142.13ZM1149.89 501.219V518.582H1148.42V509.363H1145.86V517.684H1144.46V501.609H1145.86V508.094H1148.42V501.219H1149.89ZM1170.92 501.238V505.223H1173.56V506.512H1170.92V511.043H1169.4V501.238H1170.92ZM1170.92 512V518.348H1159.93V512H1170.92ZM1161.43 513.211V517.098H1169.44V513.211H1161.43ZM1159.73 502.117V508.426C1162.2 508.416 1164.75 508.221 1167.56 507.645L1167.76 508.934C1164.81 509.52 1162.19 509.715 1159.57 509.715H1158.19V502.117H1159.73ZM1182.54 501.531C1186.41 501.531 1188.68 502.586 1188.68 504.52C1188.68 506.492 1186.41 507.547 1182.54 507.566C1178.68 507.547 1176.39 506.492 1176.39 504.52C1176.39 502.586 1178.68 501.531 1182.54 501.531ZM1182.54 502.684C1179.65 502.684 1177.97 503.387 1177.99 504.52C1177.97 505.73 1179.65 506.395 1182.54 506.395C1185.41 506.395 1187.11 505.73 1187.11 504.52C1187.11 503.387 1185.41 502.684 1182.54 502.684ZM1190.45 508.738V509.988H1174.63V508.738H1190.45ZM1188.42 511.492V515.379H1178.11V517.176H1188.95V518.387H1176.59V514.246H1186.92V512.664H1176.55V511.492H1188.42ZM1211.33 501.238V512.996H1209.79V507.41H1205.98V506.121H1209.79V501.238H1211.33ZM1205.9 502.605C1205.88 507.059 1202.91 510.262 1197.91 511.863L1197.23 510.633C1201.38 509.354 1203.94 506.941 1204.26 503.855H1198.09V502.605H1205.9ZM1206.45 512.273C1206.45 514.812 1209.22 516.707 1212.29 517.254L1211.64 518.484C1209.09 517.986 1206.73 516.648 1205.71 514.617C1204.64 516.658 1202.26 518.016 1199.67 518.523L1199.05 517.312C1202.11 516.785 1204.93 514.832 1204.95 512.273V511.473H1206.45V512.273ZM1232.82 501.219V505.281H1235.43V506.551H1232.82V510.516H1231.29V501.219H1232.82ZM1228.15 502.449C1228.13 506.785 1225.06 509.676 1219.95 510.848L1219.3 509.598C1223.72 508.631 1226.2 506.434 1226.45 503.699H1220.04V502.449H1228.15ZM1232.89 511.297V512.469H1223.36V514.188H1232.7V515.359H1223.36V517.156H1233.3V518.348H1221.82V511.297H1232.89ZM1241.18 502.566C1243.73 502.586 1245.55 504.93 1245.57 508.621C1245.55 512.312 1243.73 514.656 1241.18 514.656C1238.6 514.656 1236.8 512.312 1236.8 508.621C1236.8 504.93 1238.6 502.586 1241.18 502.566ZM1241.18 503.934C1239.46 503.953 1238.25 505.789 1238.25 508.621C1238.25 511.453 1239.46 513.289 1241.18 513.289C1242.91 513.289 1244.09 511.453 1244.09 508.621C1244.09 505.789 1242.91 503.953 1241.18 503.934ZM1249.96 501.219V508.152H1252.88V509.48H1249.96V518.582H1248.44V501.219H1249.96ZM1269.71 515.066V516.355H1253.81V515.066H1257.76V510.379C1256.27 509.607 1255.38 508.357 1255.38 506.785C1255.38 504.09 1258.01 502.332 1261.72 502.312C1265.43 502.332 1268.07 504.09 1268.07 506.785C1268.07 508.328 1267.2 509.568 1265.77 510.34V515.066H1269.71ZM1261.72 503.582C1258.87 503.562 1256.86 504.852 1256.86 506.785C1256.86 508.719 1258.87 510.027 1261.72 510.027C1264.55 510.027 1266.59 508.719 1266.59 506.785C1266.59 504.852 1264.55 503.562 1261.72 503.582ZM1259.26 515.066H1264.22V510.926C1263.47 511.131 1262.63 511.238 1261.72 511.238C1260.83 511.238 1260 511.141 1259.26 510.945V515.066ZM1272.93 517.117C1272.25 517.117 1271.66 516.551 1271.68 515.848C1271.66 515.164 1272.25 514.598 1272.93 514.598C1273.62 514.598 1274.18 515.164 1274.18 515.848C1274.18 516.551 1273.62 517.117 1272.93 517.117Z" fill="white"/>
</g>
<path d="M458.951 0.74707H925.049C931.237 0.747074 936.253 5.76325 936.253 11.9512V94.0488C936.253 100.237 931.237 105.253 925.049 105.253H447.747V11.9512C447.747 5.76327 452.763 0.747098 458.951 0.74707Z" fill="#252627"/>
<path d="M458.951 0.74707H925.049C931.237 0.747074 936.253 5.76325 936.253 11.9512V94.0488C936.253 100.237 931.237 105.253 925.049 105.253H447.747V11.9512C447.747 5.76327 452.763 0.747098 458.951 0.74707Z" stroke="#535454" stroke-width="1.4939"/>
<path d="M486.605 31.2109V32.4805H472.523V31.2109H478.852V29.1211H480.355V31.2109H486.605ZM487.602 40.4688V41.7383H480.355V46.6211H478.852V41.7383H471.703V40.4688H487.602ZM479.613 33.4766C483.148 33.4766 485.277 34.5117 485.277 36.3867C485.277 38.2227 483.148 39.2578 479.613 39.2773C476.059 39.2578 473.93 38.2227 473.949 36.3867C473.93 34.5117 476.059 33.4766 479.613 33.4766ZM479.613 34.6484C477.016 34.6484 475.512 35.293 475.531 36.3867C475.512 37.4609 477.016 38.0859 479.613 38.0859C482.172 38.0859 483.676 37.4609 483.695 36.3867C483.676 35.293 482.172 34.6484 479.613 34.6484ZM503.344 29.2188V46.582H501.801V29.2188H503.344ZM498.207 31.1133C498.188 36.1133 495.863 40.5273 490.043 43.3203L489.203 42.0703C493.9 39.8438 496.293 36.5137 496.645 32.3633H490.004V31.1133H498.207ZM522.152 37.2852V38.4961H506.254V37.2852H522.152ZM520.16 39.8828V43.5742H509.73V45.2344H520.727V46.3477H508.188V42.5195H518.637V41.0352H508.168V39.8828H520.16ZM520.102 29.7461V33.3398H509.848V34.8633H520.414V35.9766H508.324V32.2852H518.559V30.8594H508.266V29.7461H520.102ZM542.152 29.2383V33.2227H544.789V34.5117H542.152V39.043H540.629V29.2383H542.152ZM542.152 40V46.3477H531.156V40H542.152ZM532.66 41.2109V45.0977H540.668V41.2109H532.66ZM530.961 30.1172V36.4258C533.432 36.416 535.98 36.2207 538.793 35.6445L538.988 36.9336C536.039 37.5195 533.422 37.7148 530.805 37.7148H529.418V30.1172H530.961ZM560.219 29.2188V46.582H558.676V29.2188H560.219ZM555.082 31.1133C555.062 36.1133 552.738 40.5273 546.918 43.3203L546.078 42.0703C550.775 39.8438 553.168 36.5137 553.52 32.3633H546.879V31.1133H555.082ZM577.074 30.9766V32.7148C577.055 34.8438 577.055 37.2266 576.43 40.7227L574.867 40.5469C575.531 37.2266 575.531 34.7852 575.531 32.7148V32.2461H564.828V30.9766H577.074ZM578.969 42.8516V44.1211H563.148V42.8516H569.359V36.6406H570.863V42.8516H578.969ZM599.789 29.2383V38.8867H598.266V29.2383H599.789ZM591.605 31.582C591.586 33.9844 593.461 36.1523 596.039 36.9922L595.297 38.2031C593.246 37.5098 591.625 36.0645 590.844 34.1797C590.062 36.2012 588.422 37.7832 586.352 38.5156L585.57 37.3047C588.188 36.3867 590.043 34.1016 590.043 31.582V29.8828H591.605V31.582ZM599.906 39.9219V41.1719H597.504V45.0977H600.082V46.3477H588.07V45.0977H590.668V41.1719H588.227V39.9219H599.906ZM592.172 45.0977H595.98V41.1719H592.172V45.0977ZM617.055 29.2383V41.8555H615.512V29.2383H617.055ZM612.016 30.5469C611.996 35.0391 608.754 38.3789 603.656 39.9609L603.031 38.7109C607.24 37.4316 609.984 34.9414 610.316 31.8359H603.949V30.5469H612.016ZM617.523 44.9219V46.2109H605.746V40.8203H607.289V44.9219H617.523ZM638.617 29.2383V34.9609H641.234V36.25H638.617V42.2461H637.094V29.2383H638.617ZM635.434 31.3672V32.6172H625.082V31.3672H629.496V29.2383H631.02V31.3672H635.434ZM630.258 33.5742C632.738 33.5742 634.418 34.8438 634.438 36.8164C634.418 38.7695 632.738 40.0195 630.258 40.0195C627.758 40.0195 626.059 38.7695 626.078 36.8164C626.059 34.8438 627.758 33.5742 630.258 33.5742ZM630.258 34.7852C628.617 34.7852 627.523 35.5859 627.543 36.8164C627.523 38.0469 628.617 38.8281 630.258 38.8086C631.879 38.8281 632.973 38.0469 632.992 36.8164C632.973 35.5859 631.879 34.7852 630.258 34.7852ZM639.418 44.9219V46.2109H627.758V41.2109H629.262V44.9219H639.418ZM657.191 29.2188V46.582H655.707V29.2188H657.191ZM653.637 29.6484V45.6836H652.172V37.1484H648.383V35.8594H652.172V29.6484H653.637ZM649.555 31.3672V32.6367H644.496V41.1133C646.996 41.1035 648.578 40.9961 650.453 40.5859L650.609 41.8945C648.598 42.3047 646.898 42.3828 644.105 42.4023H643.012V31.3672H649.555ZM480.473 58.5273V66.2031H472.445V58.5273H480.473ZM473.949 59.7578V64.9531H478.988V59.7578H473.949ZM485.277 57.2188V61.75H487.895V63.0391H485.277V67.5117H483.754V57.2188H485.277ZM485.277 68.4492V74.6211H483.754V69.6797H473.91V68.4492H485.277ZM494.789 60.0312C494.789 62.3945 496.586 64.5625 499.105 65.4219L498.266 66.6328C496.342 65.9297 494.828 64.4941 494.066 62.6875C493.324 64.7285 491.781 66.3398 489.75 67.1211L488.93 65.8906C491.527 64.9141 493.266 62.5898 493.285 59.9141V58.1172H494.789V60.0312ZM502.562 57.2188V61.75H505.18V63.0391H502.562V67.7852H501.039V57.2188H502.562ZM496.996 68.2344C500.57 68.2344 502.719 69.3867 502.719 71.3789C502.719 73.4102 500.57 74.543 496.996 74.543C493.422 74.543 491.234 73.4102 491.234 71.3789C491.234 69.3867 493.422 68.2344 496.996 68.2344ZM496.996 69.4648C494.379 69.4648 492.758 70.1875 492.777 71.3789C492.758 72.6094 494.379 73.3125 496.996 73.332C499.633 73.3125 501.234 72.6094 501.234 71.3789C501.234 70.1875 499.633 69.4648 496.996 69.4648ZM516.527 60.8516C516.527 62.4922 517.416 64.6211 519.223 65.832C520.98 64.6602 521.879 62.5703 521.879 60.8516V58.625H523.422V60.8516C523.402 62.9805 524.672 65.1875 526.957 66.1445L526.098 67.3164C524.398 66.5547 523.227 65.1289 522.641 63.4492C522.074 65.1387 520.951 66.7012 519.203 67.5117C517.436 66.6914 516.293 65.0605 515.746 63.3516C515.131 65.0215 513.949 66.5352 512.289 67.3164L511.469 66.1445C513.676 65.1289 514.984 62.7852 515.004 60.8516V58.625H516.527V60.8516ZM527.172 70.9688V72.2383H511.293V70.9688H527.172ZM542.953 57.2188V74.6211H541.43V67.2188H537.816V65.9297H541.43V62.4727H537.953V61.1836H541.43V57.2188H542.953ZM536.82 58.8008V64.9727H530.766V69.25C533.373 69.2402 535.531 69.1426 538.168 68.7422L538.305 70.0312C535.531 70.4609 533.305 70.5586 530.531 70.5586H529.242V63.7227H535.316V60.0703H529.184V58.8008H536.82ZM559.789 58.9766V60.7148C559.77 62.8438 559.77 65.2266 559.145 68.7227L557.582 68.5469C558.246 65.2266 558.246 62.7852 558.246 60.7148V60.2461H547.543V58.9766H559.789ZM561.684 70.8516V72.1211H545.863V70.8516H552.074V64.6406H553.578V70.8516H561.684ZM581.605 57.2188V64.3867H584.516V65.6562H581.605V74.582H580.082V57.2188H581.605ZM578.402 60.0117V61.2812H568.07V60.0117H572.543V57.4336H574.066V60.0117H578.402ZM573.324 62.7266C575.785 62.7266 577.562 64.3672 577.582 66.7109C577.562 69.0547 575.785 70.6953 573.324 70.6953C570.844 70.6953 569.047 69.0547 569.066 66.7109C569.047 64.3672 570.844 62.7266 573.324 62.7266ZM573.324 64.0156C571.703 64.0156 570.512 65.1484 570.531 66.7109C570.512 68.293 571.703 69.4062 573.324 69.3867C574.926 69.4062 576.098 68.293 576.117 66.7109C576.098 65.1484 574.926 64.0156 573.324 64.0156ZM594.242 58.7422V60.2852H598.305V57.2383H599.848V69.9141H598.305V65.2852H594.242V66.8477H586.273V58.7422H594.242ZM587.797 60.0117V65.6172H592.738V60.0117H587.797ZM600.238 72.9219V74.2109H588.617V68.7812H590.16V72.9219H600.238ZM594.242 64.0156H598.305V61.5742H594.242V64.0156ZM622.074 57.2383V67.4727H620.531V66.4961H617.016V65.4609H620.531V57.2383H622.074ZM607.699 63.7812C611.059 63.8008 615.355 63.7617 619.105 63.3516L619.203 64.3477C617.504 64.5918 615.736 64.7383 614.008 64.8164V67.4922H612.504V64.875C610.863 64.9336 609.291 64.9434 607.875 64.9336L607.699 63.7812ZM622.074 68.0977V71.7109H611.938V73.2539H622.641V74.3867H610.434V70.6562H620.551V69.2109H610.355V68.0977H622.074ZM617.465 57.7656V62.4141H609.34V57.7656H617.465ZM610.883 58.8789V61.2812H615.961V58.8789H610.883ZM644.711 57.2188V74.582H643.168V64.875H640.082V63.5273H643.168V57.2188H644.711ZM633.988 62.7461C633.969 64.4844 634.311 67.0527 635.727 68.7812C637.104 67.1016 637.406 64.582 637.406 62.7461V58.7812H638.891V62.7461C638.871 65.0117 639.457 68 641.625 69.5234L640.648 70.6367C639.33 69.6895 638.568 68.1465 638.168 66.457C637.768 68.1855 637.035 69.8066 635.707 70.7734C634.369 69.7969 633.627 68.1562 633.246 66.457C632.826 68.1172 632.084 69.6504 630.844 70.5977L629.809 69.5234C631.918 67.9609 632.523 64.9336 632.543 62.7461V58.7812H633.988V62.7461ZM651.996 58.5664C654.555 58.5859 656.371 60.9297 656.391 64.6211C656.371 68.3125 654.555 70.6562 651.996 70.6562C649.418 70.6562 647.621 68.3125 647.621 64.6211C647.621 60.9297 649.418 58.5859 651.996 58.5664ZM651.996 59.9336C650.277 59.9531 649.066 61.7891 649.066 64.6211C649.066 67.4531 650.277 69.2891 651.996 69.2891C653.734 69.2891 654.906 67.4531 654.906 64.6211C654.906 61.7891 653.734 59.9531 651.996 59.9336ZM663.598 61.5938V62.9023H660.785V66.7695H663.598V68.0586H660.785V74.582H659.262V57.2188H660.785V61.5938H663.598ZM683.227 57.1602V61.3789H685.863V62.6484H683.227V66.7695H681.703V57.1602H683.227ZM683.227 67.668V71.5156H673.695V73.2148H683.871V74.3867H672.191V70.3828H681.703V68.8203H672.152V67.668H683.227ZM680.043 58.8008V60.0312H669.691V58.8008H674.105V57.043H675.629V58.8008H680.043ZM674.867 60.8125C677.387 60.8125 679.027 61.9062 679.047 63.6641C679.027 65.4219 677.387 66.5156 674.867 66.5156C672.328 66.5156 670.668 65.4219 670.688 63.6641C670.668 61.9062 672.328 60.8125 674.867 60.8125ZM674.867 61.9453C673.227 61.9453 672.133 62.6289 672.152 63.6641C672.133 64.7188 673.227 65.3633 674.867 65.3633C676.508 65.3633 677.582 64.7188 677.602 63.6641C677.582 62.6289 676.508 61.9453 674.867 61.9453ZM693.148 62.5508C693.148 65.5 695.297 68.4883 697.855 69.6016L696.996 70.8125C694.965 69.8848 693.207 67.8828 692.406 65.4805C691.586 68.0293 689.838 70.2461 687.855 71.2422L686.938 70.0312C689.418 68.8398 691.586 65.5586 691.605 62.5508V60.2852H687.504V59.0156H697.289V60.2852H693.148V62.5508ZM701.254 57.2188V74.582H699.711V57.2188H701.254ZM725.141 71.0664V72.3555H709.242V71.0664H716.391V66.8281H711.117V58.6836H723.168V66.8281H717.895V71.0664H725.141ZM712.621 59.9141V65.5977H721.684V59.9141H712.621ZM742.426 71.1055V72.3945H726.527V71.1055H742.426ZM740.414 58.5469V63.8008H730.043V66.6523H740.824V67.8828H728.52V62.5508H738.91V59.8164H728.48V58.5469H740.414ZM751.508 58.5078C751.508 59.8457 751.264 61.0664 750.785 62.1797H753.598V57.6094H755.062V67.0039H753.598V63.4492H750.102C748.979 65.1875 747.182 66.584 744.789 67.6094L743.988 66.4766C747.543 65.0215 749.613 62.7266 749.926 59.7773H744.73V58.5078H751.508ZM758.559 57.2383V67.2773H757.094V57.2383H758.559ZM749.867 69.0352C749.848 70.5977 750.678 72.209 752.328 73.1562C753.988 72.1211 754.828 70.3633 754.848 69.0352V67.8633H756.332V69.0352C756.332 70.832 757.66 72.6484 759.887 73.3906L759.125 74.5234C757.387 73.9082 756.166 72.6875 755.57 71.2031C755.033 72.6289 753.988 73.9863 752.367 74.6797C750.668 74.0059 749.613 72.7168 749.105 71.2422C748.48 72.668 747.279 73.8984 745.629 74.5234L744.848 73.3906C747.035 72.5898 748.402 70.7148 748.402 69.0352V67.8633H749.867V69.0352ZM765.766 58.5664C768.129 58.5859 769.828 60.6074 770.082 63.8594H773.969V57.2188H775.492V74.6211H773.969V65.1289H770.102C769.916 68.5273 768.188 70.6562 765.766 70.6562C763.207 70.6562 761.41 68.3125 761.41 64.6211C761.41 60.9297 763.207 58.5859 765.766 58.5664ZM765.766 59.9336C764.047 59.9531 762.875 61.7891 762.875 64.6211C762.875 67.4531 764.047 69.2891 765.766 69.2891C767.465 69.2891 768.656 67.4531 768.656 64.6211C768.656 61.7891 767.465 59.9531 765.766 59.9336ZM794.281 71.0664V72.3555H778.383V71.0664H782.328V66.3789C780.844 65.6074 779.945 64.3574 779.945 62.7852C779.945 60.0898 782.582 58.332 786.293 58.3125C790.004 58.332 792.641 60.0898 792.641 62.7852C792.641 64.3281 791.771 65.5684 790.336 66.3398V71.0664H794.281ZM786.293 59.582C783.441 59.5625 781.43 60.8516 781.43 62.7852C781.43 64.7188 783.441 66.0273 786.293 66.0273C789.125 66.0273 791.156 64.7188 791.156 62.7852C791.156 60.8516 789.125 59.5625 786.293 59.582ZM783.832 71.0664H788.793V66.9258C788.041 67.1309 787.201 67.2383 786.293 67.2383C785.404 67.2383 784.574 67.1406 783.832 66.9453V71.0664ZM797.504 73.1172C796.82 73.1172 796.234 72.5508 796.254 71.8477C796.234 71.1641 796.82 70.5977 797.504 70.5977C798.188 70.5977 798.754 71.1641 798.754 71.8477C798.754 72.5508 798.188 73.1172 797.504 73.1172Z" fill="white"/>
<path d="M580.951 222.747H1047.05C1053.24 222.747 1058.25 227.763 1058.25 233.951V316.049C1058.25 322.237 1053.24 327.253 1047.05 327.253H569.747V233.951C569.747 227.763 574.763 222.747 580.951 222.747Z" fill="#252627"/>
<path d="M580.951 222.747H1047.05C1053.24 222.747 1058.25 227.763 1058.25 233.951V316.049C1058.25 322.237 1053.24 327.253 1047.05 327.253H569.747V233.951C569.747 227.763 574.763 222.747 580.951 222.747Z" stroke="#535454" stroke-width="1.4939"/>
<path d="M608.039 251.238V264.07H606.516V251.238H608.039ZM608.586 266.922V268.211H596.828V262.879H598.352V266.922H608.586ZM600.012 255.281C600.012 257.586 601.867 259.617 604.465 260.418L603.703 261.648C601.662 260.994 600.051 259.607 599.27 257.801C598.508 259.744 596.906 261.248 594.836 261.961L594.055 260.75C596.652 259.91 598.488 257.723 598.488 255.281V254.812H594.484V253.582H598.488V251.316H600.031V253.582H603.996V254.812H600.012V255.281ZM624.719 252.352V253.875C624.719 255.525 624.719 257.312 624.23 259.812H626.809V261.082H619.641V268.621H618.098V261.082H610.988V259.812H622.668C623.195 257.312 623.195 255.486 623.195 253.875V253.621H612.98V252.352H624.719ZM644.113 258.523V259.754H628.273V258.523H644.113ZM642.219 255.848V257.098H630.383V251.824H642.043V253.055H631.926V255.848H642.219ZM642.062 261.316V265.34H631.75V267.137H642.59V268.387H630.227V264.188H640.559V262.508H630.188V261.316H642.062ZM659.875 251.219V268.621H658.332V251.219H659.875ZM650.637 252.566C653.215 252.586 655.07 254.93 655.07 258.621C655.07 262.312 653.215 264.656 650.637 264.656C648.039 264.656 646.203 262.312 646.203 258.621C646.203 254.93 648.039 252.586 650.637 252.566ZM650.637 253.934C648.898 253.953 647.688 255.789 647.688 258.621C647.688 261.453 648.898 263.289 650.637 263.289C652.375 263.289 653.586 261.453 653.586 258.621C653.586 255.789 652.375 253.953 650.637 253.934ZM676.418 251.238V255.594H679.055V256.883H676.418V261.727H674.895V251.238H676.418ZM671.457 252.312V257H665.129V259.422C668.215 259.422 670.451 259.314 673.156 258.855L673.312 260.145C670.52 260.613 668.195 260.711 664.973 260.711H663.625V255.789H669.953V253.582H663.586V252.312H671.457ZM670.852 262.254C674.387 262.254 676.574 263.426 676.574 265.418C676.574 267.41 674.387 268.543 670.852 268.543C667.258 268.543 665.09 267.41 665.09 265.418C665.09 263.426 667.258 262.254 670.852 262.254ZM670.852 263.465C668.195 263.465 666.574 264.188 666.594 265.418C666.574 266.629 668.195 267.352 670.852 267.352C673.488 267.352 675.09 266.629 675.09 265.418C675.09 264.188 673.488 263.465 670.852 263.465ZM698.723 251.219V255.477H701.34V256.746H698.723V261.082H697.199V251.219H698.723ZM693.977 252.352C693.957 256.727 690.891 259.852 685.754 261.258L685.129 260.027C689.406 258.875 692.014 256.561 692.336 253.621H685.91V252.352H693.977ZM698.723 261.883V268.348H687.727V261.883H698.723ZM689.25 263.152V267.098H697.199V263.152H689.25ZM708.234 254.031C708.234 256.395 710.031 258.562 712.551 259.422L711.711 260.633C709.787 259.93 708.273 258.494 707.512 256.688C706.77 258.729 705.227 260.34 703.195 261.121L702.375 259.891C704.973 258.914 706.711 256.59 706.73 253.914V252.117H708.234V254.031ZM716.008 251.219V255.75H718.625V257.039H716.008V261.785H714.484V251.219H716.008ZM710.441 262.234C714.016 262.234 716.164 263.387 716.164 265.379C716.164 267.41 714.016 268.543 710.441 268.543C706.867 268.543 704.68 267.41 704.68 265.379C704.68 263.387 706.867 262.234 710.441 262.234ZM710.441 263.465C707.824 263.465 706.203 264.188 706.223 265.379C706.203 266.609 707.824 267.312 710.441 267.332C713.078 267.312 714.68 266.609 714.68 265.379C714.68 264.188 713.078 263.465 710.441 263.465ZM728.684 252.684C730.949 252.684 732.414 255.027 732.434 258.719C732.414 262.41 730.949 264.754 728.684 264.754C726.418 264.754 724.953 262.41 724.953 258.719C724.953 255.027 726.418 252.684 728.684 252.684ZM728.684 254.129C727.277 254.129 726.379 255.887 726.398 258.719C726.379 261.531 727.277 263.309 728.684 263.289C730.09 263.309 730.988 261.531 730.988 258.719C730.988 255.887 730.09 254.129 728.684 254.129ZM739.621 251.219V268.582H738.137V262.02H735.715V267.703H734.25V251.59H735.715V255.613H738.137V251.219H739.621ZM735.715 260.73H738.137V256.902H735.715V260.73ZM756.379 251.219V268.582H754.836V251.219H756.379ZM751.242 253.113C751.223 258.113 748.898 262.527 743.078 265.32L742.238 264.07C746.936 261.844 749.328 258.514 749.68 254.363H743.039V253.113H751.242ZM775.188 259.285V260.496H759.289V259.285H775.188ZM773.195 261.883V265.574H762.766V267.234H773.762V268.348H761.223V264.52H771.672V263.035H761.203V261.883H773.195ZM773.137 251.746V255.34H762.883V256.863H773.449V257.977H761.359V254.285H771.594V252.859H761.301V251.746H773.137ZM786.398 252.234C788.723 252.215 790.49 253.602 790.832 255.633H794.465V251.219H796.008V261.199H794.465V256.902H790.852C790.559 259.021 788.762 260.418 786.398 260.418C783.781 260.418 781.887 258.758 781.887 256.316C781.887 253.914 783.781 252.215 786.398 252.234ZM786.398 253.523C784.621 253.523 783.352 254.676 783.352 256.316C783.352 257.977 784.621 259.109 786.398 259.129C788.117 259.109 789.406 257.977 789.406 256.316C789.406 254.676 788.117 253.523 786.398 253.523ZM796.008 262.098V268.348H784.66V262.098H796.008ZM786.184 263.348V267.098H794.504V263.348H786.184ZM804.816 254.949C804.816 257.117 806.691 259.051 809.25 259.812L808.508 261.004C806.496 260.408 804.885 259.09 804.113 257.371C803.352 259.275 801.77 260.77 799.699 261.453L798.957 260.281C801.516 259.422 803.312 257.312 803.312 254.949V254.578H799.387V253.348H803.312V251.141H804.855V253.348H808.742V254.578H804.816V254.949ZM813.293 251.219V261.746H811.75V257.469H808.195V256.199H811.75V251.219H813.293ZM807.531 262.215C811.145 262.215 813.352 263.348 813.352 265.379C813.352 267.391 811.145 268.543 807.531 268.543C803.918 268.543 801.711 267.391 801.711 265.379C801.711 263.348 803.918 262.215 807.531 262.215ZM807.531 263.406C804.875 263.426 803.215 264.148 803.234 265.379C803.215 266.59 804.875 267.332 807.531 267.332C810.207 267.332 811.828 266.59 811.828 265.379C811.828 264.148 810.207 263.426 807.531 263.406ZM837.453 258.152V259.441H834.641V268.582H833.117V251.219H834.641V258.152H837.453ZM823.449 252.938V262.879C825.988 262.869 828.576 262.674 831.438 262.078L831.633 263.387C828.645 263.992 825.949 264.168 823.312 264.168H821.926V252.938H823.449ZM852.512 257.078V258.348H840.539V252.117H842.062V257.078H852.512ZM854.387 260.965V262.254H847.121V268.582H845.598V262.254H838.488V260.965H854.387ZM869.816 256.492V257.723H857.922V251.863H859.445V256.492H869.816ZM871.652 260.086V261.336H855.754V260.086H871.652ZM869.914 266.883V268.152H857.824V263.113H859.348V266.883H869.914ZM887.922 251.219V268.582H886.438V251.219H887.922ZM884.367 251.648V267.684H882.902V259.148H879.113V257.859H882.902V251.648H884.367ZM880.285 253.367V254.637H875.227V263.113C877.727 263.104 879.309 262.996 881.184 262.586L881.34 263.895C879.328 264.305 877.629 264.383 874.836 264.402H873.742V253.367H880.285ZM607.277 279.219V284.395H609.914V285.684H607.277V291.797H605.754V279.219H607.277ZM602.258 280.723V282.012H596.047V287.422C599.533 287.422 601.516 287.334 603.84 286.855L604.035 288.125C601.594 288.594 599.523 288.711 595.871 288.711H594.523V280.723H602.258ZM608.078 294.922V296.211H596.418V290.527H597.922V294.922H608.078ZM626.809 288.594V289.844H610.969V288.594H618.117V286.738H613.078V279.688H624.836V280.918H614.621V282.578H624.367V283.77H614.621V285.547H624.934V286.738H619.641V288.594H626.809ZM624.758 291.387V296.582H623.195V292.637H612.746V291.387H624.758ZM636.281 290.137C639.855 290.137 642.004 291.309 642.004 293.34C642.004 295.391 639.855 296.562 636.281 296.582C632.707 296.562 630.52 295.391 630.52 293.34C630.52 291.309 632.707 290.137 636.281 290.137ZM636.281 291.348C633.664 291.367 632.043 292.09 632.062 293.34C632.043 294.59 633.664 295.332 636.281 295.332C638.918 295.332 640.52 294.59 640.52 293.34C640.52 292.09 638.918 291.367 636.281 291.348ZM641.848 279.219V283.594H644.465V284.902H641.848V289.668H640.324V279.219H641.848ZM630.52 280.312V282.969H635.578V280.312H637.102V288.32H629.016V280.312H630.52ZM630.52 287.07H635.578V284.18H630.52V287.07ZM660.441 279.219V296.582H658.957V279.219H660.441ZM656.945 279.59V295.703H655.48V287.266H653.254C653.088 290.645 651.652 292.754 649.504 292.754C647.238 292.754 645.773 290.41 645.773 286.719C645.773 283.027 647.238 280.684 649.504 280.684C651.613 280.684 653.039 282.725 653.234 285.996H655.48V279.59H656.945ZM649.504 282.129C648.098 282.129 647.199 283.887 647.219 286.719C647.199 289.531 648.098 291.309 649.504 291.289C650.91 291.309 651.809 289.531 651.809 286.719C651.809 283.887 650.91 282.129 649.504 282.129ZM681.965 295.117V296.348H669.797V290.723H675.012V288.652H667.863V287.383H683.684V288.652H676.516V290.723H681.789V291.992H671.34V295.117H681.965ZM681.672 279.902V285.684H669.914V279.902H681.672ZM671.418 281.152V284.453H680.148V281.152H671.418ZM695.422 282.012V283.281H685.148V282.012H689.543V279.414H691.105V282.012H695.422ZM690.324 284.727C692.668 284.727 694.367 286.367 694.387 288.711C694.367 291.055 692.668 292.695 690.324 292.695C687.961 292.695 686.262 291.055 686.281 288.711C686.262 286.367 687.961 284.727 690.324 284.727ZM690.324 286.035C688.781 286.055 687.648 287.168 687.668 288.711C687.648 290.273 688.781 291.387 690.324 291.367C691.867 291.387 693 290.273 693 288.711C693 287.168 691.867 286.055 690.324 286.035ZM699.543 279.219V296.582H698.02V290.586H695.09V289.316H698.02V286.27H695.09V285H698.02V279.219H699.543ZM708.547 283.887C708.547 287.031 710.559 290.195 713.078 291.348L712.16 292.598C710.188 291.582 708.557 289.502 707.785 287.031C707.014 289.629 705.383 291.855 703.41 292.91L702.414 291.68C704.953 290.43 706.984 287.09 706.984 283.887V280.723H708.547V283.887ZM716.828 279.219V296.621H715.305V286.406H711.184V285.156H715.305V279.219H716.828ZM740.988 286.152V287.441H738.176V296.582H736.652V279.219H738.176V286.152H740.988ZM726.984 280.938V290.879C729.523 290.869 732.111 290.674 734.973 290.078L735.168 291.387C732.18 291.992 729.484 292.168 726.848 292.168H725.461V280.938H726.984ZM757.844 287.344V288.613H750.676V290.469C753.957 290.605 755.891 291.68 755.91 293.516C755.891 295.449 753.664 296.543 749.934 296.543C746.164 296.543 743.938 295.449 743.938 293.516C743.938 291.68 745.861 290.605 749.172 290.469V288.613H742.023V287.344H757.844ZM749.934 291.641C747.141 291.66 745.48 292.344 745.5 293.516C745.48 294.668 747.141 295.352 749.934 295.352C752.688 295.352 754.367 294.668 754.367 293.516C754.367 292.344 752.688 291.66 749.934 291.641ZM756.438 280.039V281.289H750.93C751.027 283.242 753.898 284.756 756.965 285.078L756.398 286.289C753.557 285.947 750.891 284.678 749.934 282.734C748.986 284.678 746.33 285.947 743.469 286.289L742.922 285.078C745.93 284.756 748.82 283.242 748.938 281.289H743.469V280.039H756.438ZM774.191 279.219V296.582H772.707V279.219H774.191ZM770.695 279.59V295.703H769.23V287.266H767.004C766.838 290.645 765.402 292.754 763.254 292.754C760.988 292.754 759.523 290.41 759.523 286.719C759.523 283.027 760.988 280.684 763.254 280.684C765.363 280.684 766.789 282.725 766.984 285.996H769.23V279.59H770.695ZM763.254 282.129C761.848 282.129 760.949 283.887 760.969 286.719C760.949 289.531 761.848 291.309 763.254 291.289C764.66 291.309 765.559 289.531 765.559 286.719C765.559 283.887 764.66 282.129 763.254 282.129ZM790.637 284.492V285.723H778.742V279.863H780.266V284.492H790.637ZM792.473 288.086V289.336H776.574V288.086H792.473ZM790.734 294.883V296.152H778.645V291.113H780.168V294.883H790.734ZM812.336 279.219V286.094H815.246V287.383H812.336V296.621H810.812V279.219H812.336ZM807.766 280.918V282.188H801.184V290.977C804.328 290.977 806.555 290.83 809.133 290.352L809.328 291.68C806.613 292.168 804.328 292.266 801.027 292.266H799.66V280.918H807.766ZM822.355 283.887C822.336 287.051 824.504 290.254 827.062 291.406L826.125 292.617C824.152 291.65 822.443 289.609 821.613 287.129C820.803 289.756 819.094 291.943 817.062 292.969L816.086 291.68C818.664 290.488 820.812 287.188 820.832 283.887V280.723H822.355V283.887ZM830.5 279.219V296.621H828.957V279.219H830.5ZM844.406 282.852C844.406 284.922 846.164 286.836 848.723 287.598L848 288.77C845.998 288.174 844.436 286.885 843.684 285.215C842.922 287.051 841.311 288.447 839.25 289.121L838.488 287.91C841.066 287.129 842.902 285.137 842.902 282.852V282.52H838.977V281.25H842.902V279.141H844.445V281.25H848.332V282.52H844.406V282.852ZM852.062 279.219V283.516H854.68V284.805H852.062V289.316H850.539V279.219H852.062ZM852.375 290.254V291.504H847.453C847.707 293.32 850.256 294.883 853.039 295.332L852.473 296.523C849.924 296.104 847.619 294.844 846.633 293.105C845.637 294.834 843.352 296.064 840.832 296.504L840.246 295.332C843.049 294.883 845.568 293.35 845.832 291.504H840.93V290.254H852.375ZM870.129 279.219V296.582H868.586V279.219H870.129ZM864.992 281.113C864.973 286.113 862.648 290.527 856.828 293.32L855.988 292.07C860.686 289.844 863.078 286.514 863.43 282.363H856.789V281.113H864.992ZM886.496 279.219V286.289H889.309V287.578H886.496V296.582H884.973V279.219H886.496ZM882.004 281.094C882.004 286.016 879.699 290.488 874.035 293.281L873.176 292.07C877.668 289.834 880.109 286.494 880.461 282.383H873.977V281.094H882.004ZM909.699 279.219V289.746H908.176V279.219H909.699ZM909.699 290.684V296.348H898.41V290.684H909.699ZM899.914 291.914V295.098H908.195V291.914H899.914ZM906.262 281.094V282.344H895.617V281.094H900.168V279.082H901.711V281.094H906.262ZM900.949 283.203C903.508 283.203 905.207 284.414 905.207 286.289C905.207 288.184 903.508 289.395 900.949 289.395C898.371 289.395 896.672 288.184 896.691 286.289C896.672 284.414 898.371 283.203 900.949 283.203ZM900.949 284.375C899.25 284.375 898.137 285.137 898.156 286.289C898.137 287.48 899.25 288.203 900.949 288.223C902.629 288.203 903.742 287.48 903.742 286.289C903.742 285.137 902.629 284.375 900.949 284.375ZM928.488 286.523V287.754H912.648V286.523H928.488ZM926.594 283.848V285.098H914.758V279.824H926.418V281.055H916.301V283.848H926.594ZM926.438 289.316V293.34H916.125V295.137H926.965V296.387H914.602V292.188H924.934V290.508H914.562V289.316H926.438ZM934.602 280.566C936.965 280.586 938.664 282.607 938.918 285.859H942.805V279.219H944.328V296.621H942.805V287.129H938.938C938.752 290.527 937.023 292.656 934.602 292.656C932.043 292.656 930.246 290.312 930.246 286.621C930.246 282.93 932.043 280.586 934.602 280.566ZM934.602 281.934C932.883 281.953 931.711 283.789 931.711 286.621C931.711 289.453 932.883 291.289 934.602 291.289C936.301 291.289 937.492 289.453 937.492 286.621C937.492 283.789 936.301 281.953 934.602 281.934ZM963.117 293.066V294.355H947.219V293.066H951.164V288.379C949.68 287.607 948.781 286.357 948.781 284.785C948.781 282.09 951.418 280.332 955.129 280.312C958.84 280.332 961.477 282.09 961.477 284.785C961.477 286.328 960.607 287.568 959.172 288.34V293.066H963.117ZM955.129 281.582C952.277 281.562 950.266 282.852 950.266 284.785C950.266 286.719 952.277 288.027 955.129 288.027C957.961 288.027 959.992 286.719 959.992 284.785C959.992 282.852 957.961 281.562 955.129 281.582ZM952.668 293.066H957.629V288.926C956.877 289.131 956.037 289.238 955.129 289.238C954.24 289.238 953.41 289.141 952.668 288.945V293.066ZM966.34 295.117C965.656 295.117 965.07 294.551 965.09 293.848C965.07 293.164 965.656 292.598 966.34 292.598C967.023 292.598 967.59 293.164 967.59 293.848C967.59 294.551 967.023 295.117 966.34 295.117Z" fill="white"/>
<g opacity="0.7">
<path d="M11.9512 294.747H478.049C484.237 294.747 489.253 299.763 489.253 305.951V388.049C489.253 394.237 484.237 399.253 478.049 399.253H0.74707V305.951C0.7471 299.763 5.76327 294.747 11.9512 294.747Z" fill="#252627"/>
<path d="M11.9512 294.747H478.049C484.237 294.747 489.253 299.763 489.253 305.951V388.049C489.253 394.237 484.237 399.253 478.049 399.253H0.74707V305.951C0.7471 299.763 5.76327 294.747 11.9512 294.747Z" stroke="#535454" stroke-width="1.4939"/>
<path d="M38.2773 323.219V327.281H40.8945V328.551H38.2773V332.516H36.7539V323.219H38.2773ZM33.6094 324.449C33.5898 328.785 30.5234 331.676 25.4062 332.848L24.7617 331.598C29.1855 330.631 31.6562 328.434 31.9102 325.699H25.5039V324.449H33.6094ZM38.3555 333.297V334.469H28.8242V336.188H38.1602V337.359H28.8242V339.156H38.7656V340.348H27.2812V333.297H38.3555ZM57.8086 332.379V333.629H41.9883V332.379H57.8086ZM56.0508 338.922V340.211H44.0391V335.152H45.582V338.922H56.0508ZM49.8984 323.844C53.6289 323.824 56.0312 325.113 56.0312 327.281C56.0312 329.449 53.6289 330.738 49.8984 330.738C46.1289 330.738 43.7461 329.449 43.7461 327.281C43.7461 325.113 46.1289 323.824 49.8984 323.844ZM49.8984 325.074C47.1055 325.074 45.3086 325.914 45.3281 327.281C45.3086 328.648 47.1055 329.488 49.8984 329.488C52.6719 329.488 54.4688 328.648 54.4688 327.281C54.4688 325.914 52.6719 325.074 49.8984 325.074ZM70.1719 326.441C70.1719 328.746 71.8711 330.855 74.4492 331.754L73.668 332.945C71.6855 332.242 70.1719 330.816 69.4297 329.02C68.6875 330.992 67.0957 332.525 65.0547 333.277L64.2344 332.086C66.832 331.168 68.6484 328.922 68.668 326.441V325.699H64.7031V324.449H74.0781V325.699H70.1719V326.441ZM77.8672 323.219V327.809H80.4844V329.117H77.8672V333.688H76.3438V323.219H77.8672ZM77.8672 334.605V340.582H76.3438V335.855H66.5V334.605H77.8672ZM97.3984 331.617V332.887H90.2305V334.938H95.4648V340.348H83.5117V334.938H88.7266V332.887H81.5781V331.617H97.3984ZM95.8945 323.785V325.055H93.2188V328.707H95.8359V329.977H83.1211V328.707H85.7383V325.055H83.0625V323.785H95.8945ZM85.0352 336.148V339.098H93.9609V336.148H85.0352ZM87.2617 328.707H91.6953V325.055H87.2617V328.707ZM106.773 323.531C110.641 323.531 112.906 324.586 112.906 326.52C112.906 328.492 110.641 329.547 106.773 329.566C102.906 329.547 100.621 328.492 100.621 326.52C100.621 324.586 102.906 323.531 106.773 323.531ZM106.773 324.684C103.883 324.684 102.203 325.387 102.223 326.52C102.203 327.73 103.883 328.395 106.773 328.395C109.645 328.395 111.344 327.73 111.344 326.52C111.344 325.387 109.645 324.684 106.773 324.684ZM114.684 330.738V331.988H98.8633V330.738H114.684ZM112.652 333.492V337.379H102.34V339.176H113.18V340.387H100.816V336.246H111.148V334.664H100.777V333.492H112.652ZM123.648 324.664V327.32H129.293V324.664H130.816V332.477H127.242V335.582C128.844 335.523 130.455 335.406 131.949 335.211L132.047 336.363C128.375 336.949 124.254 337.008 121.207 337.027L120.953 335.719C122.369 335.709 124 335.699 125.699 335.641V332.477H122.125V324.664H123.648ZM123.648 331.227H129.293V328.512H123.648V331.227ZM134.586 323.219V330.523H137.418V331.812H134.586V340.582H133.062V323.219H134.586ZM152.477 331.363V332.613H147.105V337.105H154.352V338.395H138.453V337.105H145.602V332.613H140.484V324.645H152.301V325.895H142.027V331.363H152.477ZM166.578 327.887C166.578 330.953 168.609 334.098 171.07 335.309L170.133 336.539C168.219 335.533 166.617 333.482 165.855 331.07C165.074 333.639 163.434 335.826 161.48 336.871L160.504 335.641C163.043 334.391 165.055 331.051 165.074 327.887V324.723H166.578V327.887ZM174.195 323.219V330.27H177.105V331.598H174.195V340.582H172.672V323.219H174.195ZM191.617 323.238V327.691H194.254V329H191.617V333.59H190.094V323.238H191.617ZM191.617 334.449V340.348H180.621V334.449H191.617ZM182.125 335.641V339.098H190.133V335.641H182.125ZM186.656 324.176V328.922H180.328V331.383C183.414 331.383 185.65 331.295 188.355 330.855L188.512 332.086C185.719 332.574 183.395 332.672 180.172 332.672H178.824V327.73H185.152V325.445H178.785V324.176H186.656ZM204.059 324.977V336.168H196.051V324.977H204.059ZM197.535 326.207V334.918H202.535V326.207H197.535ZM208.766 323.219V330.152H211.676V331.48H208.766V340.582H207.242V323.219H208.766ZM226.051 323.219V330.094H228.961V331.383H226.051V340.621H224.527V323.219H226.051ZM221.48 324.918V326.188H214.898V334.977C218.043 334.977 220.27 334.83 222.848 334.352L223.043 335.68C220.328 336.168 218.043 336.266 214.742 336.266H213.375V324.918H221.48ZM243.59 326.227V327.477H234.879V326.227H238.492V323.746H240.016V326.227H243.59ZM239.234 328.648C241.422 328.648 242.984 330.289 243.004 332.594C242.984 334.918 241.422 336.578 239.234 336.578C237.066 336.578 235.504 334.918 235.504 332.594C235.504 330.289 237.066 328.648 239.234 328.648ZM239.234 329.938C237.867 329.957 236.871 331.07 236.871 332.594C236.871 334.137 237.867 335.25 239.234 335.23C240.621 335.25 241.637 334.137 241.637 332.594C241.637 331.07 240.621 329.957 239.234 329.938ZM249.703 323.219V340.582H248.238V331.812H245.934V339.723H244.488V323.648H245.934V330.543H248.238V323.219H249.703ZM258.121 326.012C258.121 328.414 259.898 330.621 262.418 331.48L261.578 332.711C259.645 331.998 258.141 330.514 257.398 328.668C256.666 330.719 255.104 332.32 253.062 333.121L252.223 331.852C254.859 330.914 256.598 328.629 256.617 325.953V324.117H258.121V326.012ZM266.598 334.449V340.582H265.055V335.68H254.918V334.449H266.598ZM266.598 323.219V333.492H265.055V328.16H261.188V326.871H265.055V323.219H266.598ZM283.805 323.219V340.621H282.262V323.219H283.805ZM274.566 324.566C277.145 324.586 279 326.93 279 330.621C279 334.312 277.145 336.656 274.566 336.656C271.969 336.656 270.133 334.312 270.133 330.621C270.133 326.93 271.969 324.586 274.566 324.566ZM274.566 325.934C272.828 325.953 271.617 327.789 271.617 330.621C271.617 333.453 272.828 335.289 274.566 335.289C276.305 335.289 277.516 333.453 277.516 330.621C277.516 327.789 276.305 325.953 274.566 325.934ZM300.309 324.234V325.484H294.098V330.055C297.496 330.074 299.547 329.947 301.93 329.469L302.125 330.699C299.645 331.227 297.516 331.324 293.941 331.305H292.594V324.234H300.309ZM305.367 323.219V326.91H307.984V328.18H305.367V331.988H303.844V323.219H305.367ZM305.367 332.848V337.125H295.836V339.098H306.012V340.348H294.332V335.914H303.844V334.098H294.293V332.848H305.367ZM322.516 323.219V330.133H325.426V331.422H322.516V340.621H320.992V323.219H322.516ZM317.652 324.84V331.051H311.324V335.113C314.547 335.113 316.793 335.006 319.43 334.508L319.586 335.777C316.852 336.285 314.527 336.402 311.188 336.422H309.801V329.781H316.129V326.109H309.762V324.84H317.652ZM332.477 327.887C332.477 331.031 334.488 334.195 337.008 335.348L336.09 336.598C334.117 335.582 332.486 333.502 331.715 331.031C330.943 333.629 329.312 335.855 327.34 336.91L326.344 335.68C328.883 334.43 330.914 331.09 330.914 327.887V324.723H332.477V327.887ZM340.758 323.219V340.621H339.234V330.406H335.113V329.156H339.234V323.219H340.758ZM363.59 323.219V340.582H362.105V331.559H359.742V339.703H358.277V323.59H359.742V330.25H362.105V323.219H363.59ZM353.805 327.965C353.805 331.148 355.113 333.941 357.594 335.211L356.676 336.402C354.918 335.445 353.717 333.727 353.102 331.598C352.506 334.02 351.285 335.914 349.449 336.988L348.492 335.816C350.992 334.449 352.32 331.48 352.32 327.965V326.578H348.902V325.289H357.027V326.578H353.805V327.965ZM371.832 334.918C371.832 336.451 372.652 338.082 374.312 339.02C375.953 337.994 376.832 336.266 376.832 334.918V333.746H378.336V334.918C378.336 336.715 379.645 338.492 381.871 339.215L381.109 340.387C379.371 339.771 378.15 338.561 377.555 337.105C377.018 338.512 375.953 339.84 374.352 340.523C372.662 339.879 371.588 338.6 371.07 337.145C370.455 338.551 369.254 339.762 367.594 340.387L366.812 339.215C369 338.434 370.328 336.578 370.348 334.918V333.746H371.832V334.918ZM375.016 324.371V331.91H366.871V324.371H375.016ZM368.375 325.621V330.68H373.512V325.621H368.375ZM380.289 323.238V333.199H378.766V323.238H380.289ZM397.281 328.492V329.723H385.387V323.863H386.91V328.492H397.281ZM399.117 332.086V333.336H383.219V332.086H399.117ZM397.379 338.883V340.152H385.289V335.113H386.812V338.883H397.379ZM415.387 323.219V340.582H413.902V323.219H415.387ZM411.832 323.648V339.684H410.367V331.148H406.578V329.859H410.367V323.648H411.832ZM407.75 325.367V326.637H402.691V335.113C405.191 335.104 406.773 334.996 408.648 334.586L408.805 335.895C406.793 336.305 405.094 336.383 402.301 336.402H401.207V325.367H407.75ZM420.66 337.691L419.137 343.004H417.691L418.766 337.691H420.66ZM38.1406 351.219V358.094H41.0508V359.383H38.1406V368.621H36.6172V351.219H38.1406ZM33.5703 352.918V354.188H26.9883V362.977C30.1328 362.977 32.3594 362.83 34.9375 362.352L35.1328 363.68C32.418 364.168 30.1328 364.266 26.832 364.266H25.4648V352.918H33.5703ZM57.8672 360.848V362.117H41.9688V360.848H57.8672ZM56.1875 366.922V368.211H44.0781V363.484H45.6211V366.922H56.1875ZM55.8164 351.824V356.102H45.5625V358.035H56.1875V359.246H44.0391V354.949H54.2734V353.055H43.9805V351.824H55.8164ZM70.1133 355.887C70.1133 358.953 72.1445 362.098 74.6055 363.309L73.668 364.539C71.7539 363.533 70.1523 361.482 69.3906 359.07C68.6094 361.639 66.9688 363.826 65.0156 364.871L64.0391 363.641C66.5781 362.391 68.5898 359.051 68.6094 355.887V352.723H70.1133V355.887ZM77.7305 351.219V358.27H80.6406V359.598H77.7305V368.582H76.207V351.219H77.7305ZM95.1523 351.238V355.691H97.7891V357H95.1523V361.59H93.6289V351.238H95.1523ZM95.1523 362.449V368.348H84.1562V362.449H95.1523ZM85.6602 363.641V367.098H93.668V363.641H85.6602ZM90.1914 352.176V356.922H83.8633V359.383C86.9492 359.383 89.1855 359.295 91.8906 358.855L92.0469 360.086C89.2539 360.574 86.9297 360.672 83.707 360.672H82.3594V355.73H88.6875V353.445H82.3203V352.176H90.1914ZM114.703 358.523V359.754H98.8633V358.523H114.703ZM112.809 355.848V357.098H100.973V351.824H112.633V353.055H102.516V355.848H112.809ZM112.652 361.316V365.34H102.34V367.137H113.18V368.387H100.816V364.188H111.148V362.508H100.777V361.316H112.652ZM131.969 360.379V361.629H116.148V360.379H131.969ZM130.211 366.922V368.211H118.199V363.152H119.742V366.922H130.211ZM124.059 351.844C127.789 351.824 130.191 353.113 130.191 355.281C130.191 357.449 127.789 358.738 124.059 358.738C120.289 358.738 117.906 357.449 117.906 355.281C117.906 353.113 120.289 351.824 124.059 351.844ZM124.059 353.074C121.266 353.074 119.469 353.914 119.488 355.281C119.469 356.648 121.266 357.488 124.059 357.488C126.832 357.488 128.629 356.648 128.629 355.281C128.629 353.914 126.832 353.074 124.059 353.074ZM143.121 352.566C145.484 352.586 147.184 354.607 147.438 357.859H151.324V351.219H152.848V368.621H151.324V359.129H147.457C147.271 362.527 145.543 364.656 143.121 364.656C140.562 364.656 138.766 362.312 138.766 358.621C138.766 354.93 140.562 352.586 143.121 352.566ZM143.121 353.934C141.402 353.953 140.23 355.789 140.23 358.621C140.23 361.453 141.402 363.289 143.121 363.289C144.82 363.289 146.012 361.453 146.012 358.621C146.012 355.789 144.82 353.953 143.121 353.934ZM170.621 361.59V362.781H158.18V361.59H163.648V359.91H165.172V361.59H170.621ZM164.371 363.582C167.496 363.602 169.312 364.48 169.312 366.082C169.312 367.703 167.496 368.562 164.371 368.582C161.266 368.562 159.43 367.703 159.449 366.082C159.43 364.48 161.266 363.602 164.371 363.582ZM164.371 364.695C162.281 364.715 161.051 365.203 161.051 366.082C161.051 366.98 162.281 367.469 164.371 367.449C166.461 367.469 167.691 366.98 167.691 366.082C167.691 365.203 166.461 364.715 164.371 364.695ZM160.582 352.098V353.328H157.73V357.977C158.609 357.957 159.664 357.879 160.816 357.605L160.973 358.855C159.332 359.207 158.023 359.227 156.969 359.207H156.227V352.098H160.582ZM166.402 352.098V353.328H163.082V357.996C164.576 357.977 165.738 357.898 167.086 357.586L167.223 358.836C165.621 359.188 164.332 359.227 162.418 359.207H161.559V352.098H166.402ZM170.289 351.219V360.477H168.785V356.062H165.582V354.852H168.785V351.219H170.289ZM187.887 351.219V368.582H186.422V351.219H187.887ZM184.234 351.688V367.703H182.77V359.598H179.098C178.033 361.619 176.363 363.406 173.941 364.832L173.043 363.719C176.822 361.482 178.717 358.348 179 354.715H173.785V353.445H180.523C180.514 355.154 180.24 356.805 179.664 358.348H182.77V351.688H184.234ZM208.883 351.238V356.141H211.48V357.43H208.883V361.922H207.34V351.238H208.883ZM195.289 360.203C196.676 360.193 198.277 360.174 199.938 360.125V358.133H196.539V351.98H198.043V353.816H203.375V351.98H204.879V358.133H201.48V360.047C203.092 359.969 204.713 359.842 206.207 359.637L206.305 360.711C202.711 361.316 198.551 361.395 195.465 361.414L195.289 360.203ZM198.043 356.883H203.375V355.047H198.043V356.883ZM200.855 363.055C200.855 364.5 201.676 366.121 203.336 367.039C204.986 366.111 205.855 364.48 205.855 363.055V362.586H207.34V363.055C207.34 364.773 208.648 366.492 210.875 367.215L210.094 368.367C208.395 367.771 207.184 366.619 206.598 365.223C206.061 366.619 205.006 367.879 203.355 368.504C201.705 367.889 200.641 366.648 200.113 365.242C199.488 366.639 198.297 367.781 196.617 368.367L195.836 367.215C198.062 366.492 199.371 364.773 199.371 363.055V362.586H200.855V363.055ZM226.656 356.492V357.723H214.762V351.863H216.285V356.492H226.656ZM228.492 360.086V361.336H212.594V360.086H228.492ZM226.754 366.883V368.152H214.664V363.113H216.188V366.883H226.754ZM236.109 356.551C236.109 359.5 238.258 362.488 240.816 363.602L239.957 364.812C237.926 363.885 236.168 361.883 235.367 359.48C234.547 362.029 232.799 364.246 230.816 365.242L229.898 364.031C232.379 362.84 234.547 359.559 234.566 356.551V354.285H230.465V353.016H240.25V354.285H236.109V356.551ZM244.215 351.219V368.582H242.672V351.219H244.215ZM266.012 351.98V353.211C266.012 354.52 266.012 356.121 265.582 358.191H268.102V359.441H260.855V362.176C264.176 362.312 266.148 363.445 266.168 365.34C266.148 367.41 263.883 368.543 260.113 368.543C256.305 368.543 254.02 367.41 254.02 365.34C254.02 363.445 256.002 362.322 259.352 362.176V359.441H252.203V358.191H264.039C264.488 356.082 264.488 354.549 264.488 353.23H254.215V351.98H266.012ZM260.113 363.387C257.281 363.406 255.562 364.109 255.582 365.34C255.562 366.59 257.281 367.312 260.113 367.312C262.887 367.312 264.605 366.59 264.625 365.34C264.605 364.109 262.887 363.406 260.113 363.387ZM283.297 352.156V353.445C283.297 354.793 283.297 356.375 282.848 358.543H285.387V359.812H269.488V358.543H281.305C281.773 356.365 281.773 354.793 281.773 353.445V353.426H271.5V352.156H283.297ZM283.375 362.215V368.348H271.441V362.215H283.375ZM272.965 363.426V367.098H281.852V363.426H272.965ZM295.445 354.227V355.477H286.734V354.227H290.348V351.746H291.871V354.227H295.445ZM291.09 356.648C293.277 356.648 294.84 358.289 294.859 360.594C294.84 362.918 293.277 364.578 291.09 364.578C288.922 364.578 287.359 362.918 287.359 360.594C287.359 358.289 288.922 356.648 291.09 356.648ZM291.09 357.938C289.723 357.957 288.727 359.07 288.727 360.594C288.727 362.137 289.723 363.25 291.09 363.23C292.477 363.25 293.492 362.137 293.492 360.594C293.492 359.07 292.477 357.957 291.09 357.938ZM301.559 351.219V368.582H300.094V359.812H297.789V367.723H296.344V351.648H297.789V358.543H300.094V351.219H301.559ZM319.957 365.066V366.355H304.059V365.066H308.004V360.379C306.52 359.607 305.621 358.357 305.621 356.785C305.621 354.09 308.258 352.332 311.969 352.312C315.68 352.332 318.316 354.09 318.316 356.785C318.316 358.328 317.447 359.568 316.012 360.34V365.066H319.957ZM311.969 353.582C309.117 353.562 307.105 354.852 307.105 356.785C307.105 358.719 309.117 360.027 311.969 360.027C314.801 360.027 316.832 358.719 316.832 356.785C316.832 354.852 314.801 353.562 311.969 353.582ZM309.508 365.066H314.469V360.926C313.717 361.131 312.877 361.238 311.969 361.238C311.08 361.238 310.25 361.141 309.508 360.945V365.066ZM323.18 367.117C322.496 367.117 321.91 366.551 321.93 365.848C321.91 365.164 322.496 364.598 323.18 364.598C323.863 364.598 324.43 365.164 324.43 365.848C324.43 366.551 323.863 367.117 323.18 367.117Z" fill="white"/>
</g>
</svg>
