<svg width="30" height="30" viewBox="0 0 30 30" fill="none" xmlns="http://www.w3.org/2000/svg">
<path d="M14.6692 7.52938L15.2061 6.60312C15.5365 6.02493 16.274 5.83024 16.8521 6.16063C17.4303 6.49102 17.625 7.22849 17.2946 7.80667L12.1323 16.7449H15.8669C17.0763 16.7449 17.7548 18.1667 17.2297 19.152H6.28559C5.61891 19.152 5.08203 18.6151 5.08203 17.9484C5.08203 17.2818 5.61891 16.7449 6.28559 16.7449H9.35349L13.2828 9.9365L12.0556 7.80667C11.7252 7.22849 11.9199 6.49692 12.4981 6.16063C13.0763 5.83024 13.8078 6.02493 14.1441 6.60312L14.6692 7.52938ZM10.0261 20.391L8.8697 22.3969C8.53932 22.9751 7.80184 23.1698 7.22366 22.8394C6.64548 22.509 6.45078 21.7715 6.78117 21.1933L7.64255 19.7066C8.61011 19.4057 9.40069 19.6358 10.0261 20.391ZM19.9908 16.7508H23.1236C23.7903 16.7508 24.3272 17.2877 24.3272 17.9543C24.3272 18.621 23.7903 19.1579 23.1236 19.1579H21.3832L22.5572 21.1933C22.8876 21.7715 22.6929 22.5031 22.1148 22.8394C21.5366 23.1698 20.805 22.9751 20.4687 22.3969C18.4923 18.9691 17.0055 16.4027 16.0203 14.6917C15.0114 12.9513 15.7312 11.205 16.445 10.615C17.2356 11.9719 18.4156 14.0192 19.9908 16.7508Z" fill="#D3D4D4"/>
</svg>
