<svg width="30" height="30" viewBox="0 0 30 30" fill="none" xmlns="http://www.w3.org/2000/svg">
<path d="M8.25918 7.33555L16.0793 15.0044L8.31734 22.744C8.19035 22.5786 8.09177 22.3933 8.02565 22.1955C7.99145 21.9716 7.99145 21.7439 8.02565 21.52V8.34929C8.00239 7.99587 8.0847 7.64244 8.25918 7.33555ZM19.448 11.6599L16.8953 14.1884L9.16824 6.58933C9.41877 6.50254 9.68719 6.47838 9.94936 6.51954C10.3609 6.63227 10.7537 6.80586 11.1143 7.03223L18.1077 10.902C18.5622 11.1463 19.0051 11.4031 19.448 11.6599ZM16.8962 15.8321L19.4364 18.3266L17.595 19.352L11.9769 22.4747C11.5116 22.7315 11.0445 22.9766 10.59 23.2567C10.3955 23.3778 10.1774 23.456 9.95029 23.4861C9.72317 23.5161 9.49224 23.4974 9.27293 23.4312L16.8962 15.8321ZM23.4815 15.0044C23.488 15.3173 23.409 15.626 23.2529 15.8972C23.0968 16.1684 22.8695 16.3919 22.5957 16.5434L20.4966 17.7084L17.7346 15.0044L20.5083 12.254C21.2196 12.6503 21.9193 13.0467 22.6181 13.4198C22.8968 13.5756 23.1257 13.8071 23.2783 14.0875C23.431 14.3679 23.502 14.6858 23.4815 15.0044Z" fill="#D3D4D4"/>
</svg>
