<svg width="143" height="44" viewBox="0 0 143 44" fill="none" xmlns="http://www.w3.org/2000/svg">
<rect x="0.666667" y="0.666667" width="141.667" height="42.6667" rx="7.33333" fill="#252627"/>
<rect x="0.666667" y="0.666667" width="141.667" height="42.6667" rx="7.33333" stroke="#393A3A" stroke-width="1.33333"/>
<path d="M29.9559 12.9792L30.6254 11.7805C31.0374 11.0323 31.9571 10.7803 32.6781 11.2079C33.3991 11.6354 33.6419 12.5898 33.2299 13.338L26.7922 24.9051H31.4494C32.9577 24.9051 33.8038 26.7452 33.149 28.0202H19.5009C18.6695 28.0202 18 27.3254 18 26.4627C18 25.5999 18.6695 24.9051 19.5009 24.9051H23.3268L28.2269 16.0943L26.6965 13.338C26.2845 12.5898 26.5273 11.6431 27.2483 11.2079C27.9693 10.7803 28.8817 11.0323 29.301 11.7805L29.9559 12.9792ZM24.1655 29.6236L22.7235 32.2195C22.3115 32.9677 21.3918 33.2197 20.6708 32.7921C19.9497 32.3646 19.7069 31.4102 20.1189 30.662L21.1931 28.7379C22.3998 28.3485 23.3857 28.6463 24.1655 29.6236ZM36.5923 24.9128H40.4991C41.3305 24.9128 42 25.6076 42 26.4703C42 27.3331 41.3305 28.0279 40.4991 28.0279H38.3286L39.7928 30.662C40.2048 31.4102 39.962 32.3569 39.241 32.7921C38.5199 33.2197 37.6076 32.9677 37.1882 32.2195C34.7235 27.7835 32.8694 24.4623 31.6407 22.2481C30.3826 19.9958 31.2802 17.7358 32.1704 16.9723C33.1563 18.7284 34.6278 21.3777 36.5923 24.9128Z" fill="#D3D4D4"/>
<path d="M54.375 28H52.5469L56.6094 16.6875H58.5938L62.6719 28H60.8438L59.8125 25.0156H55.4062L54.375 28ZM55.9062 23.5781H59.3125L57.6406 18.75H57.5625L55.9062 23.5781ZM63.9688 31.1875V19.5156H65.5938V20.8906H65.7344C66.0312 20.3594 66.6094 19.4062 68.1719 19.4062C70.2188 19.4062 71.7344 21.0156 71.7344 23.7812C71.7344 26.5156 70.25 28.1719 68.1875 28.1719C66.6406 28.1719 66.0312 27.2344 65.7344 26.6719H65.6406V31.1875H63.9688ZM65.6094 23.75C65.6094 25.5312 66.3906 26.75 67.8125 26.75C69.2812 26.75 70.0469 25.4531 70.0469 23.75C70.0469 22.0781 69.2969 20.8281 67.8125 20.8281C66.375 20.8281 65.6094 21.9844 65.6094 23.75ZM73.3906 31.1875V19.5156H75.0156V20.8906H75.1562C75.4531 20.3594 76.0312 19.4062 77.5938 19.4062C79.6406 19.4062 81.1562 21.0156 81.1562 23.7812C81.1562 26.5156 79.6719 28.1719 77.6094 28.1719C76.0625 28.1719 75.4531 27.2344 75.1562 26.6719H75.0625V31.1875H73.3906ZM75.0312 23.75C75.0312 25.5312 75.8125 26.75 77.2344 26.75C78.7031 26.75 79.4688 25.4531 79.4688 23.75C79.4688 22.0781 78.7188 20.8281 77.2344 20.8281C75.7969 20.8281 75.0312 21.9844 75.0312 23.75ZM93.0156 19.6719C92.9062 18.625 91.9844 18.0156 90.6875 18.0156C89.2969 18.0156 88.4219 18.7188 88.4219 19.6875C88.4219 20.7656 89.5938 21.1719 90.4844 21.3906L91.5781 21.6875C93.0312 22.0312 94.8281 22.8281 94.8438 24.875C94.8281 26.7812 93.3125 28.1875 90.6406 28.1875C88.1094 28.1875 86.5156 26.9219 86.4062 24.8594H88.125C88.2344 26.0938 89.3125 26.6875 90.6406 26.6875C92.0781 26.6875 93.125 25.9531 93.1406 24.8438C93.125 23.8594 92.2031 23.4531 91 23.1406L89.6562 22.7812C87.8438 22.2812 86.7031 21.3594 86.7031 19.7812C86.7031 17.8281 88.4531 16.5312 90.7344 16.5312C93.0312 16.5312 94.6406 17.8438 94.6875 19.6719H93.0156ZM100.516 19.5156V20.8438H98.7812V25.5C98.7812 26.4531 99.2656 26.625 99.7969 26.6406C100.031 26.6406 100.406 26.6094 100.641 26.5938V28.0469C100.406 28.0781 100.047 28.1094 99.5938 28.1094C98.2812 28.1094 97.1094 27.3906 97.125 25.8438V20.8438H95.875V19.5156H97.125V17.4844H98.7812V19.5156H100.516ZM105.656 28.1719C103.25 28.1719 101.688 26.4219 101.688 23.7969C101.688 21.1562 103.25 19.4062 105.656 19.4062C108.047 19.4062 109.609 21.1562 109.609 23.7969C109.609 26.4219 108.047 28.1719 105.656 28.1719ZM105.656 26.7812C107.188 26.7812 107.922 25.4219 107.922 23.7969C107.922 22.1719 107.188 20.7812 105.656 20.7812C104.094 20.7812 103.359 22.1719 103.359 23.7969C103.359 25.4219 104.094 26.7812 105.656 26.7812ZM111.25 28V19.5156H112.859V20.8594H112.953C113.266 19.9531 114.109 19.3906 115.109 19.3906C115.312 19.3906 115.641 19.4062 115.812 19.4219V21.0156C115.672 20.9844 115.281 20.9219 114.938 20.9219C113.781 20.9219 112.922 21.7188 112.922 22.8281V28H111.25ZM120.453 28.1719C117.953 28.1719 116.422 26.4531 116.422 23.8125C116.422 21.2031 117.984 19.4062 120.344 19.4062C122.281 19.4062 124.109 20.6094 124.109 23.6719V24.2656H118.078C118.125 25.875 119.07 26.7969 120.469 26.7969C121.422 26.7969 122.031 26.3906 122.312 25.875H124C123.625 27.25 122.312 28.1719 120.453 28.1719ZM118.094 23.0156H122.469C122.469 21.7188 121.641 20.7812 120.359 20.7812C119.023 20.7812 118.156 21.8125 118.094 23.0156Z" fill="#D3D4D4"/>
</svg>
