<svg width="153" height="44" viewBox="0 0 153 44" fill="none" xmlns="http://www.w3.org/2000/svg">
<rect x="0.666667" y="0.666667" width="151.667" height="42.6667" rx="7.33333" fill="#252627"/>
<rect x="0.666667" y="0.666667" width="151.667" height="42.6667" rx="7.33333" stroke="#393A3A" stroke-width="1.33333"/>
<path d="M18.3348 12.0813L28.4356 22.0057L18.4099 32.0216C18.2459 31.8076 18.1185 31.5677 18.0331 31.3118C17.989 31.0221 17.989 30.7273 18.0331 30.4376V13.3932C18.0031 12.9358 18.1082 12.4785 18.3336 12.0813M32.7868 17.6775L29.4896 20.9497L19.509 11.1156C19.8326 11.0033 20.1793 10.972 20.5179 11.0253C21.0495 11.1712 21.5569 11.3958 22.0226 11.6888L31.0555 16.6967C31.6426 17.0128 32.2147 17.3451 32.7868 17.6775ZM29.4907 23.0768L32.7717 26.305L30.3933 27.632L23.1367 31.6731C22.5357 32.0054 21.9325 32.3227 21.3454 32.6851C21.0941 32.8418 20.8124 32.943 20.5191 32.9819C20.2257 33.0209 19.9274 32.9967 19.6442 32.9109L29.4907 23.0768ZM37.9967 22.0057C38.0051 22.4106 37.903 22.8101 37.7013 23.1611C37.4997 23.5121 37.2062 23.8013 36.8525 23.9973L34.1412 25.5049L30.5736 22.0057L34.1563 18.4463C35.0751 18.9593 35.9788 19.4722 36.8814 19.9551C37.2414 20.1567 37.537 20.4562 37.7342 20.8191C37.9314 21.182 38.0231 21.5934 37.9967 22.0057Z" fill="#D3D4D4"/>
<path d="M57.1328 20.2656C56.7109 18.9219 55.6953 18.1094 54.1953 18.1094C52.2891 18.1094 50.8203 19.6094 50.8203 22.3438C50.8203 25.0781 52.2734 26.5781 54.2734 26.5781C56.0781 26.5781 57.2734 25.4375 57.3047 23.625H54.5234V22.2031H58.9766V23.4844C58.9766 26.3438 57.0078 28.1562 54.2578 28.1562C51.1953 28.1562 49.1172 25.9219 49.1172 22.3438C49.1172 18.7344 51.2578 16.5312 54.1797 16.5312C56.6328 16.5312 58.5078 18.0625 58.8984 20.2656H57.1328ZM64.4141 28.1719C62.0078 28.1719 60.4453 26.4219 60.4453 23.7969C60.4453 21.1562 62.0078 19.4062 64.4141 19.4062C66.8047 19.4062 68.3672 21.1562 68.3672 23.7969C68.3672 26.4219 66.8047 28.1719 64.4141 28.1719ZM64.4141 26.7812C65.9453 26.7812 66.6797 25.4219 66.6797 23.7969C66.6797 22.1719 65.9453 20.7812 64.4141 20.7812C62.8516 20.7812 62.1172 22.1719 62.1172 23.7969C62.1172 25.4219 62.8516 26.7812 64.4141 26.7812ZM73.6016 28.1719C71.1953 28.1719 69.6328 26.4219 69.6328 23.7969C69.6328 21.1562 71.1953 19.4062 73.6016 19.4062C75.9922 19.4062 77.5547 21.1562 77.5547 23.7969C77.5547 26.4219 75.9922 28.1719 73.6016 28.1719ZM73.6016 26.7812C75.1328 26.7812 75.8672 25.4219 75.8672 23.7969C75.8672 22.1719 75.1328 20.7812 73.6016 20.7812C72.0391 20.7812 71.3047 22.1719 71.3047 23.7969C71.3047 25.4219 72.0391 26.7812 73.6016 26.7812ZM82.7578 31.3594C80.6172 31.3594 79.2109 30.4062 79.0547 28.8281H80.7578C80.9141 29.625 81.6641 30.0156 82.7734 30.0156C84.1016 30.0156 84.9453 29.4531 84.9453 28.125V26.4531H84.8359C84.5391 27 83.9297 27.875 82.3672 27.875C80.3672 27.875 78.8203 26.375 78.8203 23.6719C78.8203 20.9688 80.3359 19.4062 82.3828 19.4062C83.9609 19.4062 84.5391 20.3594 84.8516 20.8906H84.9609V19.5156H86.5859V28.1875C86.5859 30.3594 84.9453 31.3594 82.7578 31.3594ZM82.7422 26.5C84.1641 26.5 84.9609 25.4531 84.9609 23.7031C84.9609 21.9844 84.1797 20.8281 82.7422 20.8281C81.2578 20.8281 80.5234 22.0781 80.5234 23.7031C80.5234 25.3594 81.2891 26.5 82.7422 26.5ZM90.2891 16.6875V28H88.6172V16.6875H90.2891ZM95.9766 28.1719C93.4766 28.1719 91.9453 26.4531 91.9453 23.8125C91.9453 21.2031 93.5078 19.4062 95.8672 19.4062C97.8047 19.4062 99.6328 20.6094 99.6328 23.6719V24.2656H93.6016C93.6484 25.875 94.5938 26.7969 95.9922 26.7969C96.9453 26.7969 97.5547 26.3906 97.8359 25.875H99.5234C99.1484 27.25 97.8359 28.1719 95.9766 28.1719ZM93.6172 23.0156H97.9922C97.9922 21.7188 97.1641 20.7812 95.8828 20.7812C94.5469 20.7812 93.6797 21.8125 93.6172 23.0156ZM105.336 28V16.6875H109.367C111.992 16.6875 113.289 18.2656 113.289 20.3594C113.289 22.4375 111.992 24.0312 109.367 24.0312H107.055V28H105.336ZM107.055 22.5625H109.195C110.867 22.5625 111.555 21.625 111.555 20.3594C111.555 19.0781 110.867 18.1562 109.195 18.1562H107.055V22.5625ZM116.633 16.6875V28H114.961V16.6875H116.633ZM118.273 25.6094C118.273 23.6719 119.914 23.1719 121.445 23.0625C122.008 23.0234 123.281 22.9531 123.68 22.9375L123.664 22.2656C123.664 21.3125 123.086 20.75 121.945 20.75C120.961 20.75 120.367 21.2031 120.195 21.8281H118.539C118.695 20.4219 120.008 19.4062 122.008 19.4062C123.352 19.4062 125.336 19.9062 125.336 22.3594V28H123.711V26.8438H123.648C123.32 27.4844 122.539 28.1875 121.133 28.1875C119.523 28.1875 118.273 27.2656 118.273 25.6094ZM119.898 25.625C119.898 26.4375 120.57 26.8594 121.508 26.8594C122.867 26.8594 123.68 25.9531 123.68 24.9375V24.1562L121.68 24.2969C120.586 24.375 119.898 24.7812 119.898 25.625ZM128.07 31.1875C127.727 31.1875 127.398 31.1719 127.18 31.1406V29.75C127.367 29.7656 127.695 29.7812 127.93 29.7812C128.445 29.7812 128.883 29.7344 129.273 28.6719L129.477 28.1094L126.367 19.5156H128.148L130.289 26.0938H130.383L132.523 19.5156H134.32L130.82 29.125C130.336 30.4688 129.461 31.1875 128.07 31.1875Z" fill="#D3D4D4"/>
</svg>
