<svg width="248" height="62" viewBox="0 0 248 62" fill="none" xmlns="http://www.w3.org/2000/svg">
<rect x="0.371" y="0.371" width="246.591" height="60.9167" rx="5.565" fill="white"/>
<rect x="0.371" y="0.371" width="246.591" height="60.9167" rx="5.565" stroke="#E8E8E8" stroke-width="0.742"/>
<path d="M16.6199 33.8416V32.2685C16.6199 29.3302 17.7477 27.5494 20.2705 27.1636V28.4101C19.2317 28.7069 18.6975 29.627 18.7865 30.9626H20.5673V34.4945H17.2729C16.8573 34.4945 16.6199 34.2868 16.6199 33.8416ZM11.8711 33.8416V32.2685C11.8711 29.3302 12.9989 27.5494 15.5217 27.1636V28.4101C14.4829 28.7069 13.9487 29.627 14.0377 30.9626H15.8185V34.4945H12.5241C12.1085 34.4945 11.8711 34.2868 11.8711 33.8416Z" fill="#9EA0A2"/>
<path d="M39.7359 21.0569C39.7359 22.6496 40.791 24.2828 42.0692 24.9118L41.5822 25.5509C40.5881 25.0284 39.7562 23.9633 39.3606 22.7104C38.9548 24.0444 38.1027 25.1806 37.0882 25.7233L36.581 25.0842C37.8998 24.435 38.9447 22.7003 38.9548 21.0569V19.4134H39.7359V21.0569ZM43.6923 18.6323V22.2945H45.2038V22.9843H43.6923V27.6508H42.901V18.6323H43.6923ZM52.7412 18.6425V20.9554H54.1107V21.6351H52.7412V24.0191H51.9499V18.6425H52.7412ZM52.7412 24.4654V27.5291H47.0298V24.4654H52.7412ZM47.811 25.0842V26.8798H51.9702V25.0842H47.811ZM50.1645 19.1294V21.5945H46.8777V22.8727C48.4805 22.8727 49.6421 22.8271 51.0471 22.5988L51.1282 23.2379C49.6776 23.4916 48.4704 23.5423 46.7965 23.5423H46.0965V20.9757H49.3834V19.7888H46.0763V19.1294H50.1645ZM62.8857 23.3901V24.0394H54.6687V23.3901H62.8857ZM61.9727 26.7885V27.4581H55.7339V24.8306H56.5353V26.7885H61.9727ZM58.7772 18.9569C60.7148 18.9468 61.9626 19.6163 61.9626 20.7424C61.9626 21.8684 60.7148 22.538 58.7772 22.538C56.8193 22.538 55.5817 21.8684 55.5817 20.7424C55.5817 19.6163 56.8193 18.9468 58.7772 18.9569ZM58.7772 19.5961C57.3265 19.5961 56.3932 20.0323 56.4034 20.7424C56.3932 21.4525 57.3265 21.8887 58.7772 21.8887C60.2177 21.8887 61.151 21.4525 61.151 20.7424C61.151 20.0323 60.2177 19.5961 58.7772 19.5961ZM73.5375 21.6757V22.3351H67.3189V19.099H68.1102V21.6757H73.5375ZM74.5114 23.6944V24.364H70.7376V27.6508H69.9463V24.364H66.2537V23.6944H74.5114ZM82.4038 19.1193V19.8294C82.4038 20.5902 82.4038 21.4525 82.1806 22.6293H83.4893V23.2684H79.7764V25.4494H78.9953V23.2684H75.2316V22.6293H81.3691C81.6126 21.4474 81.6126 20.5902 81.6126 19.8294V19.7787H76.2765V19.1193H82.4038ZM82.5966 26.7885V27.4581H76.2765V24.6379H77.0779V26.7885H82.5966ZM91.189 18.6323V22.3046H92.6498V22.9742H91.189V27.6508H90.3977V18.6323H91.189ZM88.8558 19.6062C88.8558 22.1626 87.6587 24.4857 84.7168 25.9364L84.2704 25.3074C86.6037 24.1459 87.8717 22.4112 88.0543 20.2757H84.6863V19.6062H88.8558ZM100.167 18.6323V22.3046H101.628V22.9742H100.167V27.6508H99.3756V18.6323H100.167ZM97.8337 19.6062C97.8337 22.1626 96.6366 24.4857 93.6947 25.9364L93.2483 25.3074C95.5816 24.1459 96.8496 22.4112 97.0322 20.2757H93.6643V19.6062H97.8337ZM107.796 19.6671C107.796 20.8844 108.719 21.9394 110.038 22.3554L109.611 22.9742C108.602 22.6242 107.816 21.9344 107.43 21.0264C107.04 22.0662 106.208 22.8575 105.128 23.2481L104.722 22.609C106.081 22.1423 107.014 21.0163 107.014 19.6671V18.9468H107.796V19.6671ZM111.823 18.6323V20.6105H113.182V21.28H111.823V23.3495H111.032V18.6323H111.823ZM111.823 23.7553V25.9059H106.872V26.9001H112.158V27.5494H106.091V25.2973H111.032V24.3944H106.071V23.7553H111.823ZM116.165 19.3323C117.494 19.3424 118.437 20.5598 118.447 22.4771C118.437 24.3944 117.494 25.6118 116.165 25.6118C114.826 25.6118 113.892 24.3944 113.892 22.4771C113.892 20.5598 114.826 19.3424 116.165 19.3323ZM116.165 20.0424C115.272 20.0526 114.643 21.0061 114.643 22.4771C114.643 23.9481 115.272 24.9016 116.165 24.9016C117.068 24.9016 117.676 23.9481 117.676 22.4771C117.676 21.0061 117.068 20.0526 116.165 20.0424ZM120.73 18.6323V22.2336H122.241V22.9235H120.73V27.6508H119.939V18.6323H120.73ZM129.708 18.6323V22.3046H131.169V22.9742H129.708V27.6508H128.917V18.6323H129.708ZM127.375 19.6062C127.375 22.1626 126.177 24.4857 123.236 25.9364L122.789 25.3074C125.122 24.1459 126.391 22.4112 126.573 20.2757H123.205V19.6062H127.375ZM138.99 22.8626V23.5118H136.2V25.8451H139.964V26.5146H131.706V25.8451H135.419V23.5118H132.761V19.3729H138.899V20.0221H133.563V22.8626H138.99ZM148.536 21.5945V22.2438H146.71V23.5017C147.552 23.4662 148.394 23.4053 149.175 23.3191L149.236 23.9075C147.298 24.1712 145.148 24.2321 143.454 24.2321L143.332 23.5829C144.123 23.5778 145.011 23.5676 145.919 23.5321V22.2438H144.154V19.2207H148.465V19.8801H144.955V21.5945H148.536ZM150.727 18.6425V25.3886H149.926V18.6425H150.727ZM151.021 26.7885V27.4581H144.874V24.9219H145.665V26.7885H151.021ZM159.249 18.6323V22.2032H160.76V22.8727H159.249V27.6711H158.457V18.6323H159.249ZM156.875 19.5149V20.1743H153.456V24.7393C155.089 24.7393 156.246 24.6632 157.585 24.4147L157.686 25.1045C156.276 25.3581 155.089 25.4089 153.375 25.4089H152.665V19.5149H156.875ZM168.48 19.5453V20.4482C168.47 21.5539 168.47 22.7916 168.145 24.6074L167.334 24.5161C167.679 22.7916 167.679 21.5235 167.679 20.4482V20.2047H162.12V19.5453H168.48ZM169.464 25.7132V26.3726H161.247V25.7132H164.473V22.4872H165.254V25.7132H169.464ZM179.883 18.6323V20.5902H181.242V21.2598H179.883V23.2278H179.091V18.6323H179.883ZM177.387 19.1497V22.751H173.218V19.1497H177.387ZM173.999 19.7989V22.1119H176.616V19.7989H173.999ZM179.883 23.6539V25.8552H174.932V26.89H180.217V27.5291H174.151V25.2466H179.091V24.293H174.131V23.6539H179.883ZM186.314 20.1946V20.8438H181.79V20.1946H183.667V18.9062H184.458V20.1946H186.314ZM184.052 21.4525C185.188 21.4525 186 22.3046 186.01 23.5017C186 24.7089 185.188 25.5712 184.052 25.5712C182.926 25.5712 182.114 24.7089 182.114 23.5017C182.114 22.3046 182.926 21.4525 184.052 21.4525ZM184.052 22.122C183.342 22.1322 182.825 22.7104 182.825 23.5017C182.825 24.3031 183.342 24.8814 184.052 24.8712C184.772 24.8814 185.3 24.3031 185.3 23.5017C185.3 22.7104 184.772 22.1322 184.052 22.122ZM189.489 18.6323V27.6508H188.729V23.0959H187.532V27.2044H186.781V18.8555H187.532V22.4365H188.729V18.6323H189.489ZM195.343 19.9105C195.333 21.1177 196.946 22.1423 198.518 22.3757L198.224 23.0046C196.814 22.7662 195.444 22.0155 194.897 20.925C194.349 22.0155 192.974 22.7662 191.589 23.0046L191.275 22.3757C192.837 22.1423 194.45 21.1177 194.45 19.9105V19.8497H191.559V19.2004H198.224V19.8497H195.343V19.9105ZM199.005 23.7756V24.435H195.272V27.6508H194.491V24.435H190.788V23.7756H199.005ZM202.992 21.4018C202.992 22.9336 204.108 24.4857 205.437 25.064L204.99 25.6929C203.935 25.211 203.022 24.1712 202.606 22.9235C202.18 24.2473 201.272 25.3987 200.243 25.9161L199.766 25.2871C201.054 24.6683 202.18 22.964 202.19 21.4018V20.225H200.06V19.5656H205.143V20.225H202.992V21.4018ZM207.202 18.6323V27.6508H206.4V18.6323H207.202ZM80.9177 34.1497C82.2669 34.1497 83.261 35.012 83.261 36.2293C83.261 37.4568 82.2669 38.3089 80.9177 38.3191C79.5684 38.3089 78.5641 37.4568 78.5743 36.2293C78.5641 35.012 79.5684 34.1497 80.9177 34.1497ZM80.9177 34.8192C80.0351 34.8192 79.3453 35.4178 79.3554 36.2293C79.3453 37.0612 80.0351 37.6597 80.9177 37.6597C81.8104 37.6597 82.4799 37.0612 82.4799 36.2293C82.4799 35.4178 81.8104 34.8192 80.9177 34.8192ZM85.4523 33.6323V35.6714H86.8116V36.3308H85.4523V38.1466H84.661V33.6323H85.4523ZM80.1365 39.1205V41.7479C80.659 41.7327 81.3539 41.6566 81.993 41.4436L82.1147 42.0827C81.2321 42.3769 80.38 42.4073 79.7916 42.4073H79.3655V39.1205H80.1365ZM86.3551 39.1611V39.7799H81.8002V39.1611H83.6973V38.3597H84.4784V39.1611H86.3551ZM84.0726 40.0842C85.0566 40.0842 85.7566 40.5813 85.7667 41.3625C85.7566 42.1436 85.0566 42.6305 84.0726 42.6305C83.0784 42.6305 82.3886 42.1436 82.3988 41.3625C82.3886 40.5813 83.0784 40.0842 84.0726 40.0842ZM84.0726 40.6625C83.5147 40.6625 83.1089 40.9465 83.1089 41.3625C83.1089 41.7885 83.5147 42.0624 84.0726 42.0624C84.6407 42.0624 85.0363 41.7885 85.0363 41.3625C85.0363 40.9465 84.6407 40.6625 84.0726 40.6625ZM91.4883 34.2207C93.3751 34.2207 94.7852 35.2047 94.7852 36.696C94.7852 38.1974 93.3751 39.1814 91.4883 39.1712C89.6014 39.1814 88.1913 38.1974 88.1913 36.696C88.1913 35.2047 89.6014 34.2207 91.4883 34.2207ZM91.4883 34.87C90.0376 34.8598 88.942 35.6206 88.9521 36.696C88.942 37.7916 90.0376 38.522 91.4883 38.522C92.9288 38.522 94.0142 37.7916 94.0142 36.696C94.0142 35.6206 92.9288 34.8598 91.4883 34.87ZM95.6374 40.7842V41.4538H87.3797V40.7842H95.6374ZM100.923 34.4236V35.225H103.033V33.6425H103.834V40.2263H103.033V37.822H100.923V38.6336H96.7837V34.4236H100.923ZM97.575 35.083V37.9945H100.142V35.083H97.575ZM104.037 41.7885V42.4581H98.001V39.6379H98.8025V41.7885H104.037ZM100.923 37.1626H103.033V35.8946H100.923V37.1626ZM110.966 34.6671C110.966 35.8844 111.889 36.9394 113.208 37.3554L112.782 37.9742C111.772 37.6242 110.986 36.9344 110.601 36.0264C110.21 37.0662 109.378 37.8575 108.298 38.2481L107.892 37.609C109.251 37.1423 110.185 36.0163 110.185 34.6671V33.9468H110.966V34.6671ZM114.993 33.6323V35.6105H116.353V36.28H114.993V38.3495H114.202V33.6323H114.993ZM114.993 38.7553V40.9059H110.043V41.9001H115.328V42.5494H109.261V40.2973H114.202V39.3944H109.241V38.7553H114.993ZM119.335 34.3323C120.664 34.3424 121.607 35.5598 121.618 37.4771C121.607 39.3944 120.664 40.6118 119.335 40.6118C117.996 40.6118 117.063 39.3944 117.063 37.4771C117.063 35.5598 117.996 34.3424 119.335 34.3323ZM119.335 35.0424C118.442 35.0526 117.813 36.0061 117.813 37.4771C117.813 38.9481 118.442 39.9016 119.335 39.9016C120.238 39.9016 120.847 38.9481 120.847 37.4771C120.847 36.0061 120.238 35.0526 119.335 35.0424ZM123.9 33.6323V37.2336H125.412V37.9235H123.9V42.6508H123.109V33.6323H123.9ZM132.949 33.6323V35.6714H134.308V36.3409H132.949V38.2278H132.158V33.6323H132.949ZM130.494 34.0787C130.494 36.3511 128.851 37.8322 126.223 38.4611L125.909 37.7916C128.156 37.2844 129.485 36.1634 129.622 34.7381H126.314V34.0787H130.494ZM132.949 38.6336V40.8654H127.998V41.9103H133.284V42.5697H127.217V40.2466H132.158V39.2828H127.197V38.6336H132.949ZM142.008 34.4743C142.008 35.7424 143.672 36.8481 145.295 37.0713L144.97 37.7206C143.57 37.4872 142.186 36.7112 141.602 35.6004C141.024 36.7163 139.634 37.4872 138.234 37.7206L137.91 37.0713C139.533 36.8481 141.186 35.7627 141.186 34.4743V33.9569H142.008V34.4743ZM145.701 38.7147V39.3843H141.967V42.6508H141.186V39.3843H137.484V38.7147H145.701ZM150.864 38.9278V40.0538H152.508V38.9278H153.248V42.5291H150.114V38.9278H150.864ZM150.864 41.9001H152.508V40.6625H150.864V41.9001ZM155.825 39.6379C155.815 40.5915 156.383 41.5856 157.489 41.9914L157.073 42.6001C156.241 42.2653 155.693 41.6313 155.419 40.8755C155.13 41.6161 154.582 42.2552 153.786 42.6001L153.37 41.9914C154.455 41.5451 155.034 40.5509 155.034 39.6379V38.8669H155.825V39.6379ZM151.554 34.0381C152.761 34.0381 153.684 34.7229 153.857 35.7627H155.744V33.6323H156.545V38.4104H155.744V36.4221H153.867C153.705 37.4872 152.776 38.1872 151.554 38.1872C150.185 38.1872 149.211 37.3452 149.211 36.1076C149.211 34.8801 150.185 34.0381 151.554 34.0381ZM151.554 34.7076C150.631 34.7076 149.971 35.2859 149.971 36.1076C149.971 36.9394 150.631 37.5278 151.554 37.5278C152.467 37.5278 153.116 36.9394 153.116 36.1076C153.116 35.2859 152.467 34.7076 151.554 34.7076ZM160.471 34.3323C161.699 34.3424 162.581 35.3924 162.713 37.0815H164.732V33.6323H165.523V42.6711H164.732V37.7409H162.723C162.627 39.506 161.729 40.6118 160.471 40.6118C159.142 40.6118 158.209 39.3944 158.209 37.4771C158.209 35.5598 159.142 34.3424 160.471 34.3323ZM160.471 35.0424C159.578 35.0526 158.97 36.0061 158.97 37.4771C158.97 38.9481 159.578 39.9016 160.471 39.9016C161.354 39.9016 161.972 38.9481 161.972 37.4771C161.972 36.0061 161.354 35.0526 160.471 35.0424ZM167.978 41.89C167.623 41.89 167.319 41.5958 167.329 41.2306C167.319 40.8755 167.623 40.5813 167.978 40.5813C168.333 40.5813 168.627 40.8755 168.627 41.2306C168.627 41.5958 168.333 41.89 167.978 41.89Z" fill="#252627"/>
<path d="M230.713 27.8165V29.3896C230.713 32.3279 229.585 34.1087 227.062 34.4945V33.248C228.101 32.9512 228.635 32.0311 228.546 30.6955H226.766V27.1636H230.06C230.476 27.1636 230.713 27.3713 230.713 27.8165ZM235.462 27.8165V29.3896C235.462 32.3279 234.334 34.1087 231.811 34.4945V33.248C232.85 32.9512 233.384 32.0311 233.295 30.6955H231.514V27.1636H234.809C235.224 27.1636 235.462 27.3713 235.462 27.8165Z" fill="#9EA0A2"/>
</svg>
