<svg width="248" height="92" viewBox="0 0 248 92" fill="none" xmlns="http://www.w3.org/2000/svg">
<rect x="0.371" y="0.371" width="246.591" height="90.9167" rx="5.565" fill="white"/>
<rect x="0.371" y="0.371" width="246.591" height="90.9167" rx="5.565" stroke="#E8E8E8" stroke-width="0.742"/>
<path d="M16.6199 48.8416V47.2685C16.6199 44.3302 17.7477 42.5494 20.2705 42.1636V43.4101C19.2317 43.7069 18.6975 44.627 18.7865 45.9626H20.5673V49.4945H17.2729C16.8573 49.4945 16.6199 49.2868 16.6199 48.8416ZM11.8711 48.8416V47.2685C11.8711 44.3302 12.9989 42.5494 15.5217 42.1636V43.4101C14.4829 43.7069 13.9487 44.627 14.0377 45.9626H15.8185V49.4945H12.5241C12.1085 49.4945 11.8711 49.2868 11.8711 48.8416Z" fill="#9EA0A2"/>
<path d="M63.4691 21.0569C63.4691 22.6496 64.5241 24.2828 65.8023 24.9118L65.3154 25.5509C64.3212 25.0284 63.4894 23.9633 63.0937 22.7104C62.6879 24.0444 61.8358 25.1806 60.8213 25.7233L60.3141 25.0842C61.6329 24.435 62.6778 22.7003 62.6879 21.0569V19.4134H63.4691V21.0569ZM67.4254 18.6323V22.2945H68.937V22.9843H67.4254V27.6508H66.6342V18.6323H67.4254ZM76.4743 18.6425V20.9554H77.8439V21.6351H76.4743V24.0191H75.6831V18.6425H76.4743ZM76.4743 24.4654V27.5291H70.763V24.4654H76.4743ZM71.5441 25.0842V26.8798H75.7034V25.0842H71.5441ZM73.8976 19.1294V21.5945H70.6108V22.8727C72.2136 22.8727 73.3752 22.8271 74.7802 22.5988L74.8614 23.2379C73.4107 23.4916 72.2035 23.5423 70.5297 23.5423H69.8297V20.9757H73.1165V19.7888H69.8094V19.1294H73.8976ZM81.3539 19.2917C82.7741 19.2917 83.7784 20.154 83.7784 21.4119C83.7784 22.6698 82.7741 23.5321 81.3539 23.5321C79.9336 23.5321 78.909 22.6698 78.9192 21.4119C78.909 20.154 79.9336 19.2917 81.3539 19.2917ZM81.3539 19.9917C80.3901 19.9917 79.6902 20.5699 79.7003 21.4119C79.6902 22.2539 80.3901 22.8322 81.3539 22.8322C82.3075 22.8322 82.9973 22.2539 82.9973 21.4119C82.9973 20.5699 82.3075 19.9917 81.3539 19.9917ZM85.7972 18.6323V27.6711H85.0059V18.6323H85.7972ZM78.4525 25.0031C80.1162 25.0031 82.4089 24.9929 84.4074 24.6988L84.4682 25.2871C82.4089 25.6726 80.1872 25.6828 78.5641 25.6828L78.4525 25.0031ZM97.4735 19.0077V19.6569H94.6128C94.6229 20.6815 96.1547 21.4931 97.7474 21.6757L97.4532 22.3046C95.9772 22.117 94.5925 21.4576 94.0954 20.4482C93.6034 21.4576 92.2237 22.117 90.7477 22.3046L90.4535 21.6757C92.0361 21.4931 93.5577 20.6815 93.578 19.6569H90.7376V19.0077H97.4735ZM98.2344 22.8829V23.5423H94.4809V24.7292H97.1895V27.6508H96.3881V25.3784H90.8999V24.7292H93.6998V23.5423H89.9869V22.8829H98.2344ZM103.073 18.8352C105.031 18.8352 106.259 19.4642 106.259 20.5496C106.259 21.6148 105.031 22.2336 103.073 22.2336C101.115 22.2336 99.8778 21.6148 99.8778 20.5496C99.8778 19.4642 101.115 18.8352 103.073 18.8352ZM103.073 19.4743C101.612 19.4743 100.689 19.8801 100.699 20.5496C100.689 21.209 101.612 21.5945 103.073 21.6047C104.514 21.5945 105.447 21.209 105.447 20.5496C105.447 19.8801 104.514 19.4743 103.073 19.4743ZM106.178 24.5669V27.5291H99.9691V24.5669H106.178ZM100.76 25.206V26.8798H105.396V25.206H100.76ZM107.182 23.0148V23.6742H98.9648V23.0148H107.182ZM116.16 23.3901V24.0394H107.943V23.3901H116.16ZM115.247 26.7885V27.4581H109.008V24.8306H109.809V26.7885H115.247ZM112.051 18.9569C113.989 18.9468 115.237 19.6163 115.237 20.7424C115.237 21.8684 113.989 22.538 112.051 22.538C110.093 22.538 108.856 21.8684 108.856 20.7424C108.856 19.6163 110.093 18.9468 112.051 18.9569ZM112.051 19.5961C110.601 19.5961 109.667 20.0323 109.677 20.7424C109.667 21.4525 110.601 21.8887 112.051 21.8887C113.492 21.8887 114.425 21.4525 114.425 20.7424C114.425 20.0323 113.492 19.5961 112.051 19.5961ZM127.775 22.751V23.4104H124.012V24.4248H123.23V23.4104H119.528V22.751H127.775ZM124.022 25.1248C124.022 26.119 125.483 26.8392 127.116 27.0016L126.862 27.6102C125.437 27.4581 124.154 26.9103 123.616 26.0378C123.078 26.9001 121.805 27.4581 120.39 27.6102L120.126 27.0016C121.739 26.8392 123.21 26.1088 123.21 25.1248V24.8306H124.022V25.1248ZM124.052 19.17C124.052 20.2859 125.696 21.2598 127.288 21.4525L126.994 22.0713C125.594 21.8786 124.22 21.1837 123.646 20.1844C123.068 21.1938 121.683 21.8786 120.289 22.0713L119.994 21.4525C121.597 21.2598 123.23 20.3062 123.23 19.17V18.7439H124.052V19.17ZM131.559 21.4018C131.549 22.8524 132.594 24.4451 133.903 25.064L133.446 25.6929C132.432 25.2009 131.574 24.1256 131.174 22.9032C130.758 24.2321 129.85 25.3987 128.84 25.9161L128.353 25.2871C129.652 24.6582 130.768 22.9437 130.778 21.4018V20.225H128.678V19.5656H133.588V20.225H131.559V21.4018ZM135.485 18.6323V22.2844H136.997V22.964H135.485V27.6508H134.694V18.6323H135.485ZM144.463 18.6323V22.3046H145.924V22.9742H144.463V27.6508H143.672V18.6323H144.463ZM142.13 19.6062C142.13 22.1626 140.933 24.4857 137.991 25.9364L137.544 25.3074C139.878 24.1459 141.146 22.4112 141.328 20.2757H137.96V19.6062H142.13ZM151.483 19.3323C152.812 19.3424 153.755 20.5598 153.766 22.4771C153.755 24.3944 152.812 25.6118 151.483 25.6118C150.144 25.6118 149.211 24.3944 149.211 22.4771C149.211 20.5598 150.144 19.3424 151.483 19.3323ZM151.483 20.0424C150.59 20.0526 149.961 21.0061 149.961 22.4771C149.961 23.9481 150.59 24.9016 151.483 24.9016C152.386 24.9016 152.995 23.9481 152.995 22.4771C152.995 21.0061 152.386 20.0526 151.483 20.0424ZM156.048 18.6323V22.2336H157.56V22.9235H156.048V27.6508H155.257V18.6323H156.048ZM165.493 18.6425V23.3901H164.701V18.6425H165.493ZM159.406 19.0888V22.2641C160.892 22.259 162.236 22.1575 163.677 21.8684L163.798 22.5278C162.267 22.822 160.907 22.9437 159.345 22.9437H158.615V19.0888H159.406ZM160.461 23.7959V25.0234H164.701V23.7959H165.493V27.5291H159.66V23.7959H160.461ZM160.461 26.8798H164.701V25.6523H160.461V26.8798ZM174.46 18.6323V27.6508H173.669V18.6323H174.46ZM168.394 19.525V24.6379C169.769 24.6328 171.194 24.5212 172.705 24.2017L172.817 24.8814C171.214 25.2161 169.784 25.3277 168.343 25.3277H167.613V19.525H168.394ZM182.982 18.6323V22.2032H184.493V22.8727H182.982V27.6711H182.191V18.6323H182.982ZM180.608 19.5149V20.1743H177.189V24.7393C178.823 24.7393 179.979 24.6632 181.318 24.4147L181.42 25.1045C180.009 25.3581 178.823 25.4089 177.108 25.4089H176.398V19.5149H180.608ZM185.934 26.89C185.579 26.89 185.274 26.5958 185.285 26.2306C185.274 25.8755 185.579 25.5813 185.934 25.5813C186.289 25.5813 186.583 25.8755 186.583 26.2306C186.583 26.5958 186.289 26.89 185.934 26.89ZM42.9923 33.6425V36.6148H44.3517V37.2844H42.9923V40.3987H42.2011V33.6425H42.9923ZM41.3388 34.7482V35.3975H35.9622V34.7482H38.2548V33.6425H39.0461V34.7482H41.3388ZM38.6505 35.8946C39.9388 35.8946 40.8113 36.5539 40.8214 37.5785C40.8113 38.593 39.9388 39.2422 38.6505 39.2422C37.352 39.2422 36.4694 38.593 36.4795 37.5785C36.4694 36.5539 37.352 35.8946 38.6505 35.8946ZM38.6505 36.5235C37.7983 36.5235 37.2302 36.9394 37.2404 37.5785C37.2302 38.2176 37.7983 38.6234 38.6505 38.6133C39.4925 38.6234 40.0606 38.2176 40.0707 37.5785C40.0606 36.9394 39.4925 36.5235 38.6505 36.5235ZM43.4083 41.7885V42.4581H37.352V39.8611H38.1331V41.7885H43.4083ZM55.0035 33.6323V38.9785H54.202V37.5583H52.092V38.3292H47.953V34.3221H52.092V35.1033H54.202V33.6323H55.0035ZM48.7443 34.9714V37.68H51.3108V34.9714H48.7443ZM52.0108 39.2422C53.8876 39.2422 55.0339 39.8611 55.0339 40.9465C55.0339 42.0218 53.8876 42.6305 52.0108 42.6305C50.1341 42.6305 48.9877 42.0218 48.9877 40.9465C48.9877 39.8611 50.1341 39.2422 52.0108 39.2422ZM52.0108 39.8611C50.6312 39.8712 49.7689 40.2668 49.779 40.9465C49.7689 41.5958 50.6312 42.0016 52.0108 42.0016C53.3905 42.0016 54.2426 41.5958 54.2426 40.9465C54.2426 40.2668 53.3905 39.8712 52.0108 39.8611ZM52.092 36.8887H54.202V35.7627H52.092V36.8887ZM57.9859 41.1494L57.1947 43.9087H56.444L57.0019 41.1494H57.9859ZM68.8304 33.6425V36.6148H70.1898V37.2844H68.8304V40.3987H68.0392V33.6425H68.8304ZM67.1769 34.7482V35.3975H61.8003V34.7482H64.093V33.6425H64.8842V34.7482H67.1769ZM64.4886 35.8946C65.7769 35.8946 66.6494 36.5539 66.6595 37.5785C66.6494 38.593 65.7769 39.2422 64.4886 39.2422C63.1901 39.2422 62.3075 38.593 62.3177 37.5785C62.3075 36.5539 63.1901 35.8946 64.4886 35.8946ZM64.4886 36.5235C63.6364 36.5235 63.0684 36.9394 63.0785 37.5785C63.0684 38.2176 63.6364 38.6234 64.4886 38.6133C65.3306 38.6234 65.8987 38.2176 65.9088 37.5785C65.8987 36.9394 65.3306 36.5235 64.4886 36.5235ZM69.2464 41.7885V42.4581H63.1901V39.8611H63.9712V41.7885H69.2464ZM80.8416 33.6323V38.9785H80.0402V37.5583H77.9301V38.3292H73.7911V34.3221H77.9301V35.1033H80.0402V33.6323H80.8416ZM74.5824 34.9714V37.68H77.149V34.9714H74.5824ZM77.8489 39.2422C79.7257 39.2422 80.872 39.8611 80.872 40.9465C80.872 42.0218 79.7257 42.6305 77.8489 42.6305C75.9722 42.6305 74.8259 42.0218 74.8259 40.9465C74.8259 39.8611 75.9722 39.2422 77.8489 39.2422ZM77.8489 39.8611C76.4693 39.8712 75.607 40.2668 75.6171 40.9465C75.607 41.5958 76.4693 42.0016 77.8489 42.0016C79.2286 42.0016 80.0807 41.5958 80.0807 40.9465C80.0807 40.2668 79.2286 39.8712 77.8489 39.8611ZM77.9301 36.8887H80.0402V35.7627H77.9301V36.8887ZM85.295 34.2917C86.7153 34.2917 87.7196 35.154 87.7196 36.4119C87.7196 37.6698 86.7153 38.5321 85.295 38.5321C83.8748 38.5321 82.8502 37.6698 82.8603 36.4119C82.8502 35.154 83.8748 34.2917 85.295 34.2917ZM85.295 34.9917C84.3313 34.9917 83.6313 35.5699 83.6415 36.4119C83.6313 37.2539 84.3313 37.8322 85.295 37.8322C86.2486 37.8322 86.9384 37.2539 86.9384 36.4119C86.9384 35.5699 86.2486 34.9917 85.295 34.9917ZM89.7383 33.6323V42.6711H88.9471V33.6323H89.7383ZM82.3937 40.0031C84.0574 40.0031 86.3501 39.9929 88.3485 39.6988L88.4094 40.2871C86.3501 40.6726 84.1284 40.6828 82.5053 40.6828L82.3937 40.0031ZM96.6163 35.4279C96.6163 36.4221 97.3163 37.4365 98.4728 37.8727L98.0568 38.4814C97.1895 38.1466 96.5656 37.5025 96.241 36.7264C95.9062 37.5887 95.262 38.3546 94.3744 38.735L93.9382 38.1162C95.1251 37.5988 95.8555 36.4322 95.8555 35.4279V34.2004H96.6163V35.4279ZM101.587 33.6425V39.2118H100.826V36.7264H99.6292V38.9278H98.8785V33.8149H99.6292V36.067H100.826V33.6425H101.587ZM98.6046 39.4147C100.471 39.4147 101.638 40.0031 101.638 41.0277C101.638 42.0421 100.471 42.6305 98.6046 42.6305C96.7279 42.6305 95.5714 42.0421 95.5816 41.0277C95.5714 40.0031 96.7279 39.4147 98.6046 39.4147ZM98.6046 40.0234C97.225 40.0234 96.3627 40.3987 96.3728 41.0277C96.3627 41.6465 97.225 42.0117 98.6046 42.0117C99.9742 42.0117 100.836 41.6465 100.847 41.0277C100.836 40.3987 99.9742 40.0234 98.6046 40.0234ZM110.636 33.6323V42.6508H109.865V33.6323H110.636ZM108.82 33.8251V42.1943H108.059V37.8119H106.903C106.817 39.5669 106.071 40.6625 104.955 40.6625C103.778 40.6625 103.018 39.4451 103.018 37.5278C103.018 35.6105 103.778 34.3932 104.955 34.3932C106.051 34.3932 106.791 35.4533 106.893 37.1525H108.059V33.8251H108.82ZM104.955 35.1439C104.225 35.1439 103.758 36.0569 103.768 37.5278C103.758 38.9886 104.225 39.9118 104.955 39.9016C105.686 39.9118 106.152 38.9886 106.152 37.5278C106.152 36.0569 105.686 35.1439 104.955 35.1439ZM119.178 36.3713V37.0104H113V33.9671H113.791V36.3713H119.178ZM120.131 38.2379V38.8872H111.874V38.2379H120.131ZM119.228 41.7682V42.4276H112.949V39.8103H113.74V41.7682H119.228ZM131.716 38.4104V39.0596H128.044V40.8248H127.253V39.0596H123.459V38.4104H131.716ZM130.793 41.7885V42.4581H124.514V39.9929H125.305V41.7885H130.793ZM125.356 33.9265V35.083H129.819V33.9265H130.611V37.5278H124.565V33.9265H125.356ZM125.356 36.8786H129.819V35.6917H125.356V36.8786ZM139.923 33.6323V38.9785H139.122V37.5583H137.012V38.3292H132.873V34.3221H137.012V35.1033H139.122V33.6323H139.923ZM133.664 34.9714V37.68H136.231V34.9714H133.664ZM136.931 39.2422C138.807 39.2422 139.954 39.8611 139.954 40.9465C139.954 42.0218 138.807 42.6305 136.931 42.6305C135.054 42.6305 133.908 42.0218 133.908 40.9465C133.908 39.8611 135.054 39.2422 136.931 39.2422ZM136.931 39.8611C135.551 39.8712 134.689 40.2668 134.699 40.9465C134.689 41.5958 135.551 42.0016 136.931 42.0016C138.31 42.0016 139.162 41.5958 139.162 40.9465C139.162 40.2668 138.31 39.8712 136.931 39.8611ZM137.012 36.8887H139.122V35.7627H137.012V36.8887ZM146.984 34.2917C148.404 34.2917 149.408 35.154 149.408 36.4119C149.408 37.6698 148.404 38.5321 146.984 38.5321C145.564 38.5321 144.539 37.6698 144.549 36.4119C144.539 35.154 145.564 34.2917 146.984 34.2917ZM146.984 34.9917C146.02 34.9917 145.32 35.5699 145.33 36.4119C145.32 37.2539 146.02 37.8322 146.984 37.8322C147.938 37.8322 148.627 37.2539 148.627 36.4119C148.627 35.5699 147.938 34.9917 146.984 34.9917ZM151.427 33.6323V42.6711H150.636V33.6323H151.427ZM144.083 40.0031C145.746 40.0031 148.039 39.9929 150.037 39.6988L150.098 40.2871C148.039 40.6726 145.817 40.6828 144.194 40.6828L144.083 40.0031ZM157.707 34.525V40.3886H153.537V34.525H157.707ZM154.318 35.1641V39.7393H156.926V35.1641H154.318ZM160.446 33.6323V42.6711H159.644V33.6323H160.446ZM168.967 33.6323V37.3046H170.428V37.9742H168.967V42.6508H168.176V33.6323H168.967ZM166.634 34.6062C166.634 37.1626 165.437 39.4857 162.495 40.9364L162.049 40.3074C164.382 39.1459 165.65 37.4112 165.832 35.2757H162.464V34.6062H166.634ZM176.626 39.6886C176.626 40.485 177.052 41.332 177.915 41.819C178.767 41.2864 179.223 40.3886 179.223 39.6886V39.1915H180.004V39.6886C180.004 40.6118 180.684 41.5451 181.841 41.9407L181.445 42.5291C180.542 42.2095 179.908 41.5806 179.599 40.8248C179.32 41.5552 178.767 42.245 177.935 42.6001C177.057 42.2653 176.499 41.6008 176.231 40.8451C175.911 41.5755 175.287 42.2044 174.425 42.5291L174.019 41.9407C175.155 41.5146 175.845 40.5509 175.855 39.6886V39.1915H176.626V39.6886ZM181.019 33.6425V38.7959H180.228V33.6425H181.019ZM176.149 34.17C177.519 34.17 178.513 35.0221 178.513 36.28C178.513 37.5177 177.519 38.3698 176.149 38.3698C174.78 38.3698 173.786 37.5177 173.786 36.28C173.786 35.0221 174.78 34.17 176.149 34.17ZM176.149 34.8497C175.226 34.8395 174.557 35.438 174.567 36.28C174.557 37.1119 175.226 37.7003 176.149 37.7104C177.062 37.7003 177.732 37.1119 177.732 36.28C177.732 35.438 177.062 34.8395 176.149 34.8497ZM184.387 39.0495V40.1045H188.891V39.0495H189.692V42.5291H183.596V39.0495H184.387ZM184.387 41.89H188.891V40.7335H184.387V41.89ZM190.768 37.751V38.4104H182.551V37.751H190.768ZM187.075 34.1598C187.075 35.2757 188.719 36.2699 190.301 36.4728L190.007 37.1119C188.607 36.9039 187.237 36.1887 186.669 35.1743C186.091 36.1938 184.711 36.9039 183.322 37.1119L183.017 36.4728C184.62 36.2598 186.253 35.3062 186.253 34.1598V33.7338H187.075V34.1598ZM198.964 33.6323V42.6508H198.173V33.6323H198.964ZM192.898 34.525V39.6379C194.273 39.6328 195.698 39.5212 197.209 39.2017L197.321 39.8814C195.718 40.2161 194.288 40.3277 192.847 40.3277H192.117V34.525H192.898ZM207.486 33.6323V37.2032H208.997V37.8727H207.486V42.6711H206.695V33.6323H207.486ZM205.112 34.5149V35.1743H201.693V39.7393C203.327 39.7393 204.483 39.6632 205.822 39.4147L205.924 40.1045C204.514 40.3581 203.327 40.4089 201.612 40.4089H200.902V34.5149H205.112ZM210.438 41.89C210.083 41.89 209.779 41.5958 209.789 41.2306C209.779 40.8755 210.083 40.5813 210.438 40.5813C210.793 40.5813 211.087 40.8755 211.087 41.2306C211.087 41.5958 210.793 41.89 210.438 41.89ZM46.9487 48.6323V51.3206H48.3182V51.9902H46.9487V55.1654H46.1574V48.6323H46.9487ZM44.3416 49.4134V50.083H41.1156V52.893C42.9264 52.893 43.9561 52.8474 45.1633 52.5988L45.2647 53.2582C43.9966 53.5017 42.9213 53.5626 41.0243 53.5626H40.3243V49.4134H44.3416ZM47.3646 56.7885V57.4581H41.3083V54.506H42.0895V56.7885H47.3646ZM53.4006 49.3221C53.4006 50.4989 55.044 51.5742 56.6063 51.8177L56.2918 52.4467C54.9223 52.2133 53.568 51.4525 52.9948 50.3975C52.4267 51.4728 51.0572 52.2235 49.6877 52.4568L49.3732 51.8278C50.9456 51.5844 52.5789 50.5395 52.5789 49.3221V48.8656H53.4006V49.3221ZM57.1237 53.2278V53.8872H53.4513V55.7335H52.6601V53.8872H48.866V53.2278H57.1237ZM56.2005 56.7885V57.4581H49.921V54.8509H50.7225V56.7885H56.2005ZM65.29 48.6323V57.6508H64.4886V48.6323H65.29ZM63.5147 50.1033V50.7525H58.057V50.1033H60.3801V48.7236H61.1815V50.1033H63.5147ZM60.8061 51.4931C62.1046 51.4931 63.0379 52.3452 63.0379 53.5626C63.0379 54.7799 62.1046 55.632 60.8061 55.632C59.4975 55.632 58.554 54.7799 58.5642 53.5626C58.554 52.3452 59.4975 51.4931 60.8061 51.4931ZM60.8061 52.1626C59.9438 52.1626 59.3149 52.751 59.3149 53.5626C59.3149 54.3843 59.9438 54.9625 60.8061 54.9524C61.6583 54.9625 62.2771 54.3843 62.2771 53.5626C62.2771 52.751 61.6583 52.1626 60.8061 52.1626ZM76.9258 49.0077V49.6569H74.065C74.0752 50.6815 75.607 51.4931 77.1997 51.6757L76.9055 52.3046C75.4295 52.117 74.0447 51.4576 73.5477 50.4482C73.0556 51.4576 71.676 52.117 70.2 52.3046L69.9058 51.6757C71.4883 51.4931 73.01 50.6815 73.0303 49.6569H70.1898V49.0077H76.9258ZM77.6866 52.8829V53.5423H73.9331V54.7292H76.6417V57.6508H75.8403V55.3784H70.3521V54.7292H73.152V53.5423H69.4391V52.8829H77.6866ZM81.5213 54.6785C81.5213 55.485 81.9473 56.3371 82.8096 56.8291C83.6719 56.2914 84.1183 55.3734 84.1183 54.6785V54.1307H84.8994V54.6785C84.8994 55.6118 85.5689 56.5451 86.7457 56.9407L86.3298 57.5392C85.432 57.2146 84.803 56.5806 84.5037 55.8146C84.2146 56.5552 83.6618 57.2501 82.8198 57.6102C81.9524 57.2805 81.3995 56.611 81.1256 55.8552C80.801 56.5806 80.1822 57.2095 79.3199 57.5392L78.9243 56.9407C80.0706 56.5248 80.7503 55.5509 80.7604 54.6785V54.1307H81.5213V54.6785ZM80.9024 49.1497C82.0893 49.1497 83.0176 49.8598 83.1951 50.9047H85.0921V48.6323H85.8935V53.7857H85.0921V51.5641H83.2052C83.048 52.6445 82.1096 53.3698 80.9024 53.3698C79.5532 53.3698 78.5692 52.5075 78.5692 51.2598C78.5692 50.0221 79.5532 49.1497 80.9024 49.1497ZM80.9024 49.8294C79.9996 49.8192 79.33 50.4178 79.3402 51.2598C79.33 52.0916 79.9996 52.7003 80.9024 52.7104C81.785 52.7003 82.4546 52.0916 82.4546 51.2598C82.4546 50.4178 81.785 49.8192 80.9024 49.8294ZM94.3744 48.6323V52.2032H95.8859V52.8727H94.3744V57.6711H93.5831V48.6323H94.3744ZM92.0006 49.5149V50.1743H88.5819V54.7393C90.2151 54.7393 91.3716 54.6632 92.7107 54.4147L92.8121 55.1045C91.402 55.3581 90.2151 55.4089 88.5007 55.4089H87.7906V49.5149H92.0006ZM103.667 51.3713V52.0104H97.4887V48.9671H98.28V51.3713H103.667ZM104.62 53.2379V53.8872H96.3627V53.2379H104.62ZM103.717 56.7682V57.4276H97.438V54.8103H98.2293V56.7682H103.717ZM115.008 48.6425V51.6148H116.368V52.2844H115.008V55.3987H114.217V48.6425H115.008ZM113.355 49.7482V50.3975H107.978V49.7482H110.271V48.6425H111.062V49.7482H113.355ZM110.666 50.8946C111.955 50.8946 112.827 51.5539 112.837 52.5785C112.827 53.593 111.955 54.2422 110.666 54.2422C109.368 54.2422 108.485 53.593 108.496 52.5785C108.485 51.5539 109.368 50.8946 110.666 50.8946ZM110.666 51.5235C109.814 51.5235 109.246 51.9394 109.256 52.5785C109.246 53.2176 109.814 53.6234 110.666 53.6133C111.508 53.6234 112.077 53.2176 112.087 52.5785C112.077 51.9394 111.508 51.5235 110.666 51.5235ZM115.424 56.7885V57.4581H109.368V54.8611H110.149V56.7885H115.424ZM121.47 49.5453V55.3581H117.311V49.5453H121.47ZM118.082 50.1844V54.7089H120.679V50.1844H118.082ZM123.915 48.6323V52.2336H125.427V52.9235H123.915V57.6508H123.124V48.6323H123.915ZM133.35 48.6323V57.6711H132.548V48.6323H133.35ZM130.793 49.4946V50.1641H127.304V54.7393C129.059 54.7393 130.215 54.6835 131.564 54.4451L131.645 55.1147C130.245 55.3683 129.059 55.419 127.233 55.4292H126.502V49.4946H130.793ZM142.622 48.6323V57.6508H141.851V48.6323H142.622ZM140.806 48.8251V57.1943H140.045V52.8119H138.889C138.802 54.5669 138.057 55.6625 136.941 55.6625C135.764 55.6625 135.003 54.4451 135.003 52.5278C135.003 50.6105 135.764 49.3932 136.941 49.3932C138.036 49.3932 138.777 50.4533 138.878 52.1525H140.045V48.8251H140.806ZM136.941 50.1439C136.21 50.1439 135.744 51.0569 135.754 52.5278C135.744 53.9886 136.21 54.9118 136.941 54.9016C137.671 54.9118 138.138 53.9886 138.138 52.5278C138.138 51.0569 137.671 50.1439 136.941 50.1439ZM147.045 51.0569C147.045 52.6901 148.09 54.3335 149.398 54.9321L148.922 55.5813C147.897 55.0538 147.05 53.9734 146.649 52.6901C146.248 54.0394 145.401 55.1958 144.377 55.7436L143.859 55.1045C145.178 54.4553 146.233 52.7206 146.233 51.0569V49.4134H147.045V51.0569ZM151.346 48.6323V57.6711H150.555V52.3655H148.414V51.7163H150.555V48.6323H151.346ZM162.759 52.7206V53.38H156.469V49.4236H157.27V52.7206H162.759ZM163.712 55.7335V56.403H155.455V55.7335H163.712ZM167.172 49.1395C167.161 50.8946 166.431 51.9699 165.072 52.893L164.544 52.3858C165.579 51.7163 166.233 51.0112 166.38 49.7989H164.737V49.1395H167.172ZM169.758 49.1395C169.748 50.9148 169.221 52.2133 167.75 53.3089L167.192 52.822C168.353 52.0003 168.876 51.0974 168.987 49.7989H167.506V49.1395H169.758ZM171.868 48.6323V53.2481H171.067V48.6323H171.868ZM171.879 53.6742V55.8654H166.776V56.89H172.234V57.5291H166.015V55.2466H171.087V54.3133H165.985V53.6742H171.879ZM180.542 49.4743C180.542 50.7424 182.206 51.8481 183.829 52.0713L183.504 52.7206C182.104 52.4872 180.72 51.7112 180.136 50.6004C179.558 51.7163 178.168 52.4872 176.768 52.7206L176.444 52.0713C178.067 51.8481 179.72 50.7627 179.72 49.4743V48.9569H180.542V49.4743ZM184.235 53.7147V54.3843H180.501V57.6508H179.72V54.3843H176.018V53.7147H184.235ZM189.398 53.9278V55.0538H191.042V53.9278H191.782V57.5291H188.648V53.9278H189.398ZM189.398 56.9001H191.042V55.6625H189.398V56.9001ZM194.359 54.6379C194.349 55.5915 194.917 56.5856 196.023 56.9914L195.607 57.6001C194.775 57.2653 194.227 56.6313 193.953 55.8755C193.664 56.6161 193.116 57.2552 192.32 57.6001L191.904 56.9914C192.989 56.5451 193.568 55.5509 193.568 54.6379V53.8669H194.359V54.6379ZM190.088 49.0381C191.295 49.0381 192.218 49.7229 192.391 50.7627H194.278V48.6323H195.079V53.4104H194.278V51.4221H192.401C192.239 52.4872 191.31 53.1872 190.088 53.1872C188.719 53.1872 187.745 52.3452 187.745 51.1076C187.745 49.8801 188.719 49.0381 190.088 49.0381ZM190.088 49.7076C189.165 49.7076 188.505 50.2859 188.505 51.1076C188.505 51.9394 189.165 52.5278 190.088 52.5278C191.001 52.5278 191.65 51.9394 191.65 51.1076C191.65 50.2859 191.001 49.7076 190.088 49.7076ZM203.874 51.3713V52.0104H197.696V48.9671H198.488V51.3713H203.874ZM204.828 53.2379V53.8872H196.57V53.2379H204.828ZM203.925 56.7682V57.4276H197.646V54.8103H198.437V56.7682H203.925ZM92.6092 64.5961V65.4989C92.6092 66.6351 92.6092 67.9235 92.2745 69.8814L91.4629 69.8002C91.8281 67.9539 91.8281 66.6047 91.8281 65.4989V65.2554H86.3906V64.5961H92.6092ZM93.715 70.6625V71.3219H85.4979V70.6625H93.715ZM102.703 67.4264V68.0655H94.4758V67.4264H102.703ZM101.719 66.0366V66.6858H95.5714V63.9468H101.628V64.5859H96.3728V66.0366H101.719ZM101.638 68.877V70.9668H96.2815V71.9001H101.912V72.5494H95.4903V70.3683H100.857V69.4959H95.47V68.877H101.638ZM106.406 64.2917C107.826 64.2917 108.83 65.154 108.83 66.4119C108.83 67.6698 107.826 68.5321 106.406 68.5321C104.986 68.5321 103.961 67.6698 103.971 66.4119C103.961 65.154 104.986 64.2917 106.406 64.2917ZM106.406 64.9917C105.442 64.9917 104.742 65.5699 104.752 66.4119C104.742 67.2539 105.442 67.8322 106.406 67.8322C107.359 67.8322 108.049 67.2539 108.049 66.4119C108.049 65.5699 107.359 64.9917 106.406 64.9917ZM110.849 63.6323V72.6711H110.058V63.6323H110.849ZM103.504 70.0031C105.168 70.0031 107.461 69.9929 109.459 69.6988L109.52 70.2871C107.461 70.6726 105.239 70.6828 103.616 70.6828L103.504 70.0031ZM122.252 69.5669V72.5291H116.043V69.5669H118.752V68.451H115.039V67.7814H123.256V68.451H119.543V69.5669H122.252ZM116.834 70.206V71.8798H121.47V70.206H116.834ZM119.563 64.1497C119.563 65.2757 121.207 66.28 122.789 66.4829L122.495 67.1119C121.095 66.9039 119.726 66.1887 119.157 65.1743C118.579 66.1989 117.2 66.9039 115.81 67.1119L115.505 66.4829C117.108 66.2699 118.742 65.296 118.742 64.1497V63.7236H119.563V64.1497ZM131.493 63.6323V68.2481H130.692V67.3046H128.288V66.6757H130.692V65.5902H128.419C127.851 67.0155 126.451 67.9742 124.453 68.451L124.169 67.7916C126.38 67.2793 127.669 66.1989 127.821 64.7482H124.625V64.0888H128.693C128.693 64.3881 128.663 64.6772 128.612 64.9511H130.692V63.6323H131.493ZM131.493 68.6539V70.8552H126.462V71.9103H131.798V72.5697H125.67V70.2466H130.692V69.3031H125.65V68.6539H131.493ZM140.441 63.6323V68.4713H139.649V63.6323H140.441ZM135.389 68.9278V70.0234H139.649V68.9278H140.441V72.5291H134.597V68.9278H135.389ZM135.389 71.8798H139.649V70.6625H135.389V71.8798ZM135.571 64.0787C136.941 64.0685 137.935 64.9105 137.935 66.1482C137.935 67.3757 136.941 68.2176 135.571 68.2176C134.202 68.2176 133.208 67.3757 133.208 66.1482C133.208 64.9105 134.202 64.0685 135.571 64.0787ZM135.571 64.7482C134.648 64.7381 133.979 65.3265 133.989 66.1482C133.979 66.9699 134.648 67.5583 135.571 67.5583C136.484 67.5583 137.154 66.9699 137.154 66.1482C137.154 65.3265 136.484 64.7381 135.571 64.7482ZM149.408 63.6323V72.6508H148.617V63.6323H149.408ZM143.342 64.525V69.6379C144.717 69.6328 146.142 69.5212 147.653 69.2017L147.765 69.8814C146.162 70.2161 144.732 70.3277 143.291 70.3277H142.561V64.525H143.342ZM157.93 63.6323V67.2032H159.441V67.8727H157.93V72.6711H157.139V63.6323H157.93ZM155.556 64.5149V65.1743H152.137V69.7393C153.771 69.7393 154.927 69.6632 156.266 69.4147L156.368 70.1045C154.958 70.3581 153.771 70.4089 152.056 70.4089H151.346V64.5149H155.556ZM160.882 71.89C160.527 71.89 160.223 71.5958 160.233 71.2306C160.223 70.8755 160.527 70.5813 160.882 70.5813C161.237 70.5813 161.531 70.8755 161.531 71.2306C161.531 71.5958 161.237 71.89 160.882 71.89Z" fill="#252627"/>
<path d="M230.713 42.8165V44.3896C230.713 47.3279 229.585 49.1087 227.062 49.4945V48.248C228.101 47.9512 228.635 47.0311 228.546 45.6955H226.766V42.1636H230.06C230.476 42.1636 230.713 42.3713 230.713 42.8165ZM235.462 42.8165V44.3896C235.462 47.3279 234.334 49.1087 231.811 49.4945V48.248C232.85 47.9512 233.384 47.0311 233.295 45.6955H231.514V42.1636H234.809C235.224 42.1636 235.462 42.3713 235.462 42.8165Z" fill="#9EA0A2"/>
</svg>
