<svg width="248" height="62" viewBox="0 0 248 62" fill="none" xmlns="http://www.w3.org/2000/svg">
<rect x="0.371" y="0.371" width="246.591" height="60.9167" rx="5.565" fill="white"/>
<rect x="0.371" y="0.371" width="246.591" height="60.9167" rx="5.565" stroke="#E8E8E8" stroke-width="0.742"/>
<path d="M16.6199 33.8416V32.2685C16.6199 29.3302 17.7477 27.5494 20.2705 27.1636V28.4101C19.2317 28.7069 18.6975 29.627 18.7865 30.9626H20.5673V34.4945H17.2729C16.8573 34.4945 16.6199 34.2868 16.6199 33.8416ZM11.8711 33.8416V32.2685C11.8711 29.3302 12.9989 27.5494 15.5217 27.1636V28.4101C14.4829 28.7069 13.9487 29.627 14.0377 30.9626H15.8185V34.4945H12.5241C12.1085 34.4945 11.8711 34.2868 11.8711 33.8416Z" fill="#9EA0A2"/>
<path d="M62.8807 23.0959V23.735H54.6535V23.0959H58.3765V22.0409H55.6984V19.0584H61.8561V19.6975H56.4795V21.3916H61.9169V22.0409H59.1475V23.0959H62.8807ZM58.762 24.3944C60.6996 24.3944 61.8561 24.9828 61.8662 26.0175C61.8561 27.0624 60.6996 27.6407 58.762 27.6508C56.8142 27.6407 55.6476 27.0624 55.6476 26.0175C55.6476 24.9828 56.8142 24.3944 58.762 24.3944ZM58.762 25.0234C57.3113 25.0234 56.449 25.3987 56.4592 26.0175C56.449 26.6465 57.3113 27.0117 58.762 27.0117C60.1924 27.0117 61.0648 26.6465 61.0648 26.0175C61.0648 25.3987 60.1924 25.0234 58.762 25.0234ZM71.889 25.8654V26.5349H63.6314V25.8654H65.9545V24.1509H64.6661V21.3713H70.063V19.9613H64.6458V19.3019H70.8441V22.0307H65.4574V23.4916H71.0572V24.1509H69.6471V25.8654H71.889ZM66.7356 25.8654H68.866V24.1509H66.7356V25.8654ZM79.5887 18.6323V22.3046H81.0495V22.9742H79.5887V27.6508H78.7974V18.6323H79.5887ZM77.2555 19.6062C77.2555 22.1626 76.0584 24.4857 73.1165 25.9364L72.6701 25.3074C75.0034 24.1459 76.2715 22.4112 76.4541 20.2757H73.0861V19.6062H77.2555ZM91.3665 19.028V19.6671C91.3665 20.3467 91.3665 21.1786 91.1433 22.2539H92.452V22.9032H88.6884V24.3234C90.4129 24.3944 91.4375 24.9828 91.4477 25.9668C91.4375 27.0421 90.2608 27.6305 88.3029 27.6305C86.3247 27.6305 85.1378 27.0421 85.1378 25.9668C85.1378 24.9828 86.1675 24.3995 87.9072 24.3234V22.9032H84.1943V22.2539H90.3419C90.5752 21.1583 90.5752 20.362 90.5752 19.6772H85.2392V19.028H91.3665ZM88.3029 24.9524C86.8319 24.9625 85.9392 25.3277 85.9493 25.9668C85.9392 26.6161 86.8319 26.9914 88.3029 26.9914C89.7434 26.9914 90.6361 26.6161 90.6463 25.9668C90.6361 25.3277 89.7434 24.9625 88.3029 24.9524ZM96.3982 21.4018C96.3982 22.9336 97.5141 24.4857 98.843 25.064L98.3967 25.6929C97.3417 25.211 96.4286 24.1712 96.0127 22.9235C95.5866 24.2473 94.6787 25.3987 93.649 25.9161L93.1722 25.2871C94.4606 24.6683 95.5866 22.964 95.5968 21.4018V20.225H93.4664V19.5656H98.5488V20.225H96.3982V21.4018ZM100.608 18.6323V27.6508H99.8068V18.6323H100.608ZM109.88 18.6323V27.6508H109.109V18.6323H109.88ZM108.064 18.8251V27.1943H107.304V22.8119H106.147C106.061 24.5669 105.315 25.6625 104.199 25.6625C103.023 25.6625 102.262 24.4451 102.262 22.5278C102.262 20.6105 103.023 19.3932 104.199 19.3932C105.295 19.3932 106.036 20.4533 106.137 22.1525H107.304V18.8251H108.064ZM104.199 20.1439C103.469 20.1439 103.002 21.0569 103.012 22.5278C103.002 23.9886 103.469 24.9118 104.199 24.9016C104.93 24.9118 105.396 23.9886 105.396 22.5278C105.396 21.0569 104.93 20.1439 104.199 20.1439ZM121.952 22.5785V23.2379H113.735V22.5785H117.438V21.6858H114.8V18.9367H120.887V21.6858H118.219V22.5785H121.952ZM115.592 19.5758V21.0467H120.096V19.5758H115.592ZM120.897 23.9886V26.0074H115.541V26.9204H121.171V27.5494H114.75V25.4089H120.116V24.6074H114.729V23.9886H120.897ZM126.994 19.099V21.625H123.89V22.9742C125.564 22.9742 126.446 22.9387 127.522 22.751L127.603 23.4003C126.456 23.6031 125.533 23.6336 123.738 23.6234H123.099V21.0061H126.203V19.7584H123.078V19.099H126.994ZM130.19 18.6425V24.0495H129.388V22.4365H127.603V21.7873H129.388V20.5496H127.603V19.9004H129.388V18.6425H130.19ZM125.787 24.8002C125.787 25.6067 126.213 26.469 127.075 26.961C127.938 26.4233 128.384 25.5052 128.384 24.8002V24.2727H129.165V24.8002C129.165 25.7436 129.835 26.6769 131.001 27.0726L130.595 27.6711C129.698 27.3465 129.069 26.7074 128.759 25.9465C128.48 26.682 127.932 27.382 127.085 27.7421C126.218 27.4023 125.665 26.7327 125.391 25.977C125.067 26.7124 124.448 27.3465 123.596 27.6711L123.18 27.0726C124.316 26.6566 125.026 25.6828 125.026 24.8002V24.2727H125.787V24.8002ZM135.8 18.7946C137.808 18.7946 138.985 19.3424 138.985 20.3467C138.985 21.3713 137.808 21.9191 135.8 21.9293C133.791 21.9191 132.604 21.3713 132.604 20.3467C132.604 19.3424 133.791 18.7946 135.8 18.7946ZM135.8 19.3932C134.298 19.3932 133.426 19.7584 133.436 20.3467C133.426 20.9757 134.298 21.3206 135.8 21.3206C137.291 21.3206 138.173 20.9757 138.173 20.3467C138.173 19.7584 137.291 19.3932 135.8 19.3932ZM139.908 22.538V23.1872H131.691V22.538H139.908ZM138.853 23.9683V25.9871H133.497V26.9204H139.127V27.5494H132.705V25.3987H138.072V24.577H132.685V23.9683H138.853ZM149.272 18.8149V21.28H150.316V18.6323H151.077V25.3379H150.316V21.9293H149.272V25.0437H148.521V18.8149H149.272ZM145.457 19.5149V20.1641H144.301V22.9843C144.641 22.9793 145.077 22.9387 145.559 22.822L145.64 23.4814C144.879 23.6539 144.291 23.6539 143.905 23.6539H143.56V19.5149H145.457ZM147.892 19.5149V20.1641H146.664V22.9843C147.05 22.9843 147.516 22.9488 148.044 22.8119L148.135 23.4814C147.374 23.6539 146.766 23.6539 146.289 23.6539H145.914V19.5149H147.892ZM151.331 26.7885V27.4581H144.98V24.5567H145.782V26.7885H151.331ZM162.145 22.8626V23.5118H159.355V25.8451H163.119V26.5146H154.861V25.8451H158.574V23.5118H155.916V19.3729H162.054V20.0221H156.718V22.8626H162.145ZM166.558 19.2207C167.948 19.2308 168.952 20.083 168.962 21.3409C168.952 22.472 168.14 23.2785 166.964 23.4205V24.9625C167.806 24.9219 168.653 24.8611 169.439 24.7596L169.49 25.3581C167.582 25.6828 165.442 25.7031 163.859 25.6929L163.727 25.0234C164.453 25.0183 165.295 25.0132 166.162 24.9828V23.4205C164.965 23.2836 164.143 22.4771 164.154 21.3409C164.143 20.083 165.148 19.2308 166.558 19.2207ZM166.558 19.9105C165.614 19.9105 164.925 20.4989 164.935 21.3409C164.925 22.1829 165.614 22.7713 166.558 22.7713C167.491 22.7713 168.171 22.1829 168.181 21.3409C168.171 20.4989 167.491 19.9105 166.558 19.9105ZM170.808 18.6323V22.3554H172.279V23.0452H170.808V27.6508H170.017V18.6323H170.808ZM177.443 19.7584C177.433 20.8641 178.954 21.767 180.547 21.9902L180.233 22.6191C178.777 22.4112 177.417 21.6808 176.925 20.6206C176.439 21.6808 175.084 22.4112 173.618 22.6191L173.324 21.9902C174.917 21.767 176.408 20.8641 176.408 19.7584V19.7381H173.568V19.0888H180.304V19.7381H177.443V19.7584ZM181.064 23.2785V23.9379H177.392V25.7842H176.601V23.9379H172.807V23.2785H181.064ZM180.141 26.7885V27.4581H173.862V24.8814H174.663V26.7885H180.141ZM188.774 18.6323V22.2032H190.286V22.8727H188.774V27.6711H187.983V18.6323H188.774ZM186.4 19.5149V20.1743H182.982V24.7393C184.615 24.7393 185.772 24.6632 187.111 24.4147L187.212 25.1045C185.802 25.3581 184.615 25.4089 182.901 25.4089H182.191V19.5149H186.4ZM191.726 26.89C191.371 26.89 191.067 26.5958 191.077 26.2306C191.067 25.8755 191.371 25.5813 191.726 25.5813C192.081 25.5813 192.376 25.8755 192.376 26.2306C192.376 26.5958 192.081 26.89 191.726 26.89ZM50.6362 33.6323V42.6711H49.8348V33.6323H50.6362ZM45.8379 34.3323C47.1769 34.3424 48.1407 35.5598 48.1407 37.4771C48.1407 39.3944 47.1769 40.6118 45.8379 40.6118C44.4886 40.6118 43.5351 39.3944 43.5351 37.4771C43.5351 35.5598 44.4886 34.3424 45.8379 34.3323ZM45.8379 35.0424C44.935 35.0526 44.306 36.0061 44.306 37.4771C44.306 38.9481 44.935 39.9016 45.8379 39.9016C46.7407 39.9016 47.3697 38.9481 47.3697 37.4771C47.3697 36.0061 46.7407 35.0526 45.8379 35.0424ZM57.4635 36.1989C57.4635 37.6293 58.1635 39.1814 59.3605 39.8915L58.904 40.5103C58.0367 39.9828 57.4128 39.0191 57.0983 37.9235C56.7635 39.1205 56.094 40.1502 55.1911 40.7031L54.6839 40.1045C55.9317 39.3741 56.6925 37.7713 56.6925 36.2293V34.4845H57.4635V36.1989ZM62.5155 33.6323V42.6508H61.7445V33.6323H62.5155ZM60.6489 33.8251V42.1943H59.8982V37.5481H58.3664V36.8684H59.8982V33.8251H60.6489ZM66.7762 35.0931C66.7762 36.3206 67.7095 37.4467 69.0181 37.893L68.5819 38.522C67.5827 38.1568 66.7965 37.4112 66.4008 36.4728C66.0153 37.5329 65.2139 38.3698 64.1589 38.7756L63.7328 38.1365C65.082 37.6293 65.9849 36.4221 65.995 35.0323V34.099H66.7762V35.0931ZM70.8137 33.6323V35.9859H72.1731V36.6554H70.8137V39.1205H70.0224V33.6323H70.8137ZM67.9225 39.3538C69.779 39.3538 70.8949 39.9524 70.8949 40.9871C70.8949 42.0421 69.779 42.6305 67.9225 42.6305C66.0661 42.6305 64.9299 42.0421 64.9299 40.9871C64.9299 39.9524 66.0661 39.3538 67.9225 39.3538ZM67.9225 39.9929C66.5631 39.9929 65.7211 40.3683 65.7313 40.9871C65.7211 41.6262 66.5631 41.9914 67.9225 42.0016C69.292 41.9914 70.1239 41.6262 70.1239 40.9871C70.1239 40.3683 69.292 39.9929 67.9225 39.9929ZM80.4713 33.6323V42.6508H79.7003V33.6323H80.4713ZM78.6554 33.8251V42.1943H77.8946V37.8119H76.7381C76.6519 39.5669 75.9063 40.6625 74.7904 40.6625C73.6136 40.6625 72.8528 39.4451 72.8528 37.5278C72.8528 35.6105 73.6136 34.3932 74.7904 34.3932C75.886 34.3932 76.6265 35.4533 76.728 37.1525H77.8946V33.8251H78.6554ZM74.7904 35.1439C74.0599 35.1439 73.5933 36.0569 73.6034 37.5278C73.5933 38.9886 74.0599 39.9118 74.7904 39.9016C75.5208 39.9118 75.9874 38.9886 75.9874 37.5278C75.9874 36.0569 75.5208 35.1439 74.7904 35.1439ZM91.7622 33.6323V42.6711H90.9607V33.6323H91.7622ZM86.9638 34.3323C88.3029 34.3424 89.2666 35.5598 89.2666 37.4771C89.2666 39.3944 88.3029 40.6118 86.9638 40.6118C85.6146 40.6118 84.661 39.3944 84.661 37.4771C84.661 35.5598 85.6146 34.3424 86.9638 34.3323ZM86.9638 35.0424C86.0609 35.0526 85.432 36.0061 85.432 37.4771C85.432 38.9481 86.0609 39.9016 86.9638 39.9016C87.8667 39.9016 88.4956 38.9481 88.4956 37.4771C88.4956 36.0061 87.8667 35.0526 86.9638 35.0424ZM100.781 33.6425V39.7495H99.9792V36.8481H98.001V36.1786H99.9792V33.6425H100.781ZM97.9605 34.3526C97.9503 36.6655 96.4083 38.3292 93.8113 39.1611L93.4563 38.522C95.612 37.8575 96.9409 36.6047 97.1083 35.0018H93.9026V34.3526H97.9605ZM98.2445 39.3741C98.2445 40.6929 99.685 41.6769 101.278 41.961L100.943 42.6001C99.614 42.3414 98.3916 41.6465 97.859 40.5915C97.3061 41.6516 96.0685 42.3566 94.7244 42.6204L94.3997 41.9914C95.9924 41.7175 97.4532 40.7031 97.4634 39.3741V38.9582H98.2445V39.3741ZM110.54 40.8349V41.4943H102.282V40.8349H105.995V38.8872H103.256V34.2714H104.057V35.9047H108.744V34.2714H109.525V38.8872H106.776V40.8349H110.54ZM104.057 38.2379H108.744V36.5539H104.057V38.2379ZM118.239 33.6323V37.2032H119.751V37.8727H118.239V42.6711H117.448V33.6323H118.239ZM115.866 34.5149V35.1743H112.447V39.7393C114.08 39.7393 115.237 39.6632 116.576 39.4147L116.677 40.1045C115.267 40.3581 114.08 40.4089 112.366 40.4089H111.656V34.5149H115.866ZM125.858 35.0931C125.858 36.3206 126.791 37.4467 128.1 37.893L127.664 38.522C126.664 38.1568 125.878 37.4112 125.483 36.4728C125.097 37.5329 124.296 38.3698 123.241 38.7756L122.815 38.1365C124.164 37.6293 125.067 36.4221 125.077 35.0323V34.099H125.858V35.0931ZM129.895 33.6323V35.9859H131.255V36.6554H129.895V39.1205H129.104V33.6323H129.895ZM127.004 39.3538C128.861 39.3538 129.977 39.9524 129.977 40.9871C129.977 42.0421 128.861 42.6305 127.004 42.6305C125.148 42.6305 124.012 42.0421 124.012 40.9871C124.012 39.9524 125.148 39.3538 127.004 39.3538ZM127.004 39.9929C125.645 39.9929 124.803 40.3683 124.813 40.9871C124.803 41.6262 125.645 41.9914 127.004 42.0016C128.374 41.9914 129.206 41.6262 129.206 40.9871C129.206 40.3683 128.374 39.9929 127.004 39.9929ZM135.018 34.941C135.008 36.2598 135.962 37.4264 137.301 37.893L136.895 38.522C135.85 38.1416 135.024 37.3604 134.623 36.3612C134.222 37.4314 133.385 38.2734 132.33 38.6843L131.914 38.0553C133.263 37.5583 134.207 36.3003 134.207 34.941V34.0787H135.018V34.941ZM139.269 39.5161V42.6508H138.478V40.1755H133.203V39.5161H139.269ZM139.269 33.6323V39.0698H138.478V33.6323H139.269ZM143.935 35.296C143.935 36.4728 144.838 37.5887 146.157 38.0452L145.741 38.6742C144.722 38.3089 143.935 37.5532 143.55 36.625C143.159 37.6648 142.328 38.4966 141.257 38.8872L140.841 38.2582C142.17 37.7814 143.134 36.5742 143.134 35.3062V34.9105H141.095V34.2613H145.954V34.9105H143.935V35.296ZM148.277 39.5161V42.6508H147.476V40.1755H142.211V39.5161H148.277ZM148.277 33.6323V39.0394H147.476V36.6655H145.67V35.996H147.476V33.6323H148.277ZM157.225 33.6425V40.2364H156.434V33.6425H157.225ZM157.509 41.7885V42.4581H151.402V39.5669H152.193V41.7885H157.509ZM152.355 34.2714C153.705 34.2714 154.719 35.1844 154.719 36.4829C154.719 37.8017 153.705 38.7046 152.355 38.7046C151.006 38.7046 149.992 37.8017 149.992 36.4829C149.992 35.1844 151.006 34.2714 152.355 34.2714ZM152.355 34.9714C151.442 34.9714 150.763 35.6004 150.773 36.4829C150.763 37.3858 151.442 38.0046 152.355 38.0046C153.248 38.0046 153.938 37.3858 153.938 36.4829C153.938 35.6004 153.248 34.9714 152.355 34.9714ZM163.92 33.9671C165.269 33.9772 166.253 34.7888 166.253 35.9656C166.253 37.1423 165.269 37.9539 163.92 37.9539C162.551 37.9539 161.577 37.1423 161.577 35.9656C161.577 34.7888 162.551 33.9772 163.92 33.9671ZM163.92 34.6366C163.017 34.6366 162.348 35.1844 162.358 35.9656C162.348 36.7568 163.017 37.3046 163.92 37.3046C164.813 37.3046 165.482 36.7568 165.482 35.9656C165.482 35.1844 164.813 34.6366 163.92 34.6366ZM168.81 33.6323V38.2684H168.019V33.6323H168.81ZM168.81 38.7046V40.8755H163.748V41.89H169.134V42.5291H162.967V40.277H168.019V39.3437H162.946V38.7046H168.81ZM177.778 33.6323V42.6711H176.976V33.6323H177.778ZM172.979 34.3323C174.318 34.3424 175.282 35.5598 175.282 37.4771C175.282 39.3944 174.318 40.6118 172.979 40.6118C171.63 40.6118 170.676 39.3944 170.676 37.4771C170.676 35.5598 171.63 34.3424 172.979 34.3323ZM172.979 35.0424C172.076 35.0526 171.447 36.0061 171.447 37.4771C171.447 38.9481 172.076 39.9016 172.979 39.9016C173.882 39.9016 174.511 38.9481 174.511 37.4771C174.511 36.0061 173.882 35.0526 172.979 35.0424ZM184.98 39.6886C184.98 40.485 185.406 41.332 186.269 41.819C187.121 41.2864 187.577 40.3886 187.577 39.6886V39.1915H188.358V39.6886C188.358 40.6118 189.038 41.5451 190.195 41.9407L189.799 42.5291C188.896 42.2095 188.262 41.5806 187.953 40.8248C187.674 41.5552 187.121 42.245 186.289 42.6001C185.411 42.2653 184.853 41.6008 184.585 40.8451C184.265 41.5755 183.641 42.2044 182.779 42.5291L182.373 41.9407C183.509 41.5146 184.199 40.5509 184.209 39.6886V39.1915H184.98V39.6886ZM189.373 33.6425V38.7959H188.582V33.6425H189.373ZM184.503 34.17C185.873 34.17 186.867 35.0221 186.867 36.28C186.867 37.5177 185.873 38.3698 184.503 38.3698C183.134 38.3698 182.14 37.5177 182.14 36.28C182.14 35.0221 183.134 34.17 184.503 34.17ZM184.503 34.8497C183.58 34.8395 182.911 35.438 182.921 36.28C182.911 37.1119 183.58 37.7003 184.503 37.7104C185.416 37.7003 186.086 37.1119 186.086 36.28C186.086 35.438 185.416 34.8395 184.503 34.8497ZM199.345 37.2336V37.9032H197.884V42.6508H197.093V33.6323H197.884V37.2336H199.345ZM192.071 34.525V39.6886C193.39 39.6835 194.734 39.5821 196.22 39.2727L196.322 39.9524C194.77 40.2668 193.37 40.3581 192 40.3581H191.28V34.525H192.071ZM201.323 39.7089C201.333 38.3495 201.749 37.9336 202.449 37.5075C202.865 37.2539 203.19 36.8481 203.19 36.28C203.19 35.5902 202.652 35.154 201.982 35.154C201.404 35.154 200.826 35.4989 200.765 36.3308H199.842C199.893 35.1033 200.826 34.383 201.982 34.383C203.251 34.383 204.082 35.2047 204.082 36.3206C204.082 37.1119 203.707 37.6698 203.078 38.0553C202.449 38.4408 202.216 38.8263 202.196 39.7089V39.7596H201.323V39.7089ZM201.79 41.89C201.435 41.89 201.13 41.5958 201.14 41.2306C201.13 40.8755 201.435 40.5813 201.79 40.5813C202.145 40.5813 202.439 40.8755 202.439 41.2306C202.439 41.5958 202.145 41.89 201.79 41.89Z" fill="#252627"/>
<path d="M230.713 27.8165V29.3896C230.713 32.3279 229.585 34.1087 227.062 34.4945V33.248C228.101 32.9512 228.635 32.0311 228.546 30.6955H226.766V27.1636H230.06C230.476 27.1636 230.713 27.3713 230.713 27.8165ZM235.462 27.8165V29.3896C235.462 32.3279 234.334 34.1087 231.811 34.4945V33.248C232.85 32.9512 233.384 32.0311 233.295 30.6955H231.514V27.1636H234.809C235.224 27.1636 235.462 27.3713 235.462 27.8165Z" fill="#9EA0A2"/>
</svg>
