<svg width="89" height="17" viewBox="0 0 89 17" fill="none" xmlns="http://www.w3.org/2000/svg">
<path d="M5.34749 16.5031L0 0.0200291H2.88404L6.92971 12.4775L10.7951 0.0200291H13.1584L17.124 12.4775L21.0495 0.0200291H23.9135L18.7262 16.5031H15.9223L11.9768 3.98558L8.17145 16.5031H5.34749Z" fill="white"/>
<path d="M24.6528 16.5031H21.7688L28.1377 0.0200291H31.0217L37.2304 16.5031H34.4065L33.5252 14.0797H25.5541L24.6528 16.5031ZM26.4353 11.7364H32.664L29.5797 3.26457L26.4353 11.7364Z" fill="white"/>
<path d="M38.3478 16.5231V0H41.9929C47.1801 0 49.0828 3.02424 49.0828 6.30884C49.0828 8.39176 48.2817 10.3745 46.4792 11.5362L49.243 16.5031H45.9584L44.0357 12.4775C43.515 12.5576 42.9542 12.6177 42.3334 12.6177H41.0916V16.5231H38.3478ZM41.0916 9.95394H42.4135C45.0171 9.95394 46.3991 8.47187 46.3991 6.30884C46.3991 4.0657 44.9771 2.68376 42.4135 2.68376H41.0916V9.95394Z" fill="white"/>
<path d="M56.5933 16.7635C52.8281 16.7635 50.7251 14.0597 50.7251 10.2143V0.0200291H53.469V10.2944C53.469 12.3974 54.3101 14.0998 56.5933 14.0998C58.8966 14.0998 59.7377 12.3974 59.7377 10.2944V0.0200291H62.4816V10.2143C62.4816 14.0797 60.3586 16.7635 56.5933 16.7635Z" fill="white"/>
<path d="M64.8106 16.5231V0H68.4557C73.643 0 75.5457 3.02424 75.5457 6.30884C75.5457 8.39176 74.7445 10.3745 72.942 11.5362L75.7059 16.5031H72.4213L70.4986 12.4775C69.9779 12.5576 69.4171 12.6177 68.7962 12.6177H67.5545V16.5231H64.8106ZM67.5545 9.95394H68.8763C71.48 9.95394 72.8619 8.47187 72.8619 6.30884C72.8619 4.0657 71.4399 2.68376 68.8763 2.68376H67.5545V9.95394Z" fill="white"/>
<path d="M83.0562 16.7635C79.2909 16.7635 77.188 14.0597 77.188 10.2143V0.0200291H79.9318V10.2944C79.9318 12.3974 80.773 14.0998 83.0562 14.0998C85.3594 14.0998 86.2006 12.3974 86.2006 10.2944V0.0200291H88.9444V10.2143C88.9444 14.0797 86.8215 16.7635 83.0562 16.7635Z" fill="white"/>
</svg>
