<svg width="126" height="33" viewBox="0 0 126 33" fill="none" xmlns="http://www.w3.org/2000/svg">
<path d="M28.7762 28.4702C28.8454 28.5793 28.7188 28.7065 28.6094 28.6378L20.5999 23.6037C20.5291 23.5592 20.4354 23.5983 20.4172 23.68L18.3633 32.9052C18.3353 33.0312 18.1558 33.0318 18.127 32.9059L16.0146 23.6871C15.9959 23.6055 15.9022 23.567 15.8316 23.6118L7.8532 28.6737C7.7442 28.7429 7.61704 28.6163 7.68567 28.507L12.7086 20.504C12.7531 20.4332 12.7141 20.3397 12.6325 20.3214L3.40349 18.2539C3.27748 18.2257 3.27716 18.0463 3.40307 18.0176L12.5954 15.924C12.683 15.904 12.7192 15.7991 12.6625 15.7294L0.0286185 0.19907C-0.0631569 0.0862544 0.0853472 -0.0629768 0.198608 0.0282481L15.7903 12.5864C15.8602 12.6427 15.965 12.606 15.9845 12.5183L18.0333 3.31588C18.0614 3.18984 18.2409 3.18929 18.2697 3.31515L20.3821 12.534C20.4007 12.6155 20.4945 12.654 20.5651 12.6092L28.5435 7.54735C28.6525 7.47819 28.7796 7.60473 28.711 7.71407L23.688 15.717C23.6436 15.7879 23.6826 15.8814 23.7642 15.8997L32.9932 17.9671C33.1192 17.9953 33.1195 18.1748 32.9936 18.2035L23.7786 20.3022C23.6969 20.3208 23.6583 20.4147 23.7032 20.4854L28.7762 28.4702Z" fill="white"/>
<path d="M41.606 26L36.2585 9.51691H39.1425L43.1882 21.9744L47.0536 9.51691H49.4169L53.3825 21.9744L57.308 9.51691H60.172L54.9847 26H52.1808L48.2352 13.4825L44.4299 26H41.606Z" fill="white"/>
<path d="M60.9113 26H58.0272L64.3962 9.51691H67.2802L73.4889 26H70.6649L69.7837 23.5766H61.8125L60.9113 26ZM62.6938 21.2333H68.9225L65.8382 12.7615L62.6938 21.2333Z" fill="white"/>
<path d="M74.6062 26.02V9.49688H78.2514C83.4386 9.49688 85.3413 12.5211 85.3413 15.8057C85.3413 17.8886 84.5402 19.8714 82.7376 21.033L85.5015 26H82.2169L80.2942 21.9744C79.7735 22.0545 79.2127 22.1146 78.5918 22.1146H77.3501V26.02H74.6062ZM77.3501 19.4508H78.6719C81.2756 19.4508 82.6575 17.9688 82.6575 15.8057C82.6575 13.5626 81.2355 12.1806 78.6719 12.1806H77.3501V19.4508Z" fill="white"/>
<path d="M92.8518 26.2604C89.0865 26.2604 86.9836 23.5566 86.9836 19.7112V9.51691H89.7274V19.7913C89.7274 21.8942 90.5686 23.5966 92.8518 23.5966C95.155 23.5966 95.9962 21.8942 95.9962 19.7913V9.51691H98.7401V19.7112C98.7401 23.5766 96.6171 26.2604 92.8518 26.2604Z" fill="white"/>
<path d="M101.069 26.02V9.49688H104.714C109.901 9.49688 111.804 12.5211 111.804 15.8057C111.804 17.8886 111.003 19.8714 109.2 21.033L111.964 26H108.68L106.757 21.9744C106.236 22.0545 105.676 22.1146 105.055 22.1146H103.813V26.02H101.069ZM103.813 19.4508H105.135C107.738 19.4508 109.12 17.9688 109.12 15.8057C109.12 13.5626 107.698 12.1806 105.135 12.1806H103.813V19.4508Z" fill="white"/>
<path d="M119.315 26.2604C115.549 26.2604 113.446 23.5566 113.446 19.7112V9.51691H116.19V19.7913C116.19 21.8942 117.031 23.5966 119.315 23.5966C121.618 23.5966 122.459 21.8942 122.459 19.7913V9.51691H125.203V19.7112C125.203 23.5766 123.08 26.2604 119.315 26.2604Z" fill="white"/>
</svg>
