<svg width="87" height="34" viewBox="0 0 87 34" fill="none" xmlns="http://www.w3.org/2000/svg">
<path fill-rule="evenodd" clip-rule="evenodd" d="M70.692 26.9628H55.0826V24.5964H70.692V26.9628Z" fill="white"/>
<path d="M87.0001 26.9628H71.3907V24.5964H87.0001V26.9628Z" fill="white"/>
<path fill-rule="evenodd" clip-rule="evenodd" d="M43.2182 8.53079C44.7961 8.53079 46.1752 8.94952 47.1616 9.69058C48.1495 10.4327 48.7417 11.4971 48.7417 12.7782V17.2054C48.7417 19.4005 47.0096 20.9402 44.5271 21.3454V24.5963H49.4183V26.9627H37.5208V24.5963H41.8707V21.3451C39.463 20.9385 37.8494 19.3778 37.8494 17.2054V12.7782C37.8494 11.499 38.4014 10.4344 39.351 9.69142C40.2992 8.94956 41.6402 8.53079 43.2182 8.53079ZM38.6083 19.4124C38.6146 19.4212 38.621 19.43 38.6274 19.4389C38.6121 19.4177 38.5969 19.3964 38.582 19.3749L38.6083 19.4124ZM43.2182 10.8972C42.2044 10.8972 41.526 11.1411 41.1026 11.4808C40.6799 11.8198 40.5059 12.2582 40.5059 12.6622V17.3214C40.5059 17.7253 40.6799 18.1639 41.1026 18.5029C41.526 18.8426 42.2044 19.0865 43.2182 19.0865C45.2496 19.0865 46.0852 18.1138 46.0852 17.3214V12.6622C46.0852 11.8697 45.2496 10.8972 43.2182 10.8972ZM38.085 18.3455C38.0895 18.3604 38.094 18.3752 38.0987 18.39C38.0924 18.37 38.0863 18.35 38.0803 18.3299C38.0819 18.3351 38.0834 18.3403 38.085 18.3455ZM46.0766 17.7663C46.0717 17.7798 46.0666 17.7933 46.0612 17.8068L46.0766 17.7663C46.0815 17.7528 46.0862 17.7393 46.0906 17.7258L46.0766 17.7663ZM40.6426 11.9001C40.62 11.9388 40.5993 11.978 40.5806 12.0174L40.5811 12.0164C40.5874 12.0031 40.594 11.9899 40.6007 11.9768C40.6138 11.951 40.6278 11.9255 40.6426 11.9001ZM41.8689 11.0082C41.8657 11.0092 41.8626 11.0102 41.8594 11.0112C41.8789 11.005 41.8987 10.9989 41.9187 10.993L41.8689 11.0082Z" fill="white"/>
<path d="M53.0915 15.7999H54.6382V18.1663H53.0915V26.9627H50.4352V8.72414H53.0915V15.7999Z" fill="white"/>
<path d="M70.2087 16.2524H57.9323V19.0865H70.402V21.4529H55.2759V13.9054H67.5523V10.9746H55.2759V8.60821H70.2087V16.2524Z" fill="white"/>
<path d="M86.5169 16.2524H74.2404V19.0865H86.7101V21.4529H71.5841V13.9054H83.8604V10.9746H71.5841V8.60821H86.5169V16.2524Z" fill="white"/>
<path d="M28.7877 28.4814C28.857 28.5905 28.7303 28.7178 28.6209 28.649L20.6082 23.613C20.5373 23.5684 20.4436 23.6075 20.4254 23.6893L18.3707 32.9181C18.3426 33.0441 18.1631 33.0447 18.1342 32.9188L16.021 23.6964C16.0023 23.6148 15.9086 23.5762 15.8379 23.6211L7.85635 28.6849C7.7473 28.7541 7.6201 28.6275 7.68875 28.5182L12.7137 20.5121C12.7582 20.4412 12.7192 20.3476 12.6376 20.3293L3.40485 18.2611C3.2788 18.2329 3.27848 18.0533 3.40443 18.0246L12.6005 15.9302C12.6881 15.9103 12.7243 15.8052 12.6676 15.7355L0.0286298 0.199146C-0.0631824 0.0862865 0.0853828 -0.0630013 0.198689 0.0282594L15.7966 12.5913C15.8666 12.6477 15.9714 12.6109 15.9909 12.5232L18.0406 3.31718C18.0686 3.19109 18.2482 3.19053 18.277 3.31645L20.3902 12.5389C20.4089 12.6204 20.5027 12.659 20.5733 12.6142L28.5549 7.5503C28.664 7.48112 28.7912 7.60771 28.7225 7.71709L23.6975 15.7232C23.6531 15.794 23.6921 15.8876 23.7737 15.9059L33.0064 17.9741C33.1325 18.0024 33.1328 18.1819 33.0068 18.2106L23.7881 20.3102C23.7064 20.3288 23.6678 20.4227 23.7127 20.4934L28.7877 28.4814Z" fill="white"/>
</svg>
