<svg width="50" height="19" viewBox="0 0 50 19" fill="none" xmlns="http://www.w3.org/2000/svg">
<path fill-rule="evenodd" clip-rule="evenodd" d="M33.1713 18.432H17.5618V16.0656H33.1713V18.432Z" fill="white"/>
<path d="M49.4794 18.432H33.8699V16.0656H49.4794V18.432Z" fill="white"/>
<path fill-rule="evenodd" clip-rule="evenodd" d="M5.69741 0C7.2753 0 8.65437 0.418733 9.64082 1.15979C10.6287 1.9019 11.2209 2.96634 11.2209 4.24743V8.67458C11.2209 10.8697 9.48884 12.4094 7.00627 12.8146V16.0655H11.8975V18.4319H0V16.0655H4.34991V12.8143C1.94216 12.4077 0.328648 10.8471 0.328648 8.67458V4.24743C0.328648 2.96816 0.880586 1.90361 1.83023 1.16063C2.77845 0.418773 4.11946 3.09112e-06 5.69741 0ZM1.08748 10.8816C1.09379 10.8905 1.10023 10.8993 1.10662 10.9081C1.09128 10.8869 1.07609 10.8656 1.0612 10.8441L1.08748 10.8816ZM5.69741 2.3664C4.68363 2.36641 4.00523 2.61029 3.58178 2.94997C3.15916 3.28899 2.98508 3.72746 2.98508 4.13142V8.79058C2.98508 9.19454 3.15916 9.63308 3.58178 9.97211C4.00523 10.3118 4.68365 10.5557 5.69741 10.5557C7.72886 10.5557 8.56446 9.58305 8.56446 8.79058V4.13142C8.56446 3.33896 7.72886 2.3664 5.69741 2.3664ZM0.564213 9.81474C0.568696 9.82959 0.573251 9.84441 0.577911 9.85918C0.571607 9.8392 0.565527 9.81922 0.559532 9.79908C0.561085 9.80431 0.56264 9.80952 0.564213 9.81474ZM8.55579 9.2355C8.55089 9.249 8.54578 9.2625 8.54042 9.27596L8.55579 9.2355C8.56069 9.22201 8.5654 9.20849 8.56984 9.19497L8.55579 9.2355ZM3.12183 3.36932C3.09922 3.40805 3.07852 3.44717 3.05978 3.48664L3.06034 3.4856C3.06664 3.47235 3.07317 3.45915 3.0799 3.44598C3.09305 3.42026 3.10702 3.3947 3.12183 3.36932ZM4.34816 2.47737C4.34496 2.47838 4.34178 2.47944 4.33859 2.48045C4.35814 2.47425 4.3779 2.46813 4.39791 2.46221L4.34816 2.47737Z" fill="white"/>
<path d="M15.5707 7.26909H17.1174V9.63549H15.5707V18.4319H12.9144V0.193357H15.5707V7.26909Z" fill="white"/>
<path d="M32.6879 7.72163H20.4115V10.5557H32.8812V12.9221H17.7551V5.37458H30.0315V2.44383H17.7551V0.0774269H32.6879V7.72163Z" fill="white"/>
<path d="M48.9961 7.72163H36.7196V10.5557H49.1894V12.9221H34.0633V5.37458H46.3396V2.44383H34.0633V0.0774269H48.9961V7.72163Z" fill="white"/>
</svg>
