<svg width="16" height="19" viewBox="0 0 16 19" fill="none" xmlns="http://www.w3.org/2000/svg">
<path d="M6.72656 11.5078H9.51562L10.9688 13.4062C11.918 12.3984 12.4922 10.8164 12.4922 8.71875C12.4922 4.85156 10.5469 2.74219 7.78125 2.74219C5.01562 2.74219 3.07031 4.85156 3.07031 8.71875C3.07031 12.5859 5.01562 14.6953 7.78125 14.6953C8.22656 14.6953 8.64844 14.6367 9.04688 14.5312L6.72656 11.5078ZM15.5625 8.71875C15.5625 11.8008 14.5078 14.168 12.8203 15.6562L15.1641 18.6797H12.1875L10.7812 16.875C9.86719 17.25 8.85938 17.4375 7.78125 17.4375C3.32812 17.4375 0 14.1797 0 8.71875C0 3.23438 3.32812 0 7.78125 0C12.2344 0 15.5625 3.23438 15.5625 8.71875Z" fill="#FF5842"/>
</svg>
