<svg width="22" height="22" viewBox="0 0 22 22" fill="none" xmlns="http://www.w3.org/2000/svg">
<path d="M19.0194 11.2448C19.0194 10.1323 18.8026 9.03071 18.3812 8.00293C17.9599 6.97514 17.3424 6.04127 16.5639 5.25463C15.7854 4.468 14.8612 3.844 13.844 3.41828C12.8268 2.99255 11.7366 2.77344 10.6357 2.77344C9.53471 2.77344 8.44453 2.99255 7.42737 3.41828C6.41021 3.844 5.48599 4.468 4.70749 5.25463C3.92899 6.04127 3.31145 6.97514 2.89013 8.00293C2.46881 9.03071 2.25196 10.1323 2.25196 11.2448L19.0194 11.2448Z" fill="#23CF7F"/>
<path d="M19.0194 18.4929C19.0194 17.3805 18.8025 16.2789 18.3812 15.2511C17.9599 14.2233 17.3424 13.2894 16.5639 12.5028C15.7854 11.7162 14.8611 11.0922 13.844 10.6664C12.8268 10.2407 11.7366 10.0216 10.6357 10.0216C9.53471 10.0216 8.44453 10.2407 7.42737 10.6664C6.41021 11.0922 5.48599 11.7162 4.70749 12.5028C3.92899 13.2894 3.31145 14.2233 2.89013 15.2511C2.4688 16.2789 2.25195 17.3805 2.25195 18.4929L19.0194 18.4929Z" fill="#23CF7F"/>
</svg>
