<svg width="22" height="22" viewBox="0 0 22 22" fill="none" xmlns="http://www.w3.org/2000/svg">
<path d="M10.6357 2.77344C11.7366 2.77349 12.8267 2.99327 13.8438 3.41895C14.8608 3.84461 15.785 4.46841 16.5635 5.25488C17.3418 6.04134 17.9595 6.97542 18.3809 8.00293C18.8021 9.03058 19.0195 10.1328 19.0195 11.2451H14.9736C15.5503 11.5975 16.0847 12.0192 16.5635 12.5029C17.3419 13.2895 17.9595 14.2243 18.3809 15.252C18.802 16.2795 19.0195 17.381 19.0195 18.4932H2.25195C2.25203 17.3811 2.46854 16.2794 2.88965 15.252C3.31096 14.2243 3.92864 13.2895 4.70703 12.5029C5.18591 12.0191 5.721 11.5976 6.29785 11.2451H2.25195C2.25201 10.1328 2.46838 9.03058 2.88965 8.00293C3.31095 6.97542 3.92873 6.04134 4.70703 5.25488C5.48535 4.4685 6.40991 3.84461 7.42676 3.41895C8.44384 2.9933 9.53488 2.77344 10.6357 2.77344ZM10.2842 3.99805C9.46508 4.03888 8.65677 4.22192 7.89648 4.54004C7.02777 4.9037 6.23712 5.43764 5.57129 6.11035C4.90529 6.78335 4.37581 7.58315 4.01465 8.46387C3.80812 8.96767 3.66115 9.49358 3.57129 10.0293H8.65625L9.9082 10.2246L8.62305 11.248L6.93164 12.2822C6.43724 12.5843 5.97994 12.9455 5.57129 13.3584C4.90547 14.0312 4.37596 14.8317 4.01465 15.7129C3.80822 16.2165 3.66118 16.742 3.57129 17.2773H17.7002C17.6101 16.7422 17.4624 16.2168 17.2559 15.7129C16.8945 14.8317 16.3651 14.0312 15.6992 13.3584C15.2901 12.9451 14.8335 12.5839 14.3398 12.2822L12.9424 11.4287L11.541 10.2246L12.7031 10.0293H17.7002C17.6101 9.49376 17.4625 8.96792 17.2559 8.46387C16.8947 7.58311 16.3652 6.78331 15.6992 6.11035C15.0332 5.43746 14.2428 4.90365 13.374 4.54004C12.5051 4.17642 11.5745 3.98931 10.6357 3.98926L10.2842 3.99805Z" fill="#B9BABA"/>
</svg>
