<svg width="136" height="136" viewBox="0 0 136 136" fill="none" xmlns="http://www.w3.org/2000/svg">
<path d="M67.5391 13.0391C75.2214 13.0391 82.8283 14.5588 89.9258 17.5107C97.0233 20.4627 103.473 24.7896 108.905 30.2441C114.337 35.6986 118.646 42.1742 121.586 49.3008C124.526 56.4275 126.039 64.0664 126.039 71.7803H97.8193C101.842 74.2236 105.566 77.1499 108.905 80.5029C114.337 85.9574 118.646 92.433 121.586 99.5596C124.526 106.686 126.039 114.325 126.039 122.039H9.03906C9.03906 114.325 10.5523 106.686 13.4922 99.5596C16.4321 92.433 20.7408 85.9574 26.1729 80.5029C29.5122 77.1498 33.2365 74.2236 37.2588 71.7803H9.03906C9.03906 64.0664 10.5523 56.4275 13.4922 49.3008C16.432 42.1742 20.7408 35.6986 26.1729 30.2441C31.6051 24.7896 38.0548 20.4627 45.1523 17.5107C52.2499 14.5588 59.8568 13.0391 67.5391 13.0391Z" fill="url(#paint0_radial_89_2331)"/>
<defs>
<radialGradient id="paint0_radial_89_2331" cx="0" cy="0" r="1" gradientUnits="userSpaceOnUse" gradientTransform="translate(67.5391 67.5391) rotate(90) scale(54.5 58.5)">
<stop stop-color="white"/>
<stop offset="1" stop-color="#C4C4C4"/>
</radialGradient>
</defs>
</svg>
