<svg width="241" height="51" viewBox="0 0 241 51" fill="none" xmlns="http://www.w3.org/2000/svg">
<path d="M119.263 2.05963C119.822 1.12672 121.175 1.12672 121.734 2.05963L129.145 14.4116L111.852 14.4115L119.263 2.05963Z" fill="#FF5842"/>
<path d="M0 20.1762C0 16.9925 2.58091 14.4116 5.76462 14.4116H235.235C238.419 14.4116 241 16.9925 241 20.1762V45.1762C241 48.36 238.419 50.9409 235.235 50.9409H5.76462C2.58091 50.9409 0 48.36 0 45.1762V20.1762Z" fill="#FF5842"/>
<path d="M19.2559 30.7388C18.9922 29.2095 17.7617 28.3306 16.2148 28.3306C14.123 28.3306 12.6641 29.9302 12.6641 32.813C12.6641 35.731 14.1406 37.2954 16.2148 37.2954C17.7266 37.2954 18.957 36.4517 19.2559 34.9575H21.5586C21.207 37.4009 19.2031 39.3521 16.1797 39.3521C12.8223 39.3521 10.3613 36.9087 10.3613 32.813C10.3613 28.6997 12.8574 26.2739 16.1797 26.2739C18.9922 26.2739 21.1719 27.9087 21.5586 30.7388H19.2559ZM25.6719 26.4497V39.1763H23.4219V26.4497H25.6719ZM27.8164 39.1763V29.6313H30.0664V39.1763H27.8164ZM28.959 28.2778C28.2559 28.2778 27.6582 27.7329 27.6582 27.0474C27.6582 26.3794 28.2559 25.8345 28.959 25.8345C29.6797 25.8345 30.2598 26.3794 30.2598 27.0474C30.2598 27.7329 29.6797 28.2778 28.959 28.2778ZM36.377 39.3696C33.5293 39.3696 31.8066 37.3306 31.8066 34.4478C31.8066 31.5298 33.582 29.5083 36.377 29.5083C38.6973 29.5083 40.3145 30.8618 40.4727 32.9185H38.3281C38.1523 32.0044 37.4844 31.3013 36.3945 31.3013C35.0059 31.3013 34.0742 32.479 34.0742 34.395C34.0742 36.3638 34.9883 37.5415 36.3945 37.5415C37.3965 37.5415 38.1348 36.9614 38.3281 35.9243H40.4727C40.2969 37.9458 38.7676 39.3696 36.377 39.3696ZM42.1602 39.1763V26.4497H44.4102V33.4634H44.5684L47.9961 29.6313H50.6152L46.9238 33.7446L50.8438 39.1763H48.1719L45.2363 35.0806L44.4102 35.9595V39.1763H42.1602ZM60.9863 29.6313V31.354H59.1055V36.311C59.1055 37.2251 59.5625 37.4185 60.125 37.4185C60.3887 37.4185 60.8281 37.4009 61.1094 37.3833V39.2114C60.8457 39.2642 60.4062 39.2993 59.8438 39.2993C58.1562 39.2993 56.8555 38.4731 56.873 36.6802V31.354H55.502V29.6313H56.873V27.3462H59.1055V29.6313H60.9863ZM66.7871 39.3696C64.0098 39.3696 62.2168 37.4009 62.2168 34.4478C62.2168 31.4771 64.0098 29.5083 66.7871 29.5083C69.582 29.5083 71.3574 31.4771 71.3574 34.4478C71.3574 37.4009 69.582 39.3696 66.7871 39.3696ZM66.8047 37.5767C68.334 37.5767 69.0898 36.188 69.0898 34.4302C69.0898 32.6899 68.334 31.2837 66.8047 31.2837C65.2402 31.2837 64.4844 32.6899 64.4844 34.4302C64.4844 36.188 65.2402 37.5767 66.8047 37.5767ZM81.5352 39.3696C78.7578 39.3696 76.9648 37.4009 76.9648 34.4478C76.9648 31.4771 78.7578 29.5083 81.5352 29.5083C84.3301 29.5083 86.1055 31.4771 86.1055 34.4478C86.1055 37.4009 84.3301 39.3696 81.5352 39.3696ZM81.5527 37.5767C83.082 37.5767 83.8379 36.188 83.8379 34.4302C83.8379 32.6899 83.082 31.2837 81.5527 31.2837C79.9883 31.2837 79.2324 32.6899 79.2324 34.4302C79.2324 36.188 79.9883 37.5767 81.5527 37.5767ZM87.8457 42.7622V29.6313H90.043V31.1958H90.1836C90.5352 30.5103 91.2383 29.5083 92.9258 29.5083C95.123 29.5083 96.8633 31.231 96.8633 34.4126C96.8633 37.5591 95.1758 39.3521 92.9258 39.3521C91.2734 39.3521 90.5352 38.3677 90.1836 37.6646H90.0957V42.7622H87.8457ZM90.043 34.395C90.043 36.2583 90.8516 37.5063 92.3105 37.5063C93.7871 37.5063 94.5781 36.2056 94.5781 34.395C94.5781 32.6196 93.8047 31.3364 92.3105 31.3364C90.8516 31.3364 90.043 32.5493 90.043 34.395ZM102.857 39.3696C99.9746 39.3696 98.2168 37.4536 98.2168 34.4653C98.2168 31.5122 100.01 29.5083 102.734 29.5083C105.072 29.5083 107.094 30.9673 107.094 34.3247V35.0278H100.432C100.458 36.6538 101.416 37.6118 102.875 37.6118C103.859 37.6118 104.527 37.1899 104.809 36.6274H107.006C106.602 38.2798 105.072 39.3696 102.857 39.3696ZM100.449 33.4985H104.949C104.932 32.1978 104.07 31.2485 102.77 31.2485C101.416 31.2485 100.52 32.2769 100.449 33.4985ZM111.084 33.5864V39.1763H108.834V29.6313H110.979V31.2485H111.102C111.541 30.1763 112.508 29.5083 113.932 29.5083C115.918 29.5083 117.219 30.8091 117.201 33.0942V39.1763H114.969V33.4458C114.969 32.1626 114.283 31.4067 113.105 31.4067C111.91 31.4067 111.084 32.1978 111.084 33.5864ZM128.381 29.6313V31.354H126.5V36.311C126.5 37.2251 126.957 37.4185 127.52 37.4185C127.783 37.4185 128.223 37.4009 128.504 37.3833V39.2114C128.24 39.2642 127.801 39.2993 127.238 39.2993C125.551 39.2993 124.25 38.4731 124.268 36.6802V31.354H122.896V29.6313H124.268V27.3462H126.5V29.6313H128.381ZM132.564 33.5864V39.1763H130.314V26.4497H132.512V31.2485H132.635C133.074 30.1763 133.988 29.5083 135.465 29.5083C137.451 29.5083 138.752 30.7915 138.752 33.0942V39.1763H136.52V33.4458C136.52 32.145 135.816 31.4067 134.639 31.4067C133.426 31.4067 132.564 32.1978 132.564 33.5864ZM145.115 39.3696C142.232 39.3696 140.475 37.4536 140.475 34.4653C140.475 31.5122 142.268 29.5083 144.992 29.5083C147.33 29.5083 149.352 30.9673 149.352 34.3247V35.0278H142.689C142.716 36.6538 143.674 37.6118 145.133 37.6118C146.117 37.6118 146.785 37.1899 147.066 36.6274H149.264C148.859 38.2798 147.33 39.3696 145.115 39.3696ZM142.707 33.4985H147.207C147.189 32.1978 146.328 31.2485 145.027 31.2485C143.674 31.2485 142.777 32.2769 142.707 33.4985ZM155.363 39.1763V29.6313H157.613V39.1763H155.363ZM156.506 28.2778C155.803 28.2778 155.205 27.7329 155.205 27.0474C155.205 26.3794 155.803 25.8345 156.506 25.8345C157.227 25.8345 157.807 26.3794 157.807 27.0474C157.807 27.7329 157.227 28.2778 156.506 28.2778ZM162.008 33.5864V39.1763H159.758V29.6313H161.902V31.2485H162.025C162.465 30.1763 163.432 29.5083 164.855 29.5083C166.842 29.5083 168.143 30.8091 168.125 33.0942V39.1763H165.893V33.4458C165.893 32.1626 165.207 31.4067 164.029 31.4067C162.834 31.4067 162.008 32.1978 162.008 33.5864ZM178.443 29.6313L175.033 39.1763H172.572L169.162 29.6313H171.553L173.75 36.7329H173.855L176.07 29.6313H178.443ZM179.85 39.1763V29.6313H182.1V39.1763H179.85ZM180.992 28.2778C180.289 28.2778 179.691 27.7329 179.691 27.0474C179.691 26.3794 180.289 25.8345 180.992 25.8345C181.713 25.8345 182.293 26.3794 182.293 27.0474C182.293 27.7329 181.713 28.2778 180.992 28.2778ZM189.008 29.6313V31.354H187.127V36.311C187.127 37.2251 187.584 37.4185 188.146 37.4185C188.41 37.4185 188.85 37.4009 189.131 37.3833V39.2114C188.867 39.2642 188.428 39.2993 187.865 39.2993C186.178 39.2993 184.877 38.4731 184.895 36.6802V31.354H183.523V29.6313H184.895V27.3462H187.127V29.6313H189.008ZM190.291 36.4868C190.291 34.3423 192.066 33.7095 193.842 33.604C194.501 33.5601 195.872 33.481 196.285 33.4634V32.7075C196.285 31.7583 195.67 31.2134 194.562 31.2134C193.561 31.2134 192.945 31.6704 192.77 32.356H190.607C190.766 30.7388 192.225 29.5083 194.615 29.5083C196.426 29.5083 198.518 30.2466 198.518 32.7954V39.1763H196.373V37.8579H196.303C195.881 38.6665 194.984 39.3696 193.49 39.3696C191.662 39.3696 190.291 38.3677 190.291 36.4868ZM192.453 36.4692C192.453 37.2954 193.121 37.7173 194.07 37.7173C195.424 37.7173 196.303 36.8208 196.303 35.7485V34.9575L194.193 35.0981C193.121 35.186 192.453 35.6255 192.453 36.4692ZM205.391 29.6313V31.354H203.51V36.311C203.51 37.2251 203.967 37.4185 204.529 37.4185C204.793 37.4185 205.232 37.4009 205.514 37.3833V39.2114C205.25 39.2642 204.811 39.2993 204.248 39.2993C202.561 39.2993 201.26 38.4731 201.277 36.6802V31.354H199.906V29.6313H201.277V27.3462H203.51V29.6313H205.391ZM207.113 39.1763V29.6313H209.363V39.1763H207.113ZM208.256 28.2778C207.553 28.2778 206.955 27.7329 206.955 27.0474C206.955 26.3794 207.553 25.8345 208.256 25.8345C208.977 25.8345 209.557 26.3794 209.557 27.0474C209.557 27.7329 208.977 28.2778 208.256 28.2778ZM215.674 39.3696C212.896 39.3696 211.104 37.4009 211.104 34.4478C211.104 31.4771 212.896 29.5083 215.674 29.5083C218.469 29.5083 220.244 31.4771 220.244 34.4478C220.244 37.4009 218.469 39.3696 215.674 39.3696ZM215.691 37.5767C217.221 37.5767 217.977 36.188 217.977 34.4302C217.977 32.6899 217.221 31.2837 215.691 31.2837C214.127 31.2837 213.371 32.6899 213.371 34.4302C213.371 36.188 214.127 37.5767 215.691 37.5767ZM224.234 33.5864V39.1763H221.984V29.6313H224.129V31.2485H224.252C224.691 30.1763 225.658 29.5083 227.082 29.5083C229.068 29.5083 230.369 30.8091 230.352 33.0942V39.1763H228.119V33.4458C228.119 32.1626 227.434 31.4067 226.256 31.4067C225.061 31.4067 224.234 32.1978 224.234 33.5864Z" fill="white"/>
</svg>
