<svg width="221" height="51" viewBox="0 0 221 51" fill="none" xmlns="http://www.w3.org/2000/svg">
<path d="M109.013 2.05963C109.572 1.12672 110.925 1.12672 111.484 2.05963L118.895 14.4116L101.602 14.4115L109.013 2.05963Z" fill="#FF5842"/>
<path d="M0 20.1762C0 16.9925 2.58091 14.4116 5.76462 14.4116H214.732C217.916 14.4116 220.497 16.9925 220.497 20.1762V45.1762C220.497 48.36 217.916 50.9409 214.732 50.9409H5.76462C2.58091 50.9409 0 48.36 0 45.1762V20.1762Z" fill="#FF5842"/>
<path d="M16.4707 27.6099C16.4707 29.561 17.7363 31.4946 20.2324 32.3208L19.248 33.8325C17.4727 33.2437 16.207 32.0483 15.5215 30.563C14.8096 32.189 13.4912 33.481 11.6367 34.1138L10.5996 32.6021C13.166 31.7583 14.502 29.7017 14.502 27.6099V27.4165H11.1445V25.8521H19.7754V27.4165H16.4707V27.6099ZM23.3086 24.8501V28.8228H25.5234V30.4575H23.3086V34.4302H21.3574V24.8501H23.3086ZM23.3086 35.1685V40.7407H21.3574V36.7329H12.7266V35.1685H23.3086ZM32.1504 27.1353C32.1328 29.2974 33.3984 31.2661 35.8945 32.0571L34.8398 33.5864C33.1084 32.98 31.8955 31.8286 31.2188 30.3169C30.5156 32.0483 29.1885 33.4106 27.2637 34.0786L26.2266 32.4966C28.8633 31.6353 30.1816 29.5083 30.1816 27.2231V25.7114H32.1504V27.1353ZM39.6387 24.8501V34.2017H37.6875V29.5259H34.5234V27.9263H37.6875V24.8501H39.6387ZM34.2598 34.6235C37.6348 34.6235 39.6914 35.7485 39.6914 37.6821C39.6914 39.6157 37.6348 40.7231 34.2598 40.7231C30.9023 40.7231 28.8457 39.6157 28.8633 37.6821C28.8457 35.7485 30.9023 34.6235 34.2598 34.6235ZM34.2598 36.1353C32.0449 36.1353 30.7969 36.6802 30.7969 37.6821C30.7969 38.6489 32.0449 39.1938 34.2598 39.1938C36.4746 39.1938 37.7402 38.6489 37.7402 37.6821C37.7402 36.6802 36.4746 36.1353 34.2598 36.1353ZM60.6445 32.145V33.7271H54.3516V35.0454C57.1992 35.2388 58.8691 36.2231 58.8867 37.8755C58.8691 39.7036 56.8125 40.7231 53.3848 40.7231C49.9219 40.7231 47.8477 39.7036 47.8477 37.8755C47.8477 36.2231 49.5352 35.23 52.418 35.0454V33.7271H46.1602V32.145H60.6445ZM53.3848 36.522C51.0645 36.5396 49.8164 36.9966 49.834 37.8755C49.8164 38.7544 51.0645 39.229 53.3848 39.229C55.6523 39.229 56.918 38.7544 56.9355 37.8755C56.918 36.9966 55.6523 36.5396 53.3848 36.522ZM59.3438 25.5532V27.1177H54.7734C55.0811 28.4272 56.9795 29.605 59.959 29.8774L59.2734 31.4243C56.3906 31.1343 54.2461 29.9829 53.3848 28.3657C52.5234 29.9741 50.4141 31.1343 47.5312 31.4243L46.8633 29.8774C49.7812 29.605 51.6797 28.4097 52.0137 27.1177H47.4785V25.5532H59.3438ZM74.9531 24.8677V36.3462H72.9844V24.8677H74.9531ZM75.3926 38.8423V40.4243H64.4414V35.186H66.4102V38.8423H75.3926ZM66.2871 25.9048C68.6953 25.9048 70.5586 27.5747 70.5586 29.8774C70.5586 32.2329 68.6953 33.8677 66.2871 33.8677C63.8613 33.8677 61.998 32.2329 61.998 29.8774C61.998 27.5747 63.8613 25.9048 66.2871 25.9048ZM66.2871 27.6099C64.9336 27.6099 63.8965 28.5063 63.9141 29.8774C63.8965 31.2837 64.9336 32.1626 66.2871 32.1626C67.6055 32.1626 68.6426 31.2837 68.6426 29.8774C68.6426 28.5063 67.6055 27.6099 66.2871 27.6099ZM94.7812 24.8677V36.522H92.8125V24.8677H94.7812ZM95.2207 38.8423V40.4243H84.2695V35.4673H86.2383V38.8423H95.2207ZM87.5742 28.5591C87.5742 30.4399 88.9453 32.2329 91.4766 32.9536L90.5449 34.5005C88.6904 33.9556 87.3633 32.8306 86.6426 31.3892C85.9219 32.9536 84.5771 34.1841 82.6875 34.7642L81.7383 33.2349C84.2871 32.4614 85.623 30.563 85.623 28.5591V28.3481H82.2305V26.8013H85.623V24.938H87.5918V26.8013H90.9668V28.3481H87.5742V28.5591ZM109.811 25.8169V27.2407C109.811 28.7261 109.811 30.3521 109.389 32.6021H111.586V34.1841H105.275V40.7583H103.307V34.1841H97.1016V32.6021H107.402C107.842 30.4399 107.859 28.8228 107.859 27.3989H98.8066V25.8169H109.811ZM117.457 39.1763V37.5239L121.957 33.1821C123.24 31.8989 123.908 31.1431 123.908 30.0708C123.908 28.8931 122.977 28.1372 121.729 28.1372C120.41 28.1372 119.566 28.9634 119.584 30.2466H117.404C117.387 27.8384 119.197 26.2739 121.746 26.2739C124.348 26.2739 126.105 27.8208 126.105 29.9653C126.105 31.4067 125.402 32.5669 122.906 34.9224L120.639 37.1724V37.2603H126.299V39.1763H117.457ZM141.082 24.8501V34.2017H139.131V32.0044H135.932V33.2349H128.461V26.0454H135.932V27.2759H139.131V24.8501H141.082ZM130.412 27.5923V31.6704H133.998V27.5923H130.412ZM135.703 34.6235C139.078 34.6235 141.135 35.7485 141.135 37.6821C141.135 39.6157 139.078 40.7231 135.703 40.7231C132.346 40.7231 130.289 39.6157 130.307 37.6821C130.289 35.7485 132.346 34.6235 135.703 34.6235ZM135.703 36.1177C133.488 36.1177 132.24 36.6626 132.24 37.6821C132.24 38.6665 133.488 39.2114 135.703 39.2114C137.918 39.2114 139.184 38.6665 139.184 37.6821C139.184 36.6626 137.918 36.1177 135.703 36.1177ZM135.932 30.4224H139.131V28.8228H135.932V30.4224ZM156.551 24.8501V40.7583H154.582V24.8501H156.551ZM147.99 26.0103C150.381 26.0103 152.121 28.1899 152.139 31.6177C152.121 35.0806 150.381 37.2427 147.99 37.2427C145.582 37.2427 143.842 35.0806 143.842 31.6177C143.842 28.1899 145.582 26.0103 147.99 26.0103ZM147.99 27.7681C146.637 27.7681 145.723 29.1919 145.723 31.6177C145.723 34.061 146.637 35.4849 147.99 35.4849C149.326 35.4849 150.24 34.061 150.24 31.6177C150.24 29.1919 149.326 27.7681 147.99 27.7681ZM168.803 35.186C168.803 36.5044 169.409 37.8931 170.771 38.7544C172.151 37.8315 172.793 36.3901 172.811 35.186V34.5356H174.727V35.186C174.709 36.856 175.693 38.4028 177.785 39.0708L176.836 40.4946C175.289 39.9761 174.261 38.9653 173.707 37.6997C173.197 38.9478 172.257 40.064 170.824 40.6353C169.312 40.0903 168.363 39.0181 167.871 37.7524C167.3 38.9741 166.289 39.9673 164.812 40.4946L163.846 39.0708C165.902 38.3501 166.887 36.7329 166.904 35.186V34.5356H168.803V35.186ZM176.396 24.8677V33.8677H174.428V24.8677H176.396ZM167.73 25.7114C170.174 25.7114 172.002 27.2583 172.002 29.4907C172.002 31.7056 170.174 33.2524 167.73 33.2524C165.27 33.2524 163.441 31.7056 163.441 29.4907C163.441 27.2583 165.27 25.7114 167.73 25.7114ZM167.73 27.3638C166.342 27.3638 165.34 28.1899 165.357 29.4907C165.34 30.7915 166.342 31.6353 167.73 31.6353C169.102 31.6353 170.086 30.7915 170.086 29.4907C170.086 28.1899 169.102 27.3638 167.73 27.3638ZM183.059 26.0103C185.212 26.0103 186.803 27.8032 187.084 30.7036H190.107V24.8501H192.041V40.7583H190.107V32.2856H187.102C186.891 35.353 185.273 37.2427 183.059 37.2427C180.668 37.2427 178.98 35.0806 178.98 31.6177C178.98 28.1899 180.668 26.0103 183.059 26.0103ZM183.059 27.7681C181.74 27.7681 180.844 29.1919 180.861 31.6177C180.844 34.061 181.74 35.4849 183.059 35.4849C184.377 35.4849 185.256 34.061 185.273 31.6177C185.256 29.1919 184.377 27.7681 183.059 27.7681ZM208.793 37.2075V38.8071H194.273V37.2075H197.631V33.1821C196.365 32.4614 195.601 31.3276 195.609 29.9126C195.592 27.3813 198.088 25.7114 201.498 25.7114C204.926 25.7114 207.422 27.3813 207.422 29.9126C207.422 31.3013 206.684 32.4175 205.453 33.147V37.2075H208.793ZM201.498 27.2583C199.125 27.2583 197.508 28.2603 197.525 29.9126C197.508 31.5474 199.125 32.5669 201.498 32.5669C203.871 32.5669 205.506 31.5474 205.506 29.9126C205.506 28.2603 203.871 27.2583 201.498 27.2583ZM199.564 37.2075H203.467V33.8853C202.86 34.0259 202.201 34.0962 201.498 34.0962C200.812 34.0962 200.162 34.0259 199.564 33.9028V37.2075Z" fill="white"/>
</svg>
