<svg width="221" height="51" viewBox="0 0 221 51" fill="none" xmlns="http://www.w3.org/2000/svg">
<path d="M109.013 2.05963C109.572 1.12672 110.925 1.12672 111.484 2.05963L118.895 14.4116L101.602 14.4115L109.013 2.05963Z" fill="#FF5842"/>
<path d="M7.83594 20.1762C7.83594 16.9925 10.4168 14.4116 13.6006 14.4116H206.894C210.078 14.4116 212.659 16.9925 212.659 20.1762V45.1762C212.659 48.36 210.078 50.9409 206.894 50.9409H13.6006C10.4168 50.9409 7.83594 48.36 7.83594 45.1762V20.1762Z" fill="#FF5842"/>
<path d="M27.959 25.5532C30.3672 25.5356 32.125 26.9067 32.125 28.8931C32.125 30.8442 30.3672 32.2329 27.959 32.2153C25.5684 32.2329 23.8281 30.8442 23.8281 28.8931C23.8281 26.9067 25.5684 25.5356 27.959 25.5532ZM27.959 27.1353C26.6582 27.1177 25.709 27.8032 25.7266 28.8931C25.709 29.9653 26.6582 30.6157 27.959 30.6157C29.3125 30.6157 30.2617 29.9653 30.2617 28.8931C30.2617 27.8032 29.3125 27.1177 27.959 27.1353ZM36.0625 24.8677V40.7231H34.1289V24.8677H36.0625ZM22.791 33.3052C25.6562 33.3052 29.6641 33.2524 33.0918 32.7427L33.2324 34.1841C31.8613 34.4478 30.4375 34.6147 29.0488 34.7114V40.2485H27.0801V34.8345C25.6123 34.896 24.2324 34.9048 23.0371 34.9224L22.791 33.3052ZM42.6016 26.0103C44.9922 26.0103 46.7148 28.1899 46.7324 31.6177C46.7148 35.0806 44.9922 37.2427 42.6016 37.2427C40.1934 37.2427 38.4531 35.0806 38.4707 31.6177C38.4531 28.1899 40.1934 26.0103 42.6016 26.0103ZM42.6016 27.7681C41.2656 27.7681 40.3516 29.1919 40.3516 31.6177C40.3516 34.061 41.2656 35.4849 42.6016 35.4849C43.9551 35.4849 44.8516 34.061 44.8516 31.6177C44.8516 29.1919 43.9551 27.7681 42.6016 27.7681ZM50.7754 24.8501V30.9497H53.2188V32.6021H50.7754V40.7407H48.8242V24.8501H50.7754ZM60.3555 26.4673V32.3911H56.2422V35.4849C57.8594 35.4673 59.3975 35.4058 61.1641 35.1157L61.3047 36.6978C59.1602 37.0493 57.4199 37.1196 55.4512 37.1196H54.3613V30.8091H58.4746V28.0493H54.3438V26.4673H60.3555ZM67.5625 24.8501V40.7407H65.6992V32.5317H63.9062V39.9321H62.1133V25.1489H63.9062V30.9497H65.6992V24.8501H67.5625ZM83.9629 37.2778V38.895H69.4434V37.2778H75.7012V34.6938H71.166V29.4907H80.3066V27.522H71.1309V25.9399H82.2402V31.0376H73.1172V33.0942H82.6094V34.6938H77.6348V37.2778H83.9629ZM97.4805 27.0298C97.4805 29.4907 99.8887 31.9517 103.211 32.5317L102.332 34.1665C99.6689 33.604 97.4893 31.9956 96.4609 29.8599C95.4062 31.978 93.2266 33.5952 90.5723 34.1665L89.7109 32.5317C92.998 31.9341 95.3887 29.4731 95.4062 27.0298V25.8521H97.4805V27.0298ZM103.791 37.1021V38.7192H89.2715V37.1021H103.791ZM117.713 26.3267V28.2251C117.713 30.5278 117.713 32.7251 117.01 36.0825L115.059 35.9067C115.384 34.5181 115.568 33.2964 115.674 32.1626L106.305 32.6548L106.041 31.0728L115.762 30.7036C115.797 29.8511 115.797 29.0337 115.797 28.2251V27.9087H106.516V26.3267H117.713ZM119.312 37.1196V38.7192H104.828V37.1196H119.312ZM134.887 32.145V33.5864H120.367V32.145H126.66V31.1431H122.213V27.5044H131.143V26.5376H122.16V25.2017H133.094V28.77H124.146V29.8071H133.375V31.1431H128.594V32.145H134.887ZM133.129 34.5005V38.1216H124.023V39.2466H133.604V40.6001H122.072V36.856H131.195V35.8716H122.055V34.5005H133.129ZM143.693 27.3813V28.9458H135.906V27.3813H138.859V25.3071H140.793V27.3813H143.693ZM139.826 29.7896C141.848 29.7896 143.289 31.3188 143.289 33.481C143.289 35.6782 141.848 37.2251 139.826 37.2251C137.822 37.2251 136.346 35.6782 136.363 33.481C136.346 31.3188 137.822 29.7896 139.826 29.7896ZM139.826 31.4067C138.789 31.4067 138.068 32.2329 138.086 33.481C138.068 34.7642 138.789 35.5728 139.826 35.5552C140.846 35.5728 141.566 34.7642 141.566 33.481C141.566 32.2329 140.846 31.4067 139.826 31.4067ZM149.6 24.8501V40.7407H147.736V32.9712H146.189V40.02H144.361V25.1841H146.189V31.3892H147.736V24.8501H149.6ZM166.018 37.2251V38.8247H151.498V37.2251H157.756V34.1313H153.098V25.9048H155.049V28.5063H162.414V25.9048H164.365V34.1313H159.689V37.2251H166.018ZM155.049 32.5493H162.414V30.0708H155.049V32.5493ZM172.012 29.0161C172.012 31.5825 172.908 34.2544 175.053 35.6079L173.98 37.1021C172.548 36.2407 171.616 34.7554 171.098 33.0063C170.518 34.9312 169.498 36.5571 168.004 37.4712L166.791 36.0122C169.094 34.606 170.131 31.811 170.131 29.104V26.2563H172.012V29.0161ZM180.766 24.8501V40.7407H178.885V24.8501H180.766ZM177.461 25.1313V39.9673H175.615V31.9341H173.348V30.3169H175.615V25.1313H177.461ZM197.131 37.2075V38.8071H182.611V37.2075H185.969V33.1821C184.703 32.4614 183.938 31.3276 183.947 29.9126C183.93 27.3813 186.426 25.7114 189.836 25.7114C193.264 25.7114 195.76 27.3813 195.76 29.9126C195.76 31.3013 195.021 32.4175 193.791 33.147V37.2075H197.131ZM189.836 27.2583C187.463 27.2583 185.846 28.2603 185.863 29.9126C185.846 31.5474 187.463 32.5669 189.836 32.5669C192.209 32.5669 193.844 31.5474 193.844 29.9126C193.844 28.2603 192.209 27.2583 189.836 27.2583ZM187.902 37.2075H191.805V33.8853C191.198 34.0259 190.539 34.0962 189.836 34.0962C189.15 34.0962 188.5 34.0259 187.902 33.9028V37.2075Z" fill="white"/>
</svg>
