<svg width="267" height="51" viewBox="0 0 267 51" fill="none" xmlns="http://www.w3.org/2000/svg">
<path d="M132.263 2.05963C132.822 1.12672 134.175 1.12672 134.734 2.05963L142.145 14.4116L124.852 14.4115L132.263 2.05963Z" fill="#FF5842"/>
<path d="M0 20.1762C0 16.9925 2.58091 14.4116 5.76462 14.4116H261.235C264.419 14.4116 267 16.9925 267 20.1762V45.1762C267 48.36 264.419 50.9409 261.235 50.9409H5.76462C2.58091 50.9409 0 48.36 0 45.1762V20.1762Z" fill="#FF5842"/>
<path d="M32.2559 30.7388C31.9922 29.2095 30.7617 28.3306 29.2148 28.3306C27.123 28.3306 25.6641 29.9302 25.6641 32.813C25.6641 35.731 27.1406 37.2954 29.2148 37.2954C30.7266 37.2954 31.957 36.4517 32.2559 34.9575H34.5586C34.207 37.4009 32.2031 39.3521 29.1797 39.3521C25.8223 39.3521 23.3613 36.9087 23.3613 32.813C23.3613 28.6997 25.8574 26.2739 29.1797 26.2739C31.9922 26.2739 34.1719 27.9087 34.5586 30.7388H32.2559ZM38.6719 26.4497V39.1763H36.4219V26.4497H38.6719ZM40.8164 39.1763V29.6313H43.0664V39.1763H40.8164ZM41.959 28.2778C41.2559 28.2778 40.6582 27.7329 40.6582 27.0474C40.6582 26.3794 41.2559 25.8345 41.959 25.8345C42.6797 25.8345 43.2598 26.3794 43.2598 27.0474C43.2598 27.7329 42.6797 28.2778 41.959 28.2778ZM49.377 39.3696C46.5293 39.3696 44.8066 37.3306 44.8066 34.4478C44.8066 31.5298 46.582 29.5083 49.377 29.5083C51.6973 29.5083 53.3145 30.8618 53.4727 32.9185H51.3281C51.1523 32.0044 50.4844 31.3013 49.3945 31.3013C48.0059 31.3013 47.0742 32.479 47.0742 34.395C47.0742 36.3638 47.9883 37.5415 49.3945 37.5415C50.3965 37.5415 51.1348 36.9614 51.3281 35.9243H53.4727C53.2969 37.9458 51.7676 39.3696 49.377 39.3696ZM55.1602 39.1763V26.4497H57.4102V33.4634H57.5684L60.9961 29.6313H63.6152L59.9238 33.7446L63.8438 39.1763H61.1719L58.2363 35.0806L57.4102 35.9595V39.1763H55.1602ZM73.9863 29.6313V31.354H72.1055V36.311C72.1055 37.2251 72.5625 37.4185 73.125 37.4185C73.3887 37.4185 73.8281 37.4009 74.1094 37.3833V39.2114C73.8457 39.2642 73.4062 39.2993 72.8438 39.2993C71.1562 39.2993 69.8555 38.4731 69.873 36.6802V31.354H68.502V29.6313H69.873V27.3462H72.1055V29.6313H73.9863ZM79.7871 39.3696C77.0098 39.3696 75.2168 37.4009 75.2168 34.4478C75.2168 31.4771 77.0098 29.5083 79.7871 29.5083C82.582 29.5083 84.3574 31.4771 84.3574 34.4478C84.3574 37.4009 82.582 39.3696 79.7871 39.3696ZM79.8047 37.5767C81.334 37.5767 82.0898 36.188 82.0898 34.4302C82.0898 32.6899 81.334 31.2837 79.8047 31.2837C78.2402 31.2837 77.4844 32.6899 77.4844 34.4302C77.4844 36.188 78.2402 37.5767 79.8047 37.5767ZM94.5352 39.3696C91.7578 39.3696 89.9648 37.4009 89.9648 34.4478C89.9648 31.4771 91.7578 29.5083 94.5352 29.5083C97.3301 29.5083 99.1055 31.4771 99.1055 34.4478C99.1055 37.4009 97.3301 39.3696 94.5352 39.3696ZM94.5527 37.5767C96.082 37.5767 96.8379 36.188 96.8379 34.4302C96.8379 32.6899 96.082 31.2837 94.5527 31.2837C92.9883 31.2837 92.2324 32.6899 92.2324 34.4302C92.2324 36.188 92.9883 37.5767 94.5527 37.5767ZM100.846 42.7622V29.6313H103.043V31.1958H103.184C103.535 30.5103 104.238 29.5083 105.926 29.5083C108.123 29.5083 109.863 31.231 109.863 34.4126C109.863 37.5591 108.176 39.3521 105.926 39.3521C104.273 39.3521 103.535 38.3677 103.184 37.6646H103.096V42.7622H100.846ZM103.043 34.395C103.043 36.2583 103.852 37.5063 105.311 37.5063C106.787 37.5063 107.578 36.2056 107.578 34.395C107.578 32.6196 106.805 31.3364 105.311 31.3364C103.852 31.3364 103.043 32.5493 103.043 34.395ZM115.857 39.3696C112.975 39.3696 111.217 37.4536 111.217 34.4653C111.217 31.5122 113.01 29.5083 115.734 29.5083C118.072 29.5083 120.094 30.9673 120.094 34.3247V35.0278H113.432C113.458 36.6538 114.416 37.6118 115.875 37.6118C116.859 37.6118 117.527 37.1899 117.809 36.6274H120.006C119.602 38.2798 118.072 39.3696 115.857 39.3696ZM113.449 33.4985H117.949C117.932 32.1978 117.07 31.2485 115.77 31.2485C114.416 31.2485 113.52 32.2769 113.449 33.4985ZM124.084 33.5864V39.1763H121.834V29.6313H123.979V31.2485H124.102C124.541 30.1763 125.508 29.5083 126.932 29.5083C128.918 29.5083 130.219 30.8091 130.201 33.0942V39.1763H127.969V33.4458C127.969 32.1626 127.283 31.4067 126.105 31.4067C124.91 31.4067 124.084 32.1978 124.084 33.5864ZM141.381 29.6313V31.354H139.5V36.311C139.5 37.2251 139.957 37.4185 140.52 37.4185C140.783 37.4185 141.223 37.4009 141.504 37.3833V39.2114C141.24 39.2642 140.801 39.2993 140.238 39.2993C138.551 39.2993 137.25 38.4731 137.268 36.6802V31.354H135.896V29.6313H137.268V27.3462H139.5V29.6313H141.381ZM145.564 33.5864V39.1763H143.314V26.4497H145.512V31.2485H145.635C146.074 30.1763 146.988 29.5083 148.465 29.5083C150.451 29.5083 151.752 30.7915 151.752 33.0942V39.1763H149.52V33.4458C149.52 32.145 148.816 31.4067 147.639 31.4067C146.426 31.4067 145.564 32.1978 145.564 33.5864ZM158.115 39.3696C155.232 39.3696 153.475 37.4536 153.475 34.4653C153.475 31.5122 155.268 29.5083 157.992 29.5083C160.33 29.5083 162.352 30.9673 162.352 34.3247V35.0278H155.689C155.716 36.6538 156.674 37.6118 158.133 37.6118C159.117 37.6118 159.785 37.1899 160.066 36.6274H162.264C161.859 38.2798 160.33 39.3696 158.115 39.3696ZM155.707 33.4985H160.207C160.189 32.1978 159.328 31.2485 158.027 31.2485C156.674 31.2485 155.777 32.2769 155.707 33.4985ZM168.363 39.1763V29.6313H170.613V39.1763H168.363ZM169.506 28.2778C168.803 28.2778 168.205 27.7329 168.205 27.0474C168.205 26.3794 168.803 25.8345 169.506 25.8345C170.227 25.8345 170.807 26.3794 170.807 27.0474C170.807 27.7329 170.227 28.2778 169.506 28.2778ZM175.008 33.5864V39.1763H172.758V29.6313H174.902V31.2485H175.025C175.465 30.1763 176.432 29.5083 177.855 29.5083C179.842 29.5083 181.143 30.8091 181.125 33.0942V39.1763H178.893V33.4458C178.893 32.1626 178.207 31.4067 177.029 31.4067C175.834 31.4067 175.008 32.1978 175.008 33.5864ZM191.443 29.6313L188.033 39.1763H185.572L182.162 29.6313H184.553L186.75 36.7329H186.855L189.07 29.6313H191.443ZM192.85 39.1763V29.6313H195.1V39.1763H192.85ZM193.992 28.2778C193.289 28.2778 192.691 27.7329 192.691 27.0474C192.691 26.3794 193.289 25.8345 193.992 25.8345C194.713 25.8345 195.293 26.3794 195.293 27.0474C195.293 27.7329 194.713 28.2778 193.992 28.2778ZM202.008 29.6313V31.354H200.127V36.311C200.127 37.2251 200.584 37.4185 201.146 37.4185C201.41 37.4185 201.85 37.4009 202.131 37.3833V39.2114C201.867 39.2642 201.428 39.2993 200.865 39.2993C199.178 39.2993 197.877 38.4731 197.895 36.6802V31.354H196.523V29.6313H197.895V27.3462H200.127V29.6313H202.008ZM203.291 36.4868C203.291 34.3423 205.066 33.7095 206.842 33.604C207.501 33.5601 208.872 33.481 209.285 33.4634V32.7075C209.285 31.7583 208.67 31.2134 207.562 31.2134C206.561 31.2134 205.945 31.6704 205.77 32.356H203.607C203.766 30.7388 205.225 29.5083 207.615 29.5083C209.426 29.5083 211.518 30.2466 211.518 32.7954V39.1763H209.373V37.8579H209.303C208.881 38.6665 207.984 39.3696 206.49 39.3696C204.662 39.3696 203.291 38.3677 203.291 36.4868ZM205.453 36.4692C205.453 37.2954 206.121 37.7173 207.07 37.7173C208.424 37.7173 209.303 36.8208 209.303 35.7485V34.9575L207.193 35.0981C206.121 35.186 205.453 35.6255 205.453 36.4692ZM218.391 29.6313V31.354H216.51V36.311C216.51 37.2251 216.967 37.4185 217.529 37.4185C217.793 37.4185 218.232 37.4009 218.514 37.3833V39.2114C218.25 39.2642 217.811 39.2993 217.248 39.2993C215.561 39.2993 214.26 38.4731 214.277 36.6802V31.354H212.906V29.6313H214.277V27.3462H216.51V29.6313H218.391ZM220.113 39.1763V29.6313H222.363V39.1763H220.113ZM221.256 28.2778C220.553 28.2778 219.955 27.7329 219.955 27.0474C219.955 26.3794 220.553 25.8345 221.256 25.8345C221.977 25.8345 222.557 26.3794 222.557 27.0474C222.557 27.7329 221.977 28.2778 221.256 28.2778ZM228.674 39.3696C225.896 39.3696 224.104 37.4009 224.104 34.4478C224.104 31.4771 225.896 29.5083 228.674 29.5083C231.469 29.5083 233.244 31.4771 233.244 34.4478C233.244 37.4009 231.469 39.3696 228.674 39.3696ZM228.691 37.5767C230.221 37.5767 230.977 36.188 230.977 34.4302C230.977 32.6899 230.221 31.2837 228.691 31.2837C227.127 31.2837 226.371 32.6899 226.371 34.4302C226.371 36.188 227.127 37.5767 228.691 37.5767ZM237.234 33.5864V39.1763H234.984V29.6313H237.129V31.2485H237.252C237.691 30.1763 238.658 29.5083 240.082 29.5083C242.068 29.5083 243.369 30.8091 243.352 33.0942V39.1763H241.119V33.4458C241.119 32.1626 240.434 31.4067 239.256 31.4067C238.061 31.4067 237.234 32.1978 237.234 33.5864Z" fill="white"/>
</svg>
