<svg width="267" height="51" viewBox="0 0 267 51" fill="none" xmlns="http://www.w3.org/2000/svg">
<path d="M132.263 2.05963C132.822 1.12672 134.175 1.12672 134.734 2.05963L142.145 14.4116L124.852 14.4115L132.263 2.05963Z" fill="#FF5842"/>
<path d="M0 20.1762C0 16.9925 2.58091 14.4116 5.76462 14.4116H261.235C264.419 14.4116 267 16.9925 267 20.1762V45.1762C267 48.36 264.419 50.9409 261.235 50.9409H5.76462C2.58091 50.9409 0 48.36 0 45.1762V20.1762Z" fill="#FF5842"/>
<path d="M28.1152 28.3657V26.4497H38.2578V28.3657H34.3379V39.1763H32.0527V28.3657H28.1152ZM38.2227 36.4868C38.2227 34.3423 39.998 33.7095 41.7734 33.604C42.4326 33.5601 43.8037 33.481 44.2168 33.4634V32.7075C44.2168 31.7583 43.6016 31.2134 42.4941 31.2134C41.4922 31.2134 40.877 31.6704 40.7012 32.356H38.5391C38.6973 30.7388 40.1562 29.5083 42.5469 29.5083C44.3574 29.5083 46.4492 30.2466 46.4492 32.7954V39.1763H44.3047V37.8579H44.2344C43.8125 38.6665 42.916 39.3696 41.4219 39.3696C39.5938 39.3696 38.2227 38.3677 38.2227 36.4868ZM40.3848 36.4692C40.3848 37.2954 41.0527 37.7173 42.002 37.7173C43.3555 37.7173 44.2344 36.8208 44.2344 35.7485V34.9575L42.125 35.0981C41.0527 35.186 40.3848 35.6255 40.3848 36.4692ZM48.5586 42.7622V29.6313H50.7559V31.1958H50.8965C51.248 30.5103 51.9512 29.5083 53.6387 29.5083C55.8359 29.5083 57.5762 31.231 57.5762 34.4126C57.5762 37.5591 55.8887 39.3521 53.6387 39.3521C51.9863 39.3521 51.248 38.3677 50.8965 37.6646H50.8086V42.7622H48.5586ZM50.7559 34.395C50.7559 36.2583 51.5645 37.5063 53.0234 37.5063C54.5 37.5063 55.291 36.2056 55.291 34.395C55.291 32.6196 54.5176 31.3364 53.0234 31.3364C51.5645 31.3364 50.7559 32.5493 50.7559 34.395ZM68.3691 29.6313V31.354H66.4883V36.311C66.4883 37.2251 66.9453 37.4185 67.5078 37.4185C67.7715 37.4185 68.2109 37.4009 68.4922 37.3833V39.2114C68.2285 39.2642 67.7891 39.2993 67.2266 39.2993C65.5391 39.2993 64.2383 38.4731 64.2559 36.6802V31.354H62.8848V29.6313H64.2559V27.3462H66.4883V29.6313H68.3691ZM74.1699 39.3696C71.3926 39.3696 69.5996 37.4009 69.5996 34.4478C69.5996 31.4771 71.3926 29.5083 74.1699 29.5083C76.9648 29.5083 78.7402 31.4771 78.7402 34.4478C78.7402 37.4009 76.9648 39.3696 74.1699 39.3696ZM74.1875 37.5767C75.7168 37.5767 76.4727 36.188 76.4727 34.4302C76.4727 32.6899 75.7168 31.2837 74.1875 31.2837C72.623 31.2837 71.8672 32.6899 71.8672 34.4302C71.8672 36.188 72.623 37.5767 74.1875 37.5767ZM88.918 39.3696C86.1406 39.3696 84.3477 37.4009 84.3477 34.4478C84.3477 31.4771 86.1406 29.5083 88.918 29.5083C91.7129 29.5083 93.4883 31.4771 93.4883 34.4478C93.4883 37.4009 91.7129 39.3696 88.918 39.3696ZM88.9355 37.5767C90.4648 37.5767 91.2207 36.188 91.2207 34.4302C91.2207 32.6899 90.4648 31.2837 88.9355 31.2837C87.3711 31.2837 86.6152 32.6899 86.6152 34.4302C86.6152 36.188 87.3711 37.5767 88.9355 37.5767ZM95.2285 42.7622V29.6313H97.4258V31.1958H97.5664C97.918 30.5103 98.6211 29.5083 100.309 29.5083C102.506 29.5083 104.246 31.231 104.246 34.4126C104.246 37.5591 102.559 39.3521 100.309 39.3521C98.6562 39.3521 97.918 38.3677 97.5664 37.6646H97.4785V42.7622H95.2285ZM97.4258 34.395C97.4258 36.2583 98.2344 37.5063 99.6934 37.5063C101.17 37.5063 101.961 36.2056 101.961 34.395C101.961 32.6196 101.188 31.3364 99.6934 31.3364C98.2344 31.3364 97.4258 32.5493 97.4258 34.395ZM110.24 39.3696C107.357 39.3696 105.6 37.4536 105.6 34.4653C105.6 31.5122 107.393 29.5083 110.117 29.5083C112.455 29.5083 114.477 30.9673 114.477 34.3247V35.0278H107.814C107.841 36.6538 108.799 37.6118 110.258 37.6118C111.242 37.6118 111.91 37.1899 112.191 36.6274H114.389C113.984 38.2798 112.455 39.3696 110.24 39.3696ZM107.832 33.4985H112.332C112.314 32.1978 111.453 31.2485 110.152 31.2485C108.799 31.2485 107.902 32.2769 107.832 33.4985ZM118.467 33.5864V39.1763H116.217V29.6313H118.361V31.2485H118.484C118.924 30.1763 119.891 29.5083 121.314 29.5083C123.301 29.5083 124.602 30.8091 124.584 33.0942V39.1763H122.352V33.4458C122.352 32.1626 121.666 31.4067 120.488 31.4067C119.293 31.4067 118.467 32.1978 118.467 33.5864ZM135.764 29.6313V31.354H133.883V36.311C133.883 37.2251 134.34 37.4185 134.902 37.4185C135.166 37.4185 135.605 37.4009 135.887 37.3833V39.2114C135.623 39.2642 135.184 39.2993 134.621 39.2993C132.934 39.2993 131.633 38.4731 131.65 36.6802V31.354H130.279V29.6313H131.65V27.3462H133.883V29.6313H135.764ZM139.947 33.5864V39.1763H137.697V26.4497H139.895V31.2485H140.018C140.457 30.1763 141.371 29.5083 142.848 29.5083C144.834 29.5083 146.135 30.7915 146.135 33.0942V39.1763H143.902V33.4458C143.902 32.145 143.199 31.4067 142.021 31.4067C140.809 31.4067 139.947 32.1978 139.947 33.5864ZM152.498 39.3696C149.615 39.3696 147.857 37.4536 147.857 34.4653C147.857 31.5122 149.65 29.5083 152.375 29.5083C154.713 29.5083 156.734 30.9673 156.734 34.3247V35.0278H150.072C150.099 36.6538 151.057 37.6118 152.516 37.6118C153.5 37.6118 154.168 37.1899 154.449 36.6274H156.646C156.242 38.2798 154.713 39.3696 152.498 39.3696ZM150.09 33.4985H154.59C154.572 32.1978 153.711 31.2485 152.41 31.2485C151.057 31.2485 150.16 32.2769 150.09 33.4985ZM162.746 39.1763V29.6313H164.996V39.1763H162.746ZM163.889 28.2778C163.186 28.2778 162.588 27.7329 162.588 27.0474C162.588 26.3794 163.186 25.8345 163.889 25.8345C164.609 25.8345 165.189 26.3794 165.189 27.0474C165.189 27.7329 164.609 28.2778 163.889 28.2778ZM169.391 33.5864V39.1763H167.141V29.6313H169.285V31.2485H169.408C169.848 30.1763 170.814 29.5083 172.238 29.5083C174.225 29.5083 175.525 30.8091 175.508 33.0942V39.1763H173.275V33.4458C173.275 32.1626 172.59 31.4067 171.412 31.4067C170.217 31.4067 169.391 32.1978 169.391 33.5864ZM185.826 29.6313L182.416 39.1763H179.955L176.545 29.6313H178.936L181.133 36.7329H181.238L183.453 29.6313H185.826ZM187.232 39.1763V29.6313H189.482V39.1763H187.232ZM188.375 28.2778C187.672 28.2778 187.074 27.7329 187.074 27.0474C187.074 26.3794 187.672 25.8345 188.375 25.8345C189.096 25.8345 189.676 26.3794 189.676 27.0474C189.676 27.7329 189.096 28.2778 188.375 28.2778ZM196.391 29.6313V31.354H194.51V36.311C194.51 37.2251 194.967 37.4185 195.529 37.4185C195.793 37.4185 196.232 37.4009 196.514 37.3833V39.2114C196.25 39.2642 195.811 39.2993 195.248 39.2993C193.561 39.2993 192.26 38.4731 192.277 36.6802V31.354H190.906V29.6313H192.277V27.3462H194.51V29.6313H196.391ZM197.674 36.4868C197.674 34.3423 199.449 33.7095 201.225 33.604C201.884 33.5601 203.255 33.481 203.668 33.4634V32.7075C203.668 31.7583 203.053 31.2134 201.945 31.2134C200.943 31.2134 200.328 31.6704 200.152 32.356H197.99C198.148 30.7388 199.607 29.5083 201.998 29.5083C203.809 29.5083 205.9 30.2466 205.9 32.7954V39.1763H203.756V37.8579H203.686C203.264 38.6665 202.367 39.3696 200.873 39.3696C199.045 39.3696 197.674 38.3677 197.674 36.4868ZM199.836 36.4692C199.836 37.2954 200.504 37.7173 201.453 37.7173C202.807 37.7173 203.686 36.8208 203.686 35.7485V34.9575L201.576 35.0981C200.504 35.186 199.836 35.6255 199.836 36.4692ZM212.773 29.6313V31.354H210.893V36.311C210.893 37.2251 211.35 37.4185 211.912 37.4185C212.176 37.4185 212.615 37.4009 212.896 37.3833V39.2114C212.633 39.2642 212.193 39.2993 211.631 39.2993C209.943 39.2993 208.643 38.4731 208.66 36.6802V31.354H207.289V29.6313H208.66V27.3462H210.893V29.6313H212.773ZM214.496 39.1763V29.6313H216.746V39.1763H214.496ZM215.639 28.2778C214.936 28.2778 214.338 27.7329 214.338 27.0474C214.338 26.3794 214.936 25.8345 215.639 25.8345C216.359 25.8345 216.939 26.3794 216.939 27.0474C216.939 27.7329 216.359 28.2778 215.639 28.2778ZM223.057 39.3696C220.279 39.3696 218.486 37.4009 218.486 34.4478C218.486 31.4771 220.279 29.5083 223.057 29.5083C225.852 29.5083 227.627 31.4771 227.627 34.4478C227.627 37.4009 225.852 39.3696 223.057 39.3696ZM223.074 37.5767C224.604 37.5767 225.359 36.188 225.359 34.4302C225.359 32.6899 224.604 31.2837 223.074 31.2837C221.51 31.2837 220.754 32.6899 220.754 34.4302C220.754 36.188 221.51 37.5767 223.074 37.5767ZM231.617 33.5864V39.1763H229.367V29.6313H231.512V31.2485H231.635C232.074 30.1763 233.041 29.5083 234.465 29.5083C236.451 29.5083 237.752 30.8091 237.734 33.0942V39.1763H235.502V33.4458C235.502 32.1626 234.816 31.4067 233.639 31.4067C232.443 31.4067 231.617 32.1978 231.617 33.5864Z" fill="white"/>
</svg>
