<svg width="227" height="51" viewBox="0 0 227 51" fill="none" xmlns="http://www.w3.org/2000/svg">
<path d="M112.265 2.05963C112.824 1.12672 114.176 1.12672 114.736 2.05963L122.147 14.4116L104.854 14.4115L112.265 2.05963Z" fill="#FF5842"/>
<path d="M0 20.1762C0 16.9925 2.58091 14.4116 5.76462 14.4116H221.235C224.419 14.4116 227 16.9925 227 20.1762V45.1762C227 48.36 224.419 50.9409 221.235 50.9409H5.76462C2.58091 50.9409 0 48.36 0 45.1762V20.1762Z" fill="#FF5842"/>
<path d="M22.8652 25.7817V27.3286H18.5059V28.6997H22.707V30.1938H18.5059V31.6704C20.4482 31.6528 21.793 31.5825 23.3398 31.3013L23.5508 32.8833C21.6875 33.1821 20.1406 33.2524 17.6797 33.2524H16.625V25.7817H22.8652ZM29.6152 24.8677V33.8853H27.752V30.1235H26.0996V33.7622H24.2715V25.1665H26.0996V28.5239H27.752V24.8677H29.6152ZM20.8262 34.4653V35.9243H27.6816V34.4653H29.6152V40.5474H18.8926V34.4653H20.8262ZM20.8262 38.9653H27.6816V37.4536H20.8262V38.9653ZM39.3359 27.3813V28.9458H31.5488V27.3813H34.502V25.3071H36.4355V27.3813H39.3359ZM35.4688 29.7896C37.4902 29.7896 38.9316 31.3188 38.9316 33.481C38.9316 35.6782 37.4902 37.2251 35.4688 37.2251C33.4648 37.2251 31.9883 35.6782 32.0059 33.481C31.9883 31.3188 33.4648 29.7896 35.4688 29.7896ZM35.4688 31.4067C34.4316 31.4067 33.7109 32.2329 33.7285 33.481C33.7109 34.7642 34.4316 35.5728 35.4688 35.5552C36.4883 35.5728 37.209 34.7642 37.209 33.481C37.209 32.2329 36.4883 31.4067 35.4688 31.4067ZM45.2422 24.8501V40.7407H43.3789V32.9712H41.832V40.02H40.0039V25.1841H41.832V31.3892H43.3789V24.8501H45.2422ZM53.0117 28.6646C53.0117 31.6177 54.418 34.5181 56.9492 35.6255L55.7715 37.1899C53.9697 36.311 52.7041 34.6235 52.0273 32.5493C51.333 34.7378 50.041 36.5571 48.2129 37.4888L46.9824 35.9067C49.5664 34.6938 51.0078 31.6353 51.0254 28.6646V26.1333H53.0117V28.6646ZM60.4648 24.8501V40.7583H58.5312V31.5649H55.1914V29.9829H58.5312V24.8501H60.4648ZM81.4883 37.2603V38.8599H66.9688V37.2603H73.2441V33.9731H75.1777V37.2603H81.4883ZM80.1875 27.1528V28.7349H75.2305C75.3623 30.7124 77.4277 32.5317 80.8555 32.9888L80.1348 34.5181C77.3838 34.1313 75.2656 32.9097 74.2109 31.1606C73.1562 32.9097 71.0557 34.1313 68.3047 34.5181L67.5664 32.9888C71.0117 32.5317 73.0684 30.7124 73.2266 28.7349H68.252V27.1528H73.2441V25.0962H75.1777V27.1528H80.1875ZM96.2012 24.8501V40.7407H94.3379V32.6372H92.5449V39.9321H90.752V25.1489H92.5449V31.0728H94.3379V24.8501H96.2012ZM88.959 26.731V28.313H84.9863V35.3794C86.7178 35.3618 88.1416 35.2739 89.75 34.9751L89.8906 36.5747C87.9746 36.9614 86.3047 37.0142 84.0898 37.0317H83.0176V26.731H88.959ZM103.777 27.7153C103.777 29.6665 105.043 31.4946 107.521 32.2505L106.59 33.7798C104.806 33.2261 103.54 32.0923 102.846 30.6509C102.143 32.3208 100.798 33.6479 98.8906 34.2896L97.9062 32.7427C100.473 31.8989 101.809 29.8423 101.809 27.7329V27.5396H98.4512V25.9575H107.082V27.5396H103.777V27.7153ZM110.615 24.8501V28.6646H112.83V30.2642H110.615V34.3247H108.664V24.8501H110.615ZM105.447 34.6763C108.734 34.6763 110.756 35.7837 110.773 37.6821C110.756 39.5981 108.734 40.7231 105.447 40.7231C102.125 40.7231 100.068 39.5981 100.068 37.6821C100.068 35.7837 102.125 34.6763 105.447 34.6763ZM105.447 36.2056C103.268 36.2056 102.02 36.7153 102.02 37.6821C102.02 38.6665 103.268 39.1938 105.447 39.1938C107.627 39.1938 108.84 38.6665 108.84 37.6821C108.84 36.7153 107.627 36.2056 105.447 36.2056ZM120.863 25.0962C124.484 25.0962 126.576 26.063 126.594 27.8208C126.576 29.5962 124.484 30.5454 120.863 30.563C117.242 30.5454 115.133 29.5962 115.133 27.8208C115.133 26.063 117.242 25.0962 120.863 25.0962ZM120.863 26.5376C118.438 26.5376 117.172 26.9946 117.189 27.8208C117.172 28.6997 118.438 29.104 120.863 29.104C123.324 29.104 124.572 28.6997 124.572 27.8208C124.572 26.9946 123.324 26.5376 120.863 26.5376ZM128.123 31.4067V32.9712H113.639V31.4067H128.123ZM126.312 34.0435V37.9282H117.277V39.106H126.752V40.6001H115.361V36.5396H124.396V35.4849H115.344V34.0435H126.312ZM137.879 25.3423C139.206 25.3423 140.34 25.8081 141.096 26.5903H144.822V24.8501H146.773V32.8833H144.822V31.354H141.131C140.375 32.1626 139.224 32.6372 137.879 32.6372C135.471 32.6372 133.678 31.1431 133.678 28.981C133.678 26.8364 135.471 25.3423 137.879 25.3423ZM137.879 26.9243C136.508 26.9243 135.541 27.7329 135.541 28.981C135.541 30.2466 136.508 31.0552 137.879 31.0552C139.197 31.0552 140.164 30.2466 140.182 28.981C140.164 27.7329 139.197 26.9243 137.879 26.9243ZM146.773 33.604V37.7173H138.266V39.0005H147.283V40.5474H136.314V36.2759H144.822V35.1157H136.297V33.604H146.773ZM141.939 28.1021C142.001 28.3833 142.045 28.6733 142.045 28.981C142.045 29.271 142.01 29.561 141.939 29.8247H144.822V28.1021H141.939ZM153.365 26.0103C155.519 26.0103 157.109 27.8032 157.391 30.7036H160.414V24.8501H162.348V40.7583H160.414V32.2856H157.408C157.197 35.353 155.58 37.2427 153.365 37.2427C150.975 37.2427 149.287 35.0806 149.287 31.6177C149.287 28.1899 150.975 26.0103 153.365 26.0103ZM153.365 27.7681C152.047 27.7681 151.15 29.1919 151.168 31.6177C151.15 34.061 152.047 35.4849 153.365 35.4849C154.684 35.4849 155.562 34.061 155.58 31.6177C155.562 29.1919 154.684 27.7681 153.365 27.7681ZM179.1 37.2251V38.8247H164.58V37.2251H170.838V34.1313H166.18V25.9048H168.131V28.5063H175.496V25.9048H177.447V34.1313H172.771V37.2251H179.1ZM168.131 32.5493H175.496V30.0708H168.131V32.5493ZM185.094 29.0161C185.094 31.5825 185.99 34.2544 188.135 35.6079L187.062 37.1021C185.63 36.2407 184.698 34.7554 184.18 33.0063C183.6 34.9312 182.58 36.5571 181.086 37.4712L179.873 36.0122C182.176 34.606 183.213 31.811 183.213 29.104V26.2563H185.094V29.0161ZM193.848 24.8501V40.7407H191.967V24.8501H193.848ZM190.543 25.1313V39.9673H188.697V31.9341H186.43V30.3169H188.697V25.1313H190.543ZM210.213 37.2075V38.8071H195.693V37.2075H199.051V33.1821C197.785 32.4614 197.021 31.3276 197.029 29.9126C197.012 27.3813 199.508 25.7114 202.918 25.7114C206.346 25.7114 208.842 27.3813 208.842 29.9126C208.842 31.3013 208.104 32.4175 206.873 33.147V37.2075H210.213ZM202.918 27.2583C200.545 27.2583 198.928 28.2603 198.945 29.9126C198.928 31.5474 200.545 32.5669 202.918 32.5669C205.291 32.5669 206.926 31.5474 206.926 29.9126C206.926 28.2603 205.291 27.2583 202.918 27.2583ZM200.984 37.2075H204.887V33.8853C204.28 34.0259 203.621 34.0962 202.918 34.0962C202.232 34.0962 201.582 34.0259 200.984 33.9028V37.2075Z" fill="white"/>
</svg>
