<svg width="337" height="51" viewBox="0 0 337 51" fill="none" xmlns="http://www.w3.org/2000/svg">
<path d="M167.265 2.05963C167.824 1.12672 169.176 1.12672 169.736 2.05963L177.147 14.4116L159.854 14.4115L167.265 2.05963Z" fill="#FF5842"/>
<path d="M0 20.1762C0 16.9925 2.58091 14.4116 5.76462 14.4116H331.235C334.419 14.4116 337 16.9925 337 20.1762V45.1762C337 48.36 334.419 50.9409 331.235 50.9409H5.76462C2.58091 50.9409 0 48.36 0 45.1762V20.1762Z" fill="#FF5842"/>
<path d="M19.2051 26.4497H21.4727V35.397C21.4727 37.8579 19.8203 39.3521 17.377 39.3521C15.1445 39.3521 13.4395 38.1392 13.4395 35.8013H15.7246C15.7246 36.8384 16.4277 37.4712 17.4648 37.4712C18.5723 37.4712 19.1875 36.7505 19.2051 35.397V26.4497ZM27.8887 39.3696C25.1113 39.3696 23.3184 37.4009 23.3184 34.4478C23.3184 31.4771 25.1113 29.5083 27.8887 29.5083C30.6836 29.5083 32.459 31.4771 32.459 34.4478C32.459 37.4009 30.6836 39.3696 27.8887 39.3696ZM27.9062 37.5767C29.4355 37.5767 30.1914 36.188 30.1914 34.4302C30.1914 32.6899 29.4355 31.2837 27.9062 31.2837C26.3418 31.2837 25.5859 32.6899 25.5859 34.4302C25.5859 36.188 26.3418 37.5767 27.9062 37.5767ZM34.1992 39.1763V29.6313H36.4492V39.1763H34.1992ZM35.3418 28.2778C34.6387 28.2778 34.041 27.7329 34.041 27.0474C34.041 26.3794 34.6387 25.8345 35.3418 25.8345C36.0625 25.8345 36.6426 26.3794 36.6426 27.0474C36.6426 27.7329 36.0625 28.2778 35.3418 28.2778ZM40.8438 33.5864V39.1763H38.5938V29.6313H40.7383V31.2485H40.8613C41.3008 30.1763 42.2676 29.5083 43.6914 29.5083C45.6777 29.5083 46.9785 30.8091 46.9609 33.0942V39.1763H44.7285V33.4458C44.7285 32.1626 44.043 31.4067 42.8652 31.4067C41.6699 31.4067 40.8438 32.1978 40.8438 33.5864ZM58.2109 29.6313V31.354H56.2422V39.1763H53.9922V31.354H52.5684V29.6313H53.9922V28.7173C53.9922 26.854 55.1523 25.8521 56.9805 25.8521C57.5078 25.8521 57.9824 25.9048 58.4043 25.9927V27.7681C58.0352 27.7153 57.7539 27.6978 57.5957 27.6978C56.6816 27.6978 56.2422 28.0669 56.2422 28.9282V29.6313H58.2109ZM59.8105 39.1763V29.6313H61.9902V31.2134H62.0957C62.4297 30.1235 63.3613 29.4907 64.4512 29.4907C64.6973 29.4907 65.0488 29.5083 65.2598 29.5435V31.6177C65.0664 31.5474 64.5918 31.4771 64.2227 31.4771C62.9746 31.4771 62.0605 32.3384 62.0605 33.5513V39.1763H59.8105ZM66.5957 39.1763V29.6313H68.8457V39.1763H66.5957ZM67.7383 28.2778C67.0352 28.2778 66.4375 27.7329 66.4375 27.0474C66.4375 26.3794 67.0352 25.8345 67.7383 25.8345C68.459 25.8345 69.0391 26.3794 69.0391 27.0474C69.0391 27.7329 68.459 28.2778 67.7383 28.2778ZM75.2266 39.3696C72.3438 39.3696 70.5859 37.4536 70.5859 34.4653C70.5859 31.5122 72.3789 29.5083 75.1035 29.5083C77.4414 29.5083 79.4629 30.9673 79.4629 34.3247V35.0278H72.8008C72.8271 36.6538 73.7852 37.6118 75.2441 37.6118C76.2285 37.6118 76.8965 37.1899 77.1777 36.6274H79.375C78.9707 38.2798 77.4414 39.3696 75.2266 39.3696ZM72.8184 33.4985H77.3184C77.3008 32.1978 76.4395 31.2485 75.1387 31.2485C73.7852 31.2485 72.8887 32.2769 72.8184 33.4985ZM83.4531 33.5864V39.1763H81.2031V29.6313H83.3477V31.2485H83.4707C83.9102 30.1763 84.877 29.5083 86.3008 29.5083C88.2871 29.5083 89.5879 30.8091 89.5703 33.0942V39.1763H87.3379V33.4458C87.3379 32.1626 86.6523 31.4067 85.4746 31.4067C84.2793 31.4067 83.4531 32.1978 83.4531 33.5864ZM95.2656 39.3521C93.0156 39.3521 91.3281 37.5591 91.3281 34.4126C91.3281 31.231 93.0684 29.5083 95.2832 29.5083C96.9707 29.5083 97.6738 30.5103 98.0078 31.1958H98.0957V26.4497H100.328V39.1763H98.1309V37.6646H98.0078C97.6562 38.3677 96.918 39.3521 95.2656 39.3521ZM95.8809 37.5063C97.3223 37.5063 98.1484 36.2583 98.1484 34.395C98.1484 32.5493 97.3398 31.3364 95.8809 31.3364C94.3867 31.3364 93.6133 32.6196 93.6133 34.395C93.6133 36.2056 94.4043 37.5063 95.8809 37.5063ZM108.01 32.356C107.869 31.6353 107.271 31.1782 106.322 31.1782C105.355 31.1782 104.652 31.6528 104.67 32.3032C104.652 32.7954 105.057 33.1646 106.023 33.3931L107.641 33.7271C109.451 34.1313 110.312 34.9575 110.33 36.3286C110.312 38.1216 108.748 39.3696 106.252 39.3696C103.826 39.3696 102.385 38.2798 102.156 36.4517H104.441C104.582 37.2603 105.215 37.6646 106.252 37.6646C107.324 37.6646 108.045 37.2251 108.045 36.522C108.045 35.9771 107.605 35.6255 106.656 35.4146L105.127 35.0806C103.352 34.729 102.438 33.7974 102.438 32.4263C102.438 30.6685 103.949 29.5083 106.287 29.5083C108.572 29.5083 109.979 30.6157 110.137 32.356H108.01ZM118.293 39.1763L115.586 29.6313H117.871L119.559 36.3462H119.646L121.352 29.6313H123.619L125.342 36.311H125.43L127.1 29.6313H129.385L126.678 39.1763H124.34L122.547 32.7075H122.424L120.631 39.1763H118.293ZM133.059 33.5864V39.1763H130.809V26.4497H133.006V31.2485H133.129C133.568 30.1763 134.482 29.5083 135.959 29.5083C137.945 29.5083 139.246 30.7915 139.246 33.0942V39.1763H137.014V33.4458C137.014 32.145 136.311 31.4067 135.133 31.4067C133.92 31.4067 133.059 32.1978 133.059 33.5864ZM145.539 39.3696C142.762 39.3696 140.969 37.4009 140.969 34.4478C140.969 31.4771 142.762 29.5083 145.539 29.5083C148.334 29.5083 150.109 31.4771 150.109 34.4478C150.109 37.4009 148.334 39.3696 145.539 39.3696ZM145.557 37.5767C147.086 37.5767 147.842 36.188 147.842 34.4302C147.842 32.6899 147.086 31.2837 145.557 31.2837C143.992 31.2837 143.236 32.6899 143.236 34.4302C143.236 36.188 143.992 37.5767 145.557 37.5767ZM155.682 36.4868C155.682 34.3423 157.457 33.7095 159.232 33.604C159.892 33.5601 161.263 33.481 161.676 33.4634V32.7075C161.676 31.7583 161.061 31.2134 159.953 31.2134C158.951 31.2134 158.336 31.6704 158.16 32.356H155.998C156.156 30.7388 157.615 29.5083 160.006 29.5083C161.816 29.5083 163.908 30.2466 163.908 32.7954V39.1763H161.764V37.8579H161.693C161.271 38.6665 160.375 39.3696 158.881 39.3696C157.053 39.3696 155.682 38.3677 155.682 36.4868ZM157.844 36.4692C157.844 37.2954 158.512 37.7173 159.461 37.7173C160.814 37.7173 161.693 36.8208 161.693 35.7485V34.9575L159.584 35.0981C158.512 35.186 157.844 35.6255 157.844 36.4692ZM166.018 39.1763V29.6313H168.197V31.2134H168.303C168.637 30.1235 169.568 29.4907 170.658 29.4907C170.904 29.4907 171.256 29.5083 171.467 29.5435V31.6177C171.273 31.5474 170.799 31.4771 170.43 31.4771C169.182 31.4771 168.268 32.3384 168.268 33.5513V39.1763H166.018ZM176.74 39.3696C173.857 39.3696 172.1 37.4536 172.1 34.4653C172.1 31.5122 173.893 29.5083 176.617 29.5083C178.955 29.5083 180.977 30.9673 180.977 34.3247V35.0278H174.314C174.341 36.6538 175.299 37.6118 176.758 37.6118C177.742 37.6118 178.41 37.1899 178.691 36.6274H180.889C180.484 38.2798 178.955 39.3696 176.74 39.3696ZM174.332 33.4985H178.832C178.814 32.1978 177.953 31.2485 176.652 31.2485C175.299 31.2485 174.402 32.2769 174.332 33.4985ZM191.154 39.3696C188.307 39.3696 186.584 37.3306 186.584 34.4478C186.584 31.5298 188.359 29.5083 191.154 29.5083C193.475 29.5083 195.092 30.8618 195.25 32.9185H193.105C192.93 32.0044 192.262 31.3013 191.172 31.3013C189.783 31.3013 188.852 32.479 188.852 34.395C188.852 36.3638 189.766 37.5415 191.172 37.5415C192.174 37.5415 192.912 36.9614 193.105 35.9243H195.25C195.074 37.9458 193.545 39.3696 191.154 39.3696ZM203.037 35.1685V29.6313H205.27V39.1763H203.107V37.4888H203.002C202.562 38.5435 201.561 39.2993 200.137 39.2993C198.256 39.2993 196.955 37.9985 196.938 35.7134V29.6313H199.188V35.3618C199.188 36.5747 199.908 37.3481 200.998 37.3481C201.982 37.3481 203.037 36.6274 203.037 35.1685ZM207.414 39.1763V29.6313H209.594V31.2134H209.699C210.033 30.1235 210.965 29.4907 212.055 29.4907C212.301 29.4907 212.652 29.5083 212.863 29.5435V31.6177C212.67 31.5474 212.195 31.4771 211.826 31.4771C210.578 31.4771 209.664 32.3384 209.664 33.5513V39.1763H207.414ZM214.199 39.1763V29.6313H216.379V31.2134H216.484C216.818 30.1235 217.75 29.4907 218.84 29.4907C219.086 29.4907 219.438 29.5083 219.648 29.5435V31.6177C219.455 31.5474 218.98 31.4771 218.611 31.4771C217.363 31.4771 216.449 32.3384 216.449 33.5513V39.1763H214.199ZM224.922 39.3696C222.039 39.3696 220.281 37.4536 220.281 34.4653C220.281 31.5122 222.074 29.5083 224.799 29.5083C227.137 29.5083 229.158 30.9673 229.158 34.3247V35.0278H222.496C222.522 36.6538 223.48 37.6118 224.939 37.6118C225.924 37.6118 226.592 37.1899 226.873 36.6274H229.07C228.666 38.2798 227.137 39.3696 224.922 39.3696ZM222.514 33.4985H227.014C226.996 32.1978 226.135 31.2485 224.834 31.2485C223.48 31.2485 222.584 32.2769 222.514 33.4985ZM233.148 33.5864V39.1763H230.898V29.6313H233.043V31.2485H233.166C233.605 30.1763 234.572 29.5083 235.996 29.5083C237.982 29.5083 239.283 30.8091 239.266 33.0942V39.1763H237.033V33.4458C237.033 32.1626 236.348 31.4067 235.17 31.4067C233.975 31.4067 233.148 32.1978 233.148 33.5864ZM246.174 29.6313V31.354H244.293V36.311C244.293 37.2251 244.75 37.4185 245.312 37.4185C245.576 37.4185 246.016 37.4009 246.297 37.3833V39.2114C246.033 39.2642 245.594 39.2993 245.031 39.2993C243.344 39.2993 242.043 38.4731 242.061 36.6802V31.354H240.689V29.6313H242.061V27.3462H244.293V29.6313H246.174ZM250.357 26.4497V39.1763H248.107V26.4497H250.357ZM253.855 42.7622C253.416 42.7622 252.977 42.7446 252.695 42.7095V40.9165C252.977 40.9341 253.346 40.9517 253.645 40.9517C254.189 40.9517 254.646 40.8989 255.033 39.8794L255.227 39.3696L251.746 29.6313H254.119L256.334 36.8384H256.439L258.654 29.6313H261.027L257.195 40.3364C256.65 41.8657 255.648 42.7622 253.855 42.7622ZM268.691 39.1763L265.984 29.6313H268.27L269.957 36.3462H270.045L271.75 29.6313H274.018L275.74 36.311H275.828L277.498 29.6313H279.783L277.076 39.1763H274.738L272.945 32.7075H272.822L271.029 39.1763H268.691ZM281.207 39.1763V29.6313H283.387V31.2134H283.492C283.826 30.1235 284.758 29.4907 285.848 29.4907C286.094 29.4907 286.445 29.5083 286.656 29.5435V31.6177C286.463 31.5474 285.988 31.4771 285.619 31.4771C284.371 31.4771 283.457 32.3384 283.457 33.5513V39.1763H281.207ZM287.992 39.1763V29.6313H290.242V39.1763H287.992ZM289.135 28.2778C288.432 28.2778 287.834 27.7329 287.834 27.0474C287.834 26.3794 288.432 25.8345 289.135 25.8345C289.855 25.8345 290.436 26.3794 290.436 27.0474C290.436 27.7329 289.855 28.2778 289.135 28.2778ZM297.15 29.6313V31.354H295.27V36.311C295.27 37.2251 295.727 37.4185 296.289 37.4185C296.553 37.4185 296.992 37.4009 297.273 37.3833V39.2114C297.01 39.2642 296.57 39.2993 296.008 39.2993C294.32 39.2993 293.02 38.4731 293.037 36.6802V31.354H291.666V29.6313H293.037V27.3462H295.27V29.6313H297.15ZM298.873 39.1763V29.6313H301.123V39.1763H298.873ZM300.016 28.2778C299.312 28.2778 298.715 27.7329 298.715 27.0474C298.715 26.3794 299.312 25.8345 300.016 25.8345C300.736 25.8345 301.316 26.3794 301.316 27.0474C301.316 27.7329 300.736 28.2778 300.016 28.2778ZM305.518 33.5864V39.1763H303.268V29.6313H305.412V31.2485H305.535C305.975 30.1763 306.941 29.5083 308.365 29.5083C310.352 29.5083 311.652 30.8091 311.635 33.0942V39.1763H309.402V33.4458C309.402 32.1626 308.717 31.4067 307.539 31.4067C306.344 31.4067 305.518 32.1978 305.518 33.5864ZM317.945 42.9556C315.414 42.9556 313.814 41.8306 313.656 40.0376H315.889C316.047 40.8638 316.838 41.2681 317.98 41.2681C319.316 41.2681 320.195 40.688 320.195 39.2817V37.4536H320.09C319.738 38.1567 318.982 39.0356 317.33 39.0356C315.133 39.0356 313.393 37.436 313.393 34.3247C313.393 31.1782 315.133 29.5083 317.348 29.5083C319.035 29.5083 319.738 30.5103 320.09 31.1958H320.195V29.6313H322.41V39.3345C322.41 41.7778 320.529 42.9556 317.945 42.9556ZM317.945 37.2778C319.387 37.2778 320.213 36.188 320.213 34.3599C320.213 32.5493 319.404 31.3364 317.945 31.3364C316.451 31.3364 315.678 32.6196 315.678 34.3599C315.678 36.1177 316.469 37.2778 317.945 37.2778Z" fill="white"/>
</svg>
