<svg width="243" height="51" viewBox="0 0 243 51" fill="none" xmlns="http://www.w3.org/2000/svg">
<path d="M120.177 2.05963C120.737 1.12672 122.089 1.12672 122.648 2.05963L130.059 14.4116L112.766 14.4115L120.177 2.05963Z" fill="#FF5842"/>
<path d="M0 20.1762C0 16.9925 2.58091 14.4116 5.76462 14.4116H237.058C240.242 14.4116 242.823 16.9925 242.823 20.1762V45.1762C242.823 48.36 240.242 50.9409 237.058 50.9409H5.76462C2.58091 50.9409 0 48.36 0 45.1762V20.1762Z" fill="#FF5842"/>
<path d="M15.0254 28.3657V26.4497H25.168V28.3657H21.248V39.1763H18.9629V28.3657H15.0254ZM25.8711 39.1763V29.6313H28.0508V31.2134H28.1562C28.4902 30.1235 29.4219 29.4907 30.5117 29.4907C30.7578 29.4907 31.1094 29.5083 31.3203 29.5435V31.6177C31.127 31.5474 30.6523 31.4771 30.2832 31.4771C29.0352 31.4771 28.1211 32.3384 28.1211 33.5513V39.1763H25.8711ZM34.3086 42.7622C33.8691 42.7622 33.4297 42.7446 33.1484 42.7095V40.9165C33.4297 40.9341 33.7988 40.9517 34.0977 40.9517C34.6426 40.9517 35.0996 40.8989 35.4863 39.8794L35.6797 39.3696L32.1992 29.6313H34.5723L36.7871 36.8384H36.8926L39.1074 29.6313H41.4805L37.6484 40.3364C37.1035 41.8657 36.1016 42.7622 34.3086 42.7622ZM52.5723 32.356C52.4316 31.6353 51.834 31.1782 50.8848 31.1782C49.918 31.1782 49.2148 31.6528 49.2324 32.3032C49.2148 32.7954 49.6191 33.1646 50.5859 33.3931L52.2031 33.7271C54.0137 34.1313 54.875 34.9575 54.8926 36.3286C54.875 38.1216 53.3105 39.3696 50.8145 39.3696C48.3887 39.3696 46.9473 38.2798 46.7188 36.4517H49.0039C49.1445 37.2603 49.7773 37.6646 50.8145 37.6646C51.8867 37.6646 52.6074 37.2251 52.6074 36.522C52.6074 35.9771 52.168 35.6255 51.2188 35.4146L49.6895 35.0806C47.9141 34.729 47 33.7974 47 32.4263C47 30.6685 48.5117 29.5083 50.8496 29.5083C53.1348 29.5083 54.541 30.6157 54.6992 32.356H52.5723ZM60.7637 39.3696C57.916 39.3696 56.1934 37.3306 56.1934 34.4478C56.1934 31.5298 57.9688 29.5083 60.7637 29.5083C63.084 29.5083 64.7012 30.8618 64.8594 32.9185H62.7148C62.5391 32.0044 61.8711 31.3013 60.7812 31.3013C59.3926 31.3013 58.4609 32.479 58.4609 34.395C58.4609 36.3638 59.375 37.5415 60.7812 37.5415C61.7832 37.5415 62.5215 36.9614 62.7148 35.9243H64.8594C64.6836 37.9458 63.1543 39.3696 60.7637 39.3696ZM66.5469 39.1763V29.6313H68.7266V31.2134H68.832C69.166 30.1235 70.0977 29.4907 71.1875 29.4907C71.4336 29.4907 71.7852 29.5083 71.9961 29.5435V31.6177C71.8027 31.5474 71.3281 31.4771 70.959 31.4771C69.7109 31.4771 68.7969 32.3384 68.7969 33.5513V39.1763H66.5469ZM77.1992 39.3696C74.4219 39.3696 72.6289 37.4009 72.6289 34.4478C72.6289 31.4771 74.4219 29.5083 77.1992 29.5083C79.9941 29.5083 81.7695 31.4771 81.7695 34.4478C81.7695 37.4009 79.9941 39.3696 77.1992 39.3696ZM77.2168 37.5767C78.7461 37.5767 79.502 36.188 79.502 34.4302C79.502 32.6899 78.7461 31.2837 77.2168 31.2837C75.6523 31.2837 74.8965 32.6899 74.8965 34.4302C74.8965 36.188 75.6523 37.5767 77.2168 37.5767ZM85.7598 26.4497V39.1763H83.5098V26.4497H85.7598ZM90.1543 26.4497V39.1763H87.9043V26.4497H90.1543ZM92.2988 39.1763V29.6313H94.5488V39.1763H92.2988ZM93.4414 28.2778C92.7383 28.2778 92.1406 27.7329 92.1406 27.0474C92.1406 26.3794 92.7383 25.8345 93.4414 25.8345C94.1621 25.8345 94.7422 26.3794 94.7422 27.0474C94.7422 27.7329 94.1621 28.2778 93.4414 28.2778ZM98.9434 33.5864V39.1763H96.6934V29.6313H98.8379V31.2485H98.9609C99.4004 30.1763 100.367 29.5083 101.791 29.5083C103.777 29.5083 105.078 30.8091 105.061 33.0942V39.1763H102.828V33.4458C102.828 32.1626 102.143 31.4067 100.965 31.4067C99.7695 31.4067 98.9434 32.1978 98.9434 33.5864ZM111.371 42.9556C108.84 42.9556 107.24 41.8306 107.082 40.0376H109.314C109.473 40.8638 110.264 41.2681 111.406 41.2681C112.742 41.2681 113.621 40.688 113.621 39.2817V37.4536H113.516C113.164 38.1567 112.408 39.0356 110.756 39.0356C108.559 39.0356 106.818 37.436 106.818 34.3247C106.818 31.1782 108.559 29.5083 110.773 29.5083C112.461 29.5083 113.164 30.5103 113.516 31.1958H113.621V29.6313H115.836V39.3345C115.836 41.7778 113.955 42.9556 111.371 42.9556ZM111.371 37.2778C112.812 37.2778 113.639 36.188 113.639 34.3599C113.639 32.5493 112.83 31.3364 111.371 31.3364C109.877 31.3364 109.104 32.6196 109.104 34.3599C109.104 36.1177 109.895 37.2778 111.371 37.2778ZM128.352 35.1685V29.6313H130.584V39.1763H128.422V37.4888H128.316C127.877 38.5435 126.875 39.2993 125.451 39.2993C123.57 39.2993 122.27 37.9985 122.252 35.7134V29.6313H124.502V35.3618C124.502 36.5747 125.223 37.3481 126.312 37.3481C127.297 37.3481 128.352 36.6274 128.352 35.1685ZM132.729 42.7622V29.6313H134.926V31.1958H135.066C135.418 30.5103 136.121 29.5083 137.809 29.5083C140.006 29.5083 141.746 31.231 141.746 34.4126C141.746 37.5591 140.059 39.3521 137.809 39.3521C136.156 39.3521 135.418 38.3677 135.066 37.6646H134.979V42.7622H132.729ZM134.926 34.395C134.926 36.2583 135.734 37.5063 137.193 37.5063C138.67 37.5063 139.461 36.2056 139.461 34.395C139.461 32.6196 138.688 31.3364 137.193 31.3364C135.734 31.3364 134.926 32.5493 134.926 34.395ZM147.336 36.4868C147.336 34.3423 149.111 33.7095 150.887 33.604C151.546 33.5601 152.917 33.481 153.33 33.4634V32.7075C153.33 31.7583 152.715 31.2134 151.607 31.2134C150.605 31.2134 149.99 31.6704 149.814 32.356H147.652C147.811 30.7388 149.27 29.5083 151.66 29.5083C153.471 29.5083 155.562 30.2466 155.562 32.7954V39.1763H153.418V37.8579H153.348C152.926 38.6665 152.029 39.3696 150.535 39.3696C148.707 39.3696 147.336 38.3677 147.336 36.4868ZM149.498 36.4692C149.498 37.2954 150.166 37.7173 151.115 37.7173C152.469 37.7173 153.348 36.8208 153.348 35.7485V34.9575L151.238 35.0981C150.166 35.186 149.498 35.6255 149.498 36.4692ZM159.922 33.5864V39.1763H157.672V29.6313H159.816V31.2485H159.939C160.379 30.1763 161.346 29.5083 162.77 29.5083C164.756 29.5083 166.057 30.8091 166.039 33.0942V39.1763H163.807V33.4458C163.807 32.1626 163.121 31.4067 161.943 31.4067C160.748 31.4067 159.922 32.1978 159.922 33.5864ZM171.734 39.3521C169.484 39.3521 167.797 37.5591 167.797 34.4126C167.797 31.231 169.537 29.5083 171.752 29.5083C173.439 29.5083 174.143 30.5103 174.477 31.1958H174.564V26.4497H176.797V39.1763H174.6V37.6646H174.477C174.125 38.3677 173.387 39.3521 171.734 39.3521ZM172.35 37.5063C173.791 37.5063 174.617 36.2583 174.617 34.395C174.617 32.5493 173.809 31.3364 172.35 31.3364C170.855 31.3364 170.082 32.6196 170.082 34.395C170.082 36.2056 170.873 37.5063 172.35 37.5063ZM186.887 39.3521C184.637 39.3521 182.949 37.5591 182.949 34.4126C182.949 31.231 184.689 29.5083 186.904 29.5083C188.592 29.5083 189.295 30.5103 189.629 31.1958H189.717V26.4497H191.949V39.1763H189.752V37.6646H189.629C189.277 38.3677 188.539 39.3521 186.887 39.3521ZM187.502 37.5063C188.943 37.5063 189.77 36.2583 189.77 34.395C189.77 32.5493 188.961 31.3364 187.502 31.3364C186.008 31.3364 185.234 32.6196 185.234 34.395C185.234 36.2056 186.025 37.5063 187.502 37.5063ZM198.383 39.3696C195.605 39.3696 193.812 37.4009 193.812 34.4478C193.812 31.4771 195.605 29.5083 198.383 29.5083C201.178 29.5083 202.953 31.4771 202.953 34.4478C202.953 37.4009 201.178 39.3696 198.383 39.3696ZM198.4 37.5767C199.93 37.5767 200.686 36.188 200.686 34.4302C200.686 32.6899 199.93 31.2837 198.4 31.2837C196.836 31.2837 196.08 32.6899 196.08 34.4302C196.08 36.188 196.836 37.5767 198.4 37.5767ZM206.416 39.1763L203.709 29.6313H205.994L207.682 36.3462H207.77L209.475 29.6313H211.742L213.465 36.311H213.553L215.223 29.6313H217.508L214.801 39.1763H212.463L210.67 32.7075H210.547L208.754 39.1763H206.416ZM221.182 33.5864V39.1763H218.932V29.6313H221.076V31.2485H221.199C221.639 30.1763 222.605 29.5083 224.029 29.5083C226.016 29.5083 227.316 30.8091 227.299 33.0942V39.1763H225.066V33.4458C225.066 32.1626 224.381 31.4067 223.203 31.4067C222.008 31.4067 221.182 32.1978 221.182 33.5864Z" fill="white"/>
</svg>
