<svg width="241" height="51" viewBox="0 0 241 51" fill="none" xmlns="http://www.w3.org/2000/svg">
<path d="M119.265 2.05963C119.824 1.12672 121.176 1.12672 121.736 2.05963L129.147 14.4116L111.854 14.4115L119.265 2.05963Z" fill="#FF5842"/>
<path d="M0 20.1762C0 16.9925 2.58091 14.4116 5.76462 14.4116H235.235C238.419 14.4116 241 16.9925 241 20.1762V45.1762C241 48.36 238.419 50.9409 235.235 50.9409H5.76462C2.58091 50.9409 0 48.36 0 45.1762V20.1762Z" fill="#FF5842"/>
<path d="M15.1152 28.3657V26.4497H25.2578V28.3657H21.3379V39.1763H19.0527V28.3657H15.1152ZM25.2227 36.4868C25.2227 34.3423 26.998 33.7095 28.7734 33.604C29.4326 33.5601 30.8037 33.481 31.2168 33.4634V32.7075C31.2168 31.7583 30.6016 31.2134 29.4941 31.2134C28.4922 31.2134 27.877 31.6704 27.7012 32.356H25.5391C25.6973 30.7388 27.1562 29.5083 29.5469 29.5083C31.3574 29.5083 33.4492 30.2466 33.4492 32.7954V39.1763H31.3047V37.8579H31.2344C30.8125 38.6665 29.916 39.3696 28.4219 39.3696C26.5938 39.3696 25.2227 38.3677 25.2227 36.4868ZM27.3848 36.4692C27.3848 37.2954 28.0527 37.7173 29.002 37.7173C30.3555 37.7173 31.2344 36.8208 31.2344 35.7485V34.9575L29.125 35.0981C28.0527 35.186 27.3848 35.6255 27.3848 36.4692ZM35.5586 42.7622V29.6313H37.7559V31.1958H37.8965C38.248 30.5103 38.9512 29.5083 40.6387 29.5083C42.8359 29.5083 44.5762 31.231 44.5762 34.4126C44.5762 37.5591 42.8887 39.3521 40.6387 39.3521C38.9863 39.3521 38.248 38.3677 37.8965 37.6646H37.8086V42.7622H35.5586ZM37.7559 34.395C37.7559 36.2583 38.5645 37.5063 40.0234 37.5063C41.5 37.5063 42.291 36.2056 42.291 34.395C42.291 32.6196 41.5176 31.3364 40.0234 31.3364C38.5645 31.3364 37.7559 32.5493 37.7559 34.395ZM55.3691 29.6313V31.354H53.4883V36.311C53.4883 37.2251 53.9453 37.4185 54.5078 37.4185C54.7715 37.4185 55.2109 37.4009 55.4922 37.3833V39.2114C55.2285 39.2642 54.7891 39.2993 54.2266 39.2993C52.5391 39.2993 51.2383 38.4731 51.2559 36.6802V31.354H49.8848V29.6313H51.2559V27.3462H53.4883V29.6313H55.3691ZM61.1699 39.3696C58.3926 39.3696 56.5996 37.4009 56.5996 34.4478C56.5996 31.4771 58.3926 29.5083 61.1699 29.5083C63.9648 29.5083 65.7402 31.4771 65.7402 34.4478C65.7402 37.4009 63.9648 39.3696 61.1699 39.3696ZM61.1875 37.5767C62.7168 37.5767 63.4727 36.188 63.4727 34.4302C63.4727 32.6899 62.7168 31.2837 61.1875 31.2837C59.623 31.2837 58.8672 32.6899 58.8672 34.4302C58.8672 36.188 59.623 37.5767 61.1875 37.5767ZM75.918 39.3696C73.1406 39.3696 71.3477 37.4009 71.3477 34.4478C71.3477 31.4771 73.1406 29.5083 75.918 29.5083C78.7129 29.5083 80.4883 31.4771 80.4883 34.4478C80.4883 37.4009 78.7129 39.3696 75.918 39.3696ZM75.9355 37.5767C77.4648 37.5767 78.2207 36.188 78.2207 34.4302C78.2207 32.6899 77.4648 31.2837 75.9355 31.2837C74.3711 31.2837 73.6152 32.6899 73.6152 34.4302C73.6152 36.188 74.3711 37.5767 75.9355 37.5767ZM82.2285 42.7622V29.6313H84.4258V31.1958H84.5664C84.918 30.5103 85.6211 29.5083 87.3086 29.5083C89.5059 29.5083 91.2461 31.231 91.2461 34.4126C91.2461 37.5591 89.5586 39.3521 87.3086 39.3521C85.6562 39.3521 84.918 38.3677 84.5664 37.6646H84.4785V42.7622H82.2285ZM84.4258 34.395C84.4258 36.2583 85.2344 37.5063 86.6934 37.5063C88.1699 37.5063 88.9609 36.2056 88.9609 34.395C88.9609 32.6196 88.1875 31.3364 86.6934 31.3364C85.2344 31.3364 84.4258 32.5493 84.4258 34.395ZM97.2402 39.3696C94.3574 39.3696 92.5996 37.4536 92.5996 34.4653C92.5996 31.5122 94.3926 29.5083 97.1172 29.5083C99.4551 29.5083 101.477 30.9673 101.477 34.3247V35.0278H94.8145C94.8408 36.6538 95.7988 37.6118 97.2578 37.6118C98.2422 37.6118 98.9102 37.1899 99.1914 36.6274H101.389C100.984 38.2798 99.4551 39.3696 97.2402 39.3696ZM94.832 33.4985H99.332C99.3145 32.1978 98.4531 31.2485 97.1523 31.2485C95.7988 31.2485 94.9023 32.2769 94.832 33.4985ZM105.467 33.5864V39.1763H103.217V29.6313H105.361V31.2485H105.484C105.924 30.1763 106.891 29.5083 108.314 29.5083C110.301 29.5083 111.602 30.8091 111.584 33.0942V39.1763H109.352V33.4458C109.352 32.1626 108.666 31.4067 107.488 31.4067C106.293 31.4067 105.467 32.1978 105.467 33.5864ZM122.764 29.6313V31.354H120.883V36.311C120.883 37.2251 121.34 37.4185 121.902 37.4185C122.166 37.4185 122.605 37.4009 122.887 37.3833V39.2114C122.623 39.2642 122.184 39.2993 121.621 39.2993C119.934 39.2993 118.633 38.4731 118.65 36.6802V31.354H117.279V29.6313H118.65V27.3462H120.883V29.6313H122.764ZM126.947 33.5864V39.1763H124.697V26.4497H126.895V31.2485H127.018C127.457 30.1763 128.371 29.5083 129.848 29.5083C131.834 29.5083 133.135 30.7915 133.135 33.0942V39.1763H130.902V33.4458C130.902 32.145 130.199 31.4067 129.021 31.4067C127.809 31.4067 126.947 32.1978 126.947 33.5864ZM139.498 39.3696C136.615 39.3696 134.857 37.4536 134.857 34.4653C134.857 31.5122 136.65 29.5083 139.375 29.5083C141.713 29.5083 143.734 30.9673 143.734 34.3247V35.0278H137.072C137.099 36.6538 138.057 37.6118 139.516 37.6118C140.5 37.6118 141.168 37.1899 141.449 36.6274H143.646C143.242 38.2798 141.713 39.3696 139.498 39.3696ZM137.09 33.4985H141.59C141.572 32.1978 140.711 31.2485 139.41 31.2485C138.057 31.2485 137.16 32.2769 137.09 33.4985ZM149.746 39.1763V29.6313H151.996V39.1763H149.746ZM150.889 28.2778C150.186 28.2778 149.588 27.7329 149.588 27.0474C149.588 26.3794 150.186 25.8345 150.889 25.8345C151.609 25.8345 152.189 26.3794 152.189 27.0474C152.189 27.7329 151.609 28.2778 150.889 28.2778ZM156.391 33.5864V39.1763H154.141V29.6313H156.285V31.2485H156.408C156.848 30.1763 157.814 29.5083 159.238 29.5083C161.225 29.5083 162.525 30.8091 162.508 33.0942V39.1763H160.275V33.4458C160.275 32.1626 159.59 31.4067 158.412 31.4067C157.217 31.4067 156.391 32.1978 156.391 33.5864ZM172.826 29.6313L169.416 39.1763H166.955L163.545 29.6313H165.936L168.133 36.7329H168.238L170.453 29.6313H172.826ZM174.232 39.1763V29.6313H176.482V39.1763H174.232ZM175.375 28.2778C174.672 28.2778 174.074 27.7329 174.074 27.0474C174.074 26.3794 174.672 25.8345 175.375 25.8345C176.096 25.8345 176.676 26.3794 176.676 27.0474C176.676 27.7329 176.096 28.2778 175.375 28.2778ZM183.391 29.6313V31.354H181.51V36.311C181.51 37.2251 181.967 37.4185 182.529 37.4185C182.793 37.4185 183.232 37.4009 183.514 37.3833V39.2114C183.25 39.2642 182.811 39.2993 182.248 39.2993C180.561 39.2993 179.26 38.4731 179.277 36.6802V31.354H177.906V29.6313H179.277V27.3462H181.51V29.6313H183.391ZM184.674 36.4868C184.674 34.3423 186.449 33.7095 188.225 33.604C188.884 33.5601 190.255 33.481 190.668 33.4634V32.7075C190.668 31.7583 190.053 31.2134 188.945 31.2134C187.943 31.2134 187.328 31.6704 187.152 32.356H184.99C185.148 30.7388 186.607 29.5083 188.998 29.5083C190.809 29.5083 192.9 30.2466 192.9 32.7954V39.1763H190.756V37.8579H190.686C190.264 38.6665 189.367 39.3696 187.873 39.3696C186.045 39.3696 184.674 38.3677 184.674 36.4868ZM186.836 36.4692C186.836 37.2954 187.504 37.7173 188.453 37.7173C189.807 37.7173 190.686 36.8208 190.686 35.7485V34.9575L188.576 35.0981C187.504 35.186 186.836 35.6255 186.836 36.4692ZM199.773 29.6313V31.354H197.893V36.311C197.893 37.2251 198.35 37.4185 198.912 37.4185C199.176 37.4185 199.615 37.4009 199.896 37.3833V39.2114C199.633 39.2642 199.193 39.2993 198.631 39.2993C196.943 39.2993 195.643 38.4731 195.66 36.6802V31.354H194.289V29.6313H195.66V27.3462H197.893V29.6313H199.773ZM201.496 39.1763V29.6313H203.746V39.1763H201.496ZM202.639 28.2778C201.936 28.2778 201.338 27.7329 201.338 27.0474C201.338 26.3794 201.936 25.8345 202.639 25.8345C203.359 25.8345 203.939 26.3794 203.939 27.0474C203.939 27.7329 203.359 28.2778 202.639 28.2778ZM210.057 39.3696C207.279 39.3696 205.486 37.4009 205.486 34.4478C205.486 31.4771 207.279 29.5083 210.057 29.5083C212.852 29.5083 214.627 31.4771 214.627 34.4478C214.627 37.4009 212.852 39.3696 210.057 39.3696ZM210.074 37.5767C211.604 37.5767 212.359 36.188 212.359 34.4302C212.359 32.6899 211.604 31.2837 210.074 31.2837C208.51 31.2837 207.754 32.6899 207.754 34.4302C207.754 36.188 208.51 37.5767 210.074 37.5767ZM218.617 33.5864V39.1763H216.367V29.6313H218.512V31.2485H218.635C219.074 30.1763 220.041 29.5083 221.465 29.5083C223.451 29.5083 224.752 30.8091 224.734 33.0942V39.1763H222.502V33.4458C222.502 32.1626 221.816 31.4067 220.639 31.4067C219.443 31.4067 218.617 32.1978 218.617 33.5864Z" fill="white"/>
</svg>
