<svg width="253" height="51" viewBox="0 0 253 51" fill="none" xmlns="http://www.w3.org/2000/svg">
<path d="M125.263 2.05963C125.822 1.12672 127.175 1.12672 127.734 2.05963L135.145 14.4116L117.852 14.4115L125.263 2.05963Z" fill="#FF5842"/>
<path d="M0 20.1762C0 16.9925 2.58091 14.4116 5.76462 14.4116H247.235C250.419 14.4116 253 16.9925 253 20.1762V45.1762C253 48.36 250.419 50.9409 247.235 50.9409H5.76462C2.58091 50.9409 0 48.36 0 45.1762V20.1762Z" fill="#FF5842"/>
<path d="M34.2715 25.5005V26.8188C34.2715 28.0581 34.2715 29.4116 33.9375 31.1079H35.9766V32.6724H21.5625V31.1079H32.0039C32.1006 30.5454 32.1709 30.0269 32.2324 29.5259L23.1445 29.9126L22.916 28.4009L32.3027 28.1724C32.3203 27.7856 32.3203 27.4165 32.3203 27.0474H23.3203V25.5005H34.2715ZM34.3594 33.8149V37.8228H25.1309V39.0181H34.9219V40.5474H23.1973V36.3989H32.4082V35.3091H23.1621V33.8149H34.3594ZM50.3203 24.8677V34.5884H48.3516V24.8677H50.3203ZM50.3203 35.3267V40.7407H48.3516V36.9263H39.4746V35.3267H50.3203ZM45.2227 25.7642V30.4751H39.8438V32.2505C42.5684 32.2417 44.4932 32.1538 46.7695 31.811L47.0156 33.3755C44.502 33.7798 42.3574 33.8501 39.2812 33.8501H37.9277V28.9634H43.2891V27.3462H37.8926V25.7642H45.2227ZM60.3926 27.3813V28.9458H52.6055V27.3813H55.5586V25.3071H57.4922V27.3813H60.3926ZM56.5254 29.7896C58.5469 29.7896 59.9883 31.3188 59.9883 33.481C59.9883 35.6782 58.5469 37.2251 56.5254 37.2251C54.5215 37.2251 53.0449 35.6782 53.0625 33.481C53.0449 31.3188 54.5215 29.7896 56.5254 29.7896ZM56.5254 31.4067C55.4883 31.4067 54.7676 32.2329 54.7852 33.481C54.7676 34.7642 55.4883 35.5728 56.5254 35.5552C57.5449 35.5728 58.2656 34.7642 58.2656 33.481C58.2656 32.2329 57.5449 31.4067 56.5254 31.4067ZM66.2988 24.8501V40.7407H64.4355V32.9712H62.8887V40.02H61.0605V25.1841H62.8887V31.3892H64.4355V24.8501H66.2988ZM74.0684 28.6646C74.0684 31.6177 75.4746 34.5181 78.0059 35.6255L76.8281 37.1899C75.0264 36.311 73.7607 34.6235 73.084 32.5493C72.3896 34.7378 71.0977 36.5571 69.2695 37.4888L68.0391 35.9067C70.623 34.6938 72.0645 31.6353 72.082 28.6646V26.1333H74.0684V28.6646ZM81.5215 24.8501V40.7583H79.5879V31.5649H76.248V29.9829H79.5879V24.8501H81.5215ZM102.545 37.2603V38.8599H88.0254V37.2603H94.3008V33.9731H96.2344V37.2603H102.545ZM101.244 27.1528V28.7349H96.2871C96.4189 30.7124 98.4844 32.5317 101.912 32.9888L101.191 34.5181C98.4404 34.1313 96.3223 32.9097 95.2676 31.1606C94.2129 32.9097 92.1123 34.1313 89.3613 34.5181L88.623 32.9888C92.0684 32.5317 94.125 30.7124 94.2832 28.7349H89.3086V27.1528H94.3008V25.0962H96.2344V27.1528H101.244ZM117.258 24.8501V40.7407H115.395V32.6372H113.602V39.9321H111.809V25.1489H113.602V31.0728H115.395V24.8501H117.258ZM110.016 26.731V28.313H106.043V35.3794C107.774 35.3618 109.198 35.2739 110.807 34.9751L110.947 36.5747C109.031 36.9614 107.361 37.0142 105.146 37.0317H104.074V26.731H110.016ZM124.834 27.7153C124.834 29.6665 126.1 31.4946 128.578 32.2505L127.646 33.7798C125.862 33.2261 124.597 32.0923 123.902 30.6509C123.199 32.3208 121.854 33.6479 119.947 34.2896L118.963 32.7427C121.529 31.8989 122.865 29.8423 122.865 27.7329V27.5396H119.508V25.9575H128.139V27.5396H124.834V27.7153ZM131.672 24.8501V28.6646H133.887V30.2642H131.672V34.3247H129.721V24.8501H131.672ZM126.504 34.6763C129.791 34.6763 131.812 35.7837 131.83 37.6821C131.812 39.5981 129.791 40.7231 126.504 40.7231C123.182 40.7231 121.125 39.5981 121.125 37.6821C121.125 35.7837 123.182 34.6763 126.504 34.6763ZM126.504 36.2056C124.324 36.2056 123.076 36.7153 123.076 37.6821C123.076 38.6665 124.324 39.1938 126.504 39.1938C128.684 39.1938 129.896 38.6665 129.896 37.6821C129.896 36.7153 128.684 36.2056 126.504 36.2056ZM141.92 25.0962C145.541 25.0962 147.633 26.063 147.65 27.8208C147.633 29.5962 145.541 30.5454 141.92 30.563C138.299 30.5454 136.189 29.5962 136.189 27.8208C136.189 26.063 138.299 25.0962 141.92 25.0962ZM141.92 26.5376C139.494 26.5376 138.229 26.9946 138.246 27.8208C138.229 28.6997 139.494 29.104 141.92 29.104C144.381 29.104 145.629 28.6997 145.629 27.8208C145.629 26.9946 144.381 26.5376 141.92 26.5376ZM149.18 31.4067V32.9712H134.695V31.4067H149.18ZM147.369 34.0435V37.9282H138.334V39.106H147.809V40.6001H136.418V36.5396H145.453V35.4849H136.4V34.0435H147.369ZM158.936 25.3423C160.263 25.3423 161.396 25.8081 162.152 26.5903H165.879V24.8501H167.83V32.8833H165.879V31.354H162.188C161.432 32.1626 160.28 32.6372 158.936 32.6372C156.527 32.6372 154.734 31.1431 154.734 28.981C154.734 26.8364 156.527 25.3423 158.936 25.3423ZM158.936 26.9243C157.564 26.9243 156.598 27.7329 156.598 28.981C156.598 30.2466 157.564 31.0552 158.936 31.0552C160.254 31.0552 161.221 30.2466 161.238 28.981C161.221 27.7329 160.254 26.9243 158.936 26.9243ZM167.83 33.604V37.7173H159.322V39.0005H168.34V40.5474H157.371V36.2759H165.879V35.1157H157.354V33.604H167.83ZM162.996 28.1021C163.058 28.3833 163.102 28.6733 163.102 28.981C163.102 29.271 163.066 29.561 162.996 29.8247H165.879V28.1021H162.996ZM174.422 26.0103C176.575 26.0103 178.166 27.8032 178.447 30.7036H181.471V24.8501H183.404V40.7583H181.471V32.2856H178.465C178.254 35.353 176.637 37.2427 174.422 37.2427C172.031 37.2427 170.344 35.0806 170.344 31.6177C170.344 28.1899 172.031 26.0103 174.422 26.0103ZM174.422 27.7681C173.104 27.7681 172.207 29.1919 172.225 31.6177C172.207 34.061 173.104 35.4849 174.422 35.4849C175.74 35.4849 176.619 34.061 176.637 31.6177C176.619 29.1919 175.74 27.7681 174.422 27.7681ZM200.156 37.2251V38.8247H185.637V37.2251H191.895V34.1313H187.236V25.9048H189.188V28.5063H196.553V25.9048H198.504V34.1313H193.828V37.2251H200.156ZM189.188 32.5493H196.553V30.0708H189.188V32.5493ZM206.15 29.0161C206.15 31.5825 207.047 34.2544 209.191 35.6079L208.119 37.1021C206.687 36.2407 205.755 34.7554 205.236 33.0063C204.656 34.9312 203.637 36.5571 202.143 37.4712L200.93 36.0122C203.232 34.606 204.27 31.811 204.27 29.104V26.2563H206.15V29.0161ZM214.904 24.8501V40.7407H213.023V24.8501H214.904ZM211.6 25.1313V39.9673H209.754V31.9341H207.486V30.3169H209.754V25.1313H211.6ZM231.27 37.2075V38.8071H216.75V37.2075H220.107V33.1821C218.842 32.4614 218.077 31.3276 218.086 29.9126C218.068 27.3813 220.564 25.7114 223.975 25.7114C227.402 25.7114 229.898 27.3813 229.898 29.9126C229.898 31.3013 229.16 32.4175 227.93 33.147V37.2075H231.27ZM223.975 27.2583C221.602 27.2583 219.984 28.2603 220.002 29.9126C219.984 31.5474 221.602 32.5669 223.975 32.5669C226.348 32.5669 227.982 31.5474 227.982 29.9126C227.982 28.2603 226.348 27.2583 223.975 27.2583ZM222.041 37.2075H225.943V33.8853C225.337 34.0259 224.678 34.0962 223.975 34.0962C223.289 34.0962 222.639 34.0259 222.041 33.9028V37.2075Z" fill="white"/>
</svg>
