<svg width="227" height="51" viewBox="0 0 227 51" fill="none" xmlns="http://www.w3.org/2000/svg">
<path d="M112.265 2.05963C112.824 1.12672 114.176 1.12672 114.736 2.05963L122.147 14.4116L104.854 14.4115L112.265 2.05963Z" fill="#FF5842"/>
<path d="M0 20.1762C0 16.9925 2.58091 14.4116 5.76462 14.4116H221.235C224.419 14.4116 227 16.9925 227 20.1762V45.1762C227 48.36 224.419 50.9409 221.235 50.9409H5.76462C2.58091 50.9409 0 48.36 0 45.1762V20.1762Z" fill="#FF5842"/>
<path d="M21.2715 25.5005V26.8188C21.2715 28.0581 21.2715 29.4116 20.9375 31.1079H22.9766V32.6724H8.5625V31.1079H19.0039C19.1006 30.5454 19.1709 30.0269 19.2324 29.5259L10.1445 29.9126L9.91602 28.4009L19.3027 28.1724C19.3203 27.7856 19.3203 27.4165 19.3203 27.0474H10.3203V25.5005H21.2715ZM21.3594 33.8149V37.8228H12.1309V39.0181H21.9219V40.5474H10.1973V36.3989H19.4082V35.3091H10.1621V33.8149H21.3594ZM37.3203 24.8677V34.5884H35.3516V24.8677H37.3203ZM37.3203 35.3267V40.7407H35.3516V36.9263H26.4746V35.3267H37.3203ZM32.2227 25.7642V30.4751H26.8438V32.2505C29.5684 32.2417 31.4932 32.1538 33.7695 31.811L34.0156 33.3755C31.502 33.7798 29.3574 33.8501 26.2812 33.8501H24.9277V28.9634H30.2891V27.3462H24.8926V25.7642H32.2227ZM47.3926 27.3813V28.9458H39.6055V27.3813H42.5586V25.3071H44.4922V27.3813H47.3926ZM43.5254 29.7896C45.5469 29.7896 46.9883 31.3188 46.9883 33.481C46.9883 35.6782 45.5469 37.2251 43.5254 37.2251C41.5215 37.2251 40.0449 35.6782 40.0625 33.481C40.0449 31.3188 41.5215 29.7896 43.5254 29.7896ZM43.5254 31.4067C42.4883 31.4067 41.7676 32.2329 41.7852 33.481C41.7676 34.7642 42.4883 35.5728 43.5254 35.5552C44.5449 35.5728 45.2656 34.7642 45.2656 33.481C45.2656 32.2329 44.5449 31.4067 43.5254 31.4067ZM53.2988 24.8501V40.7407H51.4355V32.9712H49.8887V40.02H48.0605V25.1841H49.8887V31.3892H51.4355V24.8501H53.2988ZM61.0684 28.6646C61.0684 31.6177 62.4746 34.5181 65.0059 35.6255L63.8281 37.1899C62.0264 36.311 60.7607 34.6235 60.084 32.5493C59.3896 34.7378 58.0977 36.5571 56.2695 37.4888L55.0391 35.9067C57.623 34.6938 59.0645 31.6353 59.082 28.6646V26.1333H61.0684V28.6646ZM68.5215 24.8501V40.7583H66.5879V31.5649H63.248V29.9829H66.5879V24.8501H68.5215ZM89.5449 37.2603V38.8599H75.0254V37.2603H81.3008V33.9731H83.2344V37.2603H89.5449ZM88.2441 27.1528V28.7349H83.2871C83.4189 30.7124 85.4844 32.5317 88.9121 32.9888L88.1914 34.5181C85.4404 34.1313 83.3223 32.9097 82.2676 31.1606C81.2129 32.9097 79.1123 34.1313 76.3613 34.5181L75.623 32.9888C79.0684 32.5317 81.125 30.7124 81.2832 28.7349H76.3086V27.1528H81.3008V25.0962H83.2344V27.1528H88.2441ZM104.258 24.8501V40.7407H102.395V32.6372H100.602V39.9321H98.8086V25.1489H100.602V31.0728H102.395V24.8501H104.258ZM97.0156 26.731V28.313H93.043V35.3794C94.7744 35.3618 96.1982 35.2739 97.8066 34.9751L97.9473 36.5747C96.0312 36.9614 94.3613 37.0142 92.1465 37.0317H91.0742V26.731H97.0156ZM111.834 27.7153C111.834 29.6665 113.1 31.4946 115.578 32.2505L114.646 33.7798C112.862 33.2261 111.597 32.0923 110.902 30.6509C110.199 32.3208 108.854 33.6479 106.947 34.2896L105.963 32.7427C108.529 31.8989 109.865 29.8423 109.865 27.7329V27.5396H106.508V25.9575H115.139V27.5396H111.834V27.7153ZM118.672 24.8501V28.6646H120.887V30.2642H118.672V34.3247H116.721V24.8501H118.672ZM113.504 34.6763C116.791 34.6763 118.812 35.7837 118.83 37.6821C118.812 39.5981 116.791 40.7231 113.504 40.7231C110.182 40.7231 108.125 39.5981 108.125 37.6821C108.125 35.7837 110.182 34.6763 113.504 34.6763ZM113.504 36.2056C111.324 36.2056 110.076 36.7153 110.076 37.6821C110.076 38.6665 111.324 39.1938 113.504 39.1938C115.684 39.1938 116.896 38.6665 116.896 37.6821C116.896 36.7153 115.684 36.2056 113.504 36.2056ZM128.92 25.0962C132.541 25.0962 134.633 26.063 134.65 27.8208C134.633 29.5962 132.541 30.5454 128.92 30.563C125.299 30.5454 123.189 29.5962 123.189 27.8208C123.189 26.063 125.299 25.0962 128.92 25.0962ZM128.92 26.5376C126.494 26.5376 125.229 26.9946 125.246 27.8208C125.229 28.6997 126.494 29.104 128.92 29.104C131.381 29.104 132.629 28.6997 132.629 27.8208C132.629 26.9946 131.381 26.5376 128.92 26.5376ZM136.18 31.4067V32.9712H121.695V31.4067H136.18ZM134.369 34.0435V37.9282H125.334V39.106H134.809V40.6001H123.418V36.5396H132.453V35.4849H123.4V34.0435H134.369ZM145.936 25.3423C147.263 25.3423 148.396 25.8081 149.152 26.5903H152.879V24.8501H154.83V32.8833H152.879V31.354H149.188C148.432 32.1626 147.28 32.6372 145.936 32.6372C143.527 32.6372 141.734 31.1431 141.734 28.981C141.734 26.8364 143.527 25.3423 145.936 25.3423ZM145.936 26.9243C144.564 26.9243 143.598 27.7329 143.598 28.981C143.598 30.2466 144.564 31.0552 145.936 31.0552C147.254 31.0552 148.221 30.2466 148.238 28.981C148.221 27.7329 147.254 26.9243 145.936 26.9243ZM154.83 33.604V37.7173H146.322V39.0005H155.34V40.5474H144.371V36.2759H152.879V35.1157H144.354V33.604H154.83ZM149.996 28.1021C150.058 28.3833 150.102 28.6733 150.102 28.981C150.102 29.271 150.066 29.561 149.996 29.8247H152.879V28.1021H149.996ZM161.422 26.0103C163.575 26.0103 165.166 27.8032 165.447 30.7036H168.471V24.8501H170.404V40.7583H168.471V32.2856H165.465C165.254 35.353 163.637 37.2427 161.422 37.2427C159.031 37.2427 157.344 35.0806 157.344 31.6177C157.344 28.1899 159.031 26.0103 161.422 26.0103ZM161.422 27.7681C160.104 27.7681 159.207 29.1919 159.225 31.6177C159.207 34.061 160.104 35.4849 161.422 35.4849C162.74 35.4849 163.619 34.061 163.637 31.6177C163.619 29.1919 162.74 27.7681 161.422 27.7681ZM187.156 37.2251V38.8247H172.637V37.2251H178.895V34.1313H174.236V25.9048H176.188V28.5063H183.553V25.9048H185.504V34.1313H180.828V37.2251H187.156ZM176.188 32.5493H183.553V30.0708H176.188V32.5493ZM193.15 29.0161C193.15 31.5825 194.047 34.2544 196.191 35.6079L195.119 37.1021C193.687 36.2407 192.755 34.7554 192.236 33.0063C191.656 34.9312 190.637 36.5571 189.143 37.4712L187.93 36.0122C190.232 34.606 191.27 31.811 191.27 29.104V26.2563H193.15V29.0161ZM201.904 24.8501V40.7407H200.023V24.8501H201.904ZM198.6 25.1313V39.9673H196.754V31.9341H194.486V30.3169H196.754V25.1313H198.6ZM218.27 37.2075V38.8071H203.75V37.2075H207.107V33.1821C205.842 32.4614 205.077 31.3276 205.086 29.9126C205.068 27.3813 207.564 25.7114 210.975 25.7114C214.402 25.7114 216.898 27.3813 216.898 29.9126C216.898 31.3013 216.16 32.4175 214.93 33.147V37.2075H218.27ZM210.975 27.2583C208.602 27.2583 206.984 28.2603 207.002 29.9126C206.984 31.5474 208.602 32.5669 210.975 32.5669C213.348 32.5669 214.982 31.5474 214.982 29.9126C214.982 28.2603 213.348 27.2583 210.975 27.2583ZM209.041 37.2075H212.943V33.8853C212.337 34.0259 211.678 34.0962 210.975 34.0962C210.289 34.0962 209.639 34.0259 209.041 33.9028V37.2075Z" fill="white"/>
</svg>
