<svg width="253" height="51" viewBox="0 0 253 51" fill="none" xmlns="http://www.w3.org/2000/svg">
<path d="M125.263 2.05963C125.822 1.12672 127.175 1.12672 127.734 2.05963L135.145 14.4116L117.852 14.4115L125.263 2.05963Z" fill="#FF5842"/>
<path d="M0 20.1762C0 16.9925 2.58091 14.4116 5.76462 14.4116H247.235C250.419 14.4116 253 16.9925 253 20.1762V45.1762C253 48.36 250.419 50.9409 247.235 50.9409H5.76462C2.58091 50.9409 0 48.36 0 45.1762V20.1762Z" fill="#FF5842"/>
<path d="M35.8652 25.7817V27.3286H31.5059V28.6997H35.707V30.1938H31.5059V31.6704C33.4482 31.6528 34.793 31.5825 36.3398 31.3013L36.5508 32.8833C34.6875 33.1821 33.1406 33.2524 30.6797 33.2524H29.625V25.7817H35.8652ZM42.6152 24.8677V33.8853H40.752V30.1235H39.0996V33.7622H37.2715V25.1665H39.0996V28.5239H40.752V24.8677H42.6152ZM33.8262 34.4653V35.9243H40.6816V34.4653H42.6152V40.5474H31.8926V34.4653H33.8262ZM33.8262 38.9653H40.6816V37.4536H33.8262V38.9653ZM52.3359 27.3813V28.9458H44.5488V27.3813H47.502V25.3071H49.4355V27.3813H52.3359ZM48.4688 29.7896C50.4902 29.7896 51.9316 31.3188 51.9316 33.481C51.9316 35.6782 50.4902 37.2251 48.4688 37.2251C46.4648 37.2251 44.9883 35.6782 45.0059 33.481C44.9883 31.3188 46.4648 29.7896 48.4688 29.7896ZM48.4688 31.4067C47.4316 31.4067 46.7109 32.2329 46.7285 33.481C46.7109 34.7642 47.4316 35.5728 48.4688 35.5552C49.4883 35.5728 50.209 34.7642 50.209 33.481C50.209 32.2329 49.4883 31.4067 48.4688 31.4067ZM58.2422 24.8501V40.7407H56.3789V32.9712H54.832V40.02H53.0039V25.1841H54.832V31.3892H56.3789V24.8501H58.2422ZM66.0117 28.6646C66.0117 31.6177 67.418 34.5181 69.9492 35.6255L68.7715 37.1899C66.9697 36.311 65.7041 34.6235 65.0273 32.5493C64.333 34.7378 63.041 36.5571 61.2129 37.4888L59.9824 35.9067C62.5664 34.6938 64.0078 31.6353 64.0254 28.6646V26.1333H66.0117V28.6646ZM73.4648 24.8501V40.7583H71.5312V31.5649H68.1914V29.9829H71.5312V24.8501H73.4648ZM94.4883 37.2603V38.8599H79.9688V37.2603H86.2441V33.9731H88.1777V37.2603H94.4883ZM93.1875 27.1528V28.7349H88.2305C88.3623 30.7124 90.4277 32.5317 93.8555 32.9888L93.1348 34.5181C90.3838 34.1313 88.2656 32.9097 87.2109 31.1606C86.1562 32.9097 84.0557 34.1313 81.3047 34.5181L80.5664 32.9888C84.0117 32.5317 86.0684 30.7124 86.2266 28.7349H81.252V27.1528H86.2441V25.0962H88.1777V27.1528H93.1875ZM109.201 24.8501V40.7407H107.338V32.6372H105.545V39.9321H103.752V25.1489H105.545V31.0728H107.338V24.8501H109.201ZM101.959 26.731V28.313H97.9863V35.3794C99.7178 35.3618 101.142 35.2739 102.75 34.9751L102.891 36.5747C100.975 36.9614 99.3047 37.0142 97.0898 37.0317H96.0176V26.731H101.959ZM116.777 27.7153C116.777 29.6665 118.043 31.4946 120.521 32.2505L119.59 33.7798C117.806 33.2261 116.54 32.0923 115.846 30.6509C115.143 32.3208 113.798 33.6479 111.891 34.2896L110.906 32.7427C113.473 31.8989 114.809 29.8423 114.809 27.7329V27.5396H111.451V25.9575H120.082V27.5396H116.777V27.7153ZM123.615 24.8501V28.6646H125.83V30.2642H123.615V34.3247H121.664V24.8501H123.615ZM118.447 34.6763C121.734 34.6763 123.756 35.7837 123.773 37.6821C123.756 39.5981 121.734 40.7231 118.447 40.7231C115.125 40.7231 113.068 39.5981 113.068 37.6821C113.068 35.7837 115.125 34.6763 118.447 34.6763ZM118.447 36.2056C116.268 36.2056 115.02 36.7153 115.02 37.6821C115.02 38.6665 116.268 39.1938 118.447 39.1938C120.627 39.1938 121.84 38.6665 121.84 37.6821C121.84 36.7153 120.627 36.2056 118.447 36.2056ZM133.863 25.0962C137.484 25.0962 139.576 26.063 139.594 27.8208C139.576 29.5962 137.484 30.5454 133.863 30.563C130.242 30.5454 128.133 29.5962 128.133 27.8208C128.133 26.063 130.242 25.0962 133.863 25.0962ZM133.863 26.5376C131.438 26.5376 130.172 26.9946 130.189 27.8208C130.172 28.6997 131.438 29.104 133.863 29.104C136.324 29.104 137.572 28.6997 137.572 27.8208C137.572 26.9946 136.324 26.5376 133.863 26.5376ZM141.123 31.4067V32.9712H126.639V31.4067H141.123ZM139.312 34.0435V37.9282H130.277V39.106H139.752V40.6001H128.361V36.5396H137.396V35.4849H128.344V34.0435H139.312ZM150.879 25.3423C152.206 25.3423 153.34 25.8081 154.096 26.5903H157.822V24.8501H159.773V32.8833H157.822V31.354H154.131C153.375 32.1626 152.224 32.6372 150.879 32.6372C148.471 32.6372 146.678 31.1431 146.678 28.981C146.678 26.8364 148.471 25.3423 150.879 25.3423ZM150.879 26.9243C149.508 26.9243 148.541 27.7329 148.541 28.981C148.541 30.2466 149.508 31.0552 150.879 31.0552C152.197 31.0552 153.164 30.2466 153.182 28.981C153.164 27.7329 152.197 26.9243 150.879 26.9243ZM159.773 33.604V37.7173H151.266V39.0005H160.283V40.5474H149.314V36.2759H157.822V35.1157H149.297V33.604H159.773ZM154.939 28.1021C155.001 28.3833 155.045 28.6733 155.045 28.981C155.045 29.271 155.01 29.561 154.939 29.8247H157.822V28.1021H154.939ZM166.365 26.0103C168.519 26.0103 170.109 27.8032 170.391 30.7036H173.414V24.8501H175.348V40.7583H173.414V32.2856H170.408C170.197 35.353 168.58 37.2427 166.365 37.2427C163.975 37.2427 162.287 35.0806 162.287 31.6177C162.287 28.1899 163.975 26.0103 166.365 26.0103ZM166.365 27.7681C165.047 27.7681 164.15 29.1919 164.168 31.6177C164.15 34.061 165.047 35.4849 166.365 35.4849C167.684 35.4849 168.562 34.061 168.58 31.6177C168.562 29.1919 167.684 27.7681 166.365 27.7681ZM192.1 37.2251V38.8247H177.58V37.2251H183.838V34.1313H179.18V25.9048H181.131V28.5063H188.496V25.9048H190.447V34.1313H185.771V37.2251H192.1ZM181.131 32.5493H188.496V30.0708H181.131V32.5493ZM198.094 29.0161C198.094 31.5825 198.99 34.2544 201.135 35.6079L200.062 37.1021C198.63 36.2407 197.698 34.7554 197.18 33.0063C196.6 34.9312 195.58 36.5571 194.086 37.4712L192.873 36.0122C195.176 34.606 196.213 31.811 196.213 29.104V26.2563H198.094V29.0161ZM206.848 24.8501V40.7407H204.967V24.8501H206.848ZM203.543 25.1313V39.9673H201.697V31.9341H199.43V30.3169H201.697V25.1313H203.543ZM223.213 37.2075V38.8071H208.693V37.2075H212.051V33.1821C210.785 32.4614 210.021 31.3276 210.029 29.9126C210.012 27.3813 212.508 25.7114 215.918 25.7114C219.346 25.7114 221.842 27.3813 221.842 29.9126C221.842 31.3013 221.104 32.4175 219.873 33.147V37.2075H223.213ZM215.918 27.2583C213.545 27.2583 211.928 28.2603 211.945 29.9126C211.928 31.5474 213.545 32.5669 215.918 32.5669C218.291 32.5669 219.926 31.5474 219.926 29.9126C219.926 28.2603 218.291 27.2583 215.918 27.2583ZM213.984 37.2075H217.887V33.8853C217.28 34.0259 216.621 34.0962 215.918 34.0962C215.232 34.0962 214.582 34.0259 213.984 33.9028V37.2075Z" fill="white"/>
</svg>
